<?xml version="1.0" encoding="utf-8"?>
<!-- Generator: Adobe Illustrator 19.0.0, SVG Export Plug-In . SVG Version: 6.00 Build 0)  -->
<svg version="1.1" id="Layer_1" xmlns="http://www.w3.org/2000/svg" xmlns:xlink="http://www.w3.org/1999/xlink" x="0px" y="0px"
	 viewBox="0 0 500 500" style="enable-background:new 0 0 500 500;" xml:space="preserve">
<style type="text/css">
	.st0{fill:#E31F26;}
	.st1{fill:#231F20;}
</style>
<g id="XMLID_1_">
	<path id="XMLID_5_" class="st0" d="M107.2,213.9l-8,19.7c0,0,4.5,0.6,7.7-1.3c1.9-1.1,5-3.7,6.2-6.9c0.8-2.5,2-5.9,0.4-8.4
		c-1.3-2-2-2.7-4.5-3C107.9,213.6,107.2,213.9,107.2,213.9 M125.8,207.9c0,0,6.3,2,7.1,9.6c0.8,7.6-3,15.4-9,18.4
		c-6,3-9.8,3.9-14.3,3.9l-13,0.2l-6.9,16.8c0,0,2.9,2.6-0.1,3.9L68,261c0,0-0.9-0.5-0.4-1.6c0.6-1.2,18.3-43.9,18.3-43.9
		s1.9-1.4,0.1-2.9c0,0-2.1-1.2-2.2-1.3c-0.8-0.8,0.7-2.5,0.7-2.5L125.8,207.9z"/>
	<path id="XMLID_8_" class="st0" d="M245.5,231l9.3-0.2l-2.6-10.3 M241.6,237c0,0-10.9,17.7-11.6,18.9c-0.7,1.2-0.2,1.2-0.2,1.2
		c1.6,1.5-0.6,1.6-0.6,1.6l-8.7,0.1c-1.2-0.4-0.5-1.6,0.4-2.3c0.9-0.7,1.9-2.7,1.9-2.7l29.1-47.1c0,0,16.4-0.5,17.3-0.4
		c0.9,0.1,0.9,1.6,0.5,2.5c-0.5,0.8-0.1,1.3-0.1,1.3s10,42.3,10.4,43.2c0.5,0.9,0,1.2,1.4,1.6c1.4,0.5,0.9,1.5,0.9,1.5
		c0.7-1.1,2.6,2.8,3.2,3.5c0.6,0.8,3.2,1.3,4.9,1.8c1.8,0.5,5.5,0.2,9-2c3.5-2.2,3-5.4,1.6-8.4c-1.4-3.2-8.6-10.1-10.5-13.5
		c-2-3.4-5.3-12.4-1.4-20.6c3.9-8.2,7-9,13.8-11.8c6.8-2.8,11.5-1.2,14.6-0.6c3.2,0.6,5.7,2,7.5,2.7c1.8,0.6,1.6,0.6,3.3,1.5
		c1.6,0.9,0.5,2.8,0.5,2.8s-1.1,3.3-1.5,4.8c-0.6,1.5-0.5,2-1.5,1.9s-0.6,0.7-2.6-2.6s-5.3-5.9-12.2-5.7c-6.9,0.1-7.7,4.8-7.5,8.4
		c0.2,3.6,5.7,10.8,8.6,14.6c2.8,3.9,6,9,6.7,12.8c0.7,3.7-0.6,8.1-3.4,11.8c-2.8,3.6-9.6,6.7-12.3,7.5c-2.7,0.9-10.1,1.5-12.1,1.4
		c-2-0.1-5.4-1.2-6.4-1.5s-4.5,0.1-5.9,0c-1.3-0.1-0.6-2.7-0.6-2.7l2.3-4.7l-21.2,0.5c-1.1-0.4-0.5-1.6,0.4-2.9
		c0.8-1.3,0.4-3.3,0.4-3.3l-4-15.2L241.6,237z"/>
	<path id="XMLID_9_" class="st0" d="M138.6,208.5c0,0-2,2.1-1.1,2.7c0.9,0.7,2.9,0.8,2,2.8c-0.9,2-19.6,46.2-19.6,46.2
		s-0.5,1.3,1.3,1.3c1.6,0,46.4-0.9,46.4-0.9s3-2.6,3.3-5.3c0.2-2.7,0.8-5-2.3-3.6c0,0-0.8,1.4-1.3,2c-0.1,0.1-24,0.5-24,0.5l8.7-20
		l12.9-0.2c0,0,0.9,0.1,1.1,1.2c0.1,1.1,0.5,2.3,1.5,2.3s2.1-1.2,2.7-3.9c0.6-2.7,1.3-6.9-1.4-5.2c0,0-0.2,1.8-1.6,1.8
		c-1.4,0-13.6,0.2-13.6,0.2l7-17.1l15.1-0.4c0,0,0.5-0.4,1.4,0.7c0,0,1.5,1.3,2.2,0c0.7-1.4,1.6-3,1.6-3s1.3-2.3-1.4-2.5
		c-2.7-0.1-37.1,0.7-37.1,0.7"/>
	<path id="XMLID_10_" class="st0" d="M208.5,231.7l19.2-0.4c0,0,2,1.4,0,3.5c0,0-2.1,1.5-2.6,2.7c-0.6,1.2-2.8,8.3-3.2,9.3
		c-0.2,0.9-1.5,7.6-3.4,10c-1.9,2.3-1.6,2.3-1.6,2.3l-11.4,0.2c0,0,0.6-2.7-2.2-1.3c-2.8,1.4-7.7,3.4-10.5,3.5
		c-2.8,0-9.1-1.6-11.4-3.2c-2.2-1.4-5.9-4.8-7.3-8.4c-1.4-3.6-2-10.7,1.5-18.4c3.5-7.6,9-16.2,16.6-20.5c7.7-4.2,13.5-5.9,20-5.6
		c6.6,0.2,8.9,0.4,11.8,1.3c2.8,0.9,3.7,1.4,5.3,1.5c1.5,0.1,3.3-0.7,2.5,2.1c-0.8,2.8-3.4,5.5-4.1,5.5c-0.7,0-0.6,0.4-1.5-0.6
		c-0.9-0.9-3.5-4.5-5.9-4.8c-2.5-0.5-8-0.5-11.6,1.2c-3.6,1.8-9,6.1-12.2,11c-3.2,4.8-6.4,11.4-7.3,15.7c-0.8,4.3-2,10,0.2,12.8
		c2.1,2.7,5.7,2.7,7.1,2.3c1.5-0.4,6.8-3.6,8.8-6.8c2-3.2,3.9-7.9,4.3-8.8c0.5-0.9,0.2-1.8-0.4-2.5c-0.6-0.7-1.5-1.3-1.5-2
		C208.2,232.6,208.5,231.7,208.5,231.7"/>
	<path id="XMLID_11_" class="st0" d="M337.3,207.3l19.1-0.4c0,0,2.9,0.6,0,3.3c0,0-0.7-0.2-2.1,3.9c-1.3,4.1-12.4,31.1-12.4,31.1
		s-2.5,7.3,0.9,8.9c3.4,1.6,7,0.4,8.9-2.3c1.8-2.7,19.2-44.9,19.2-44.9l20.3-0.4c0,0,2.8,0.2,1.1,2.9c0,0-10.8,24.4-11.8,26.4
		c-1.1,2-6.4,14.5-13.2,18.4c-6.9,3.9-12.5,6.4-19.2,7.1c-7.4,0.8-15.6,0-21.4-5.9c-5.9-5.9-2.3-17.3-0.7-21.6
		c1.6-4.2,8.6-21.9,8.6-21.9s0.6-0.6,0.1-1.4c-0.5-0.8-0.7-2.8,0.7-3.2C336.5,207,337.3,207.3,337.3,207.3"/>
	<path id="XMLID_12_" class="st0" d="M383.1,258.2c0,0,0.6-1.5,1.8-2.3c1.2-0.8,0.6-0.7,2.1,1.4c1.5,2.1,3.2,2.6,4.2,3
		c1.1,0.5,6.7,0.7,9.1-0.1c2.3-0.8,4.6-3.4,4.7-5.3c0.1-1.8,0.2-4.1-4.5-9.1c-4.7-5-9.8-12.7-10.2-19.3c-0.2-6.6,2.9-15.7,9.8-19.6
		c6.9-3.7,14.2-5.9,24.3-2.3c10.1,3.6,6.2,2.8,6.9,3.2c0.7,0.4,1.5,0.8,0.8,2.6c-0.7,1.9-1.3,5.5-2,6.3c-0.7,0.8-1.8,0.7-2.7-0.5
		c-0.9-1.2-3.4-5.2-6.2-6c-2.8-0.8-6.4-2.8-12.3,0.2c-5.7,3-0.6,13.4,1.8,15.4c2.2,2,9.6,12.8,10.2,15.5c0.7,2.8,2.6,10.5-3.5,15.8
		c-6.1,5.3-10.2,8.3-22.7,8.6c0,0-3.6-0.1-5.3-0.6c-1.6-0.5-1.5-1.2-3.2-1.1c-1.6,0-3.7,0.2-4.3,0.1c-0.6-0.1-1.4-0.5-1.1-1.5
		C381.4,261.7,383.1,258.2,383.1,258.2"/>
	<path id="XMLID_15_" class="st1" d="M295.6,274.3h6.7l3.9,22.6h-6l-0.7-4.8h-7.6l-2.5,4.8h-5.5 M298.2,278.9L298.2,278.9l-4.2,8.9
		h5.2L298.2,278.9z"/>
	<path id="XMLID_18_" class="st1" d="M322,274.3h9.7c1.9,0,3.4,0.5,4.5,1.4c1.1,1.1,1.5,2.5,1.2,4.3c-0.6,3.2-2.2,5-4.9,5.7v0.1
		c0.7,0.2,1.2,0.8,1.4,1.6c0.1,0.2,0.2,1.3,0.6,3.4l0.9,6.2h-5.7l-0.5-4.1c-0.2-2-0.5-3.3-0.9-3.9c-0.4-0.7-1.1-0.9-2.1-0.9h-1.2
		l-1.5,8.9h-5.5 M325.7,283.7h1.4c1.2,0,2.1-0.1,2.7-0.4c0.9-0.4,1.5-1.2,1.8-2.2c0.4-1.6-0.9-2.5-3.5-2.5h-1.4L325.7,283.7z"/>
	<polyline id="XMLID_19_" class="st1" points="341.7,274.3 347.2,274.3 343.9,292.5 352.3,292.5 351.6,296.9 337.7,296.9 	"/>
	<polygon id="XMLID_20_" class="st1" points="358.2,274.3 363.7,274.3 359.7,296.9 354.2,296.9 	"/>
	<polyline id="XMLID_21_" class="st1" points="367.9,274.3 374.8,274.3 379,289.7 381.7,274.3 386.6,274.3 382.7,296.9 375.9,296.9 
		371.5,281.5 371.4,281.5 368.8,296.9 363.8,296.9 	"/>
	<polyline id="XMLID_22_" class="st1" points="390.4,274.3 404.8,274.3 404.1,278.6 395.1,278.6 394.3,283.2 402.8,283.2 402,287.6 
		393.6,287.6 392.6,292.6 401.9,292.6 401.2,296.9 386.4,296.9 	"/>
	<path id="XMLID_23_" class="st1" d="M405.5,291.3c1.5,0.9,3.3,1.5,5.4,1.5c2.2,0,3.5-0.7,3.7-2.2c0.2-1.1-0.5-2-2.1-2.6
		c-2.5-1.1-3.9-1.6-4.3-2c-1.5-1.2-2-2.9-1.6-5.3c0.5-2.5,1.8-4.3,3.9-5.5c1.6-0.9,3.7-1.4,6.2-1.4c2,0,3.7,0.2,5.2,0.8l-1.2,4.7
		c-1.3-0.7-2.7-1.1-4.3-1.1c-2.5,0-3.7,0.7-4.1,2.1c-0.1,0.9,0.6,1.6,2.1,2.2c2.3,0.8,3.7,1.5,4.3,1.9c1.5,1.2,2,2.9,1.6,5.3
		c-0.8,4.9-4.3,7.5-10.3,7.5c-2.2,0-4.2-0.4-6-0.9"/>
	<polygon id="XMLID_24_" class="st1" points="312.6,274.3 318,274.3 314,296.9 308.6,296.9 	"/>
</g>
</svg>
