<svg width="52" height="54" viewBox="0 0 52 54" fill="none" xmlns="http://www.w3.org/2000/svg">
<path fill-rule="evenodd" clip-rule="evenodd" d="M23.777 11.0664H28.2338C29.3085 11.0664 30.1643 11.8678 30.3225 12.8916H21.6861C21.8443 11.8678 22.7001 11.0664 23.777 11.0664ZM32.045 16.1316H32.955C33.8 16.1316 34.58 16.2418 35.295 16.434V46.4363C34.58 46.6091 33.8 46.6955 32.955 46.6955H32.045V16.1316ZM16.7049 16.434C17.4199 16.2418 18.1999 16.1316 19.0449 16.1316H19.9549V46.6955H19.0449C18.1999 46.6955 17.4199 46.6091 16.7049 46.4363V16.434ZM33.6266 12.9132H33.605C33.4511 10.0858 31.1133 7.82642 28.2338 7.82642H23.777C20.8974 7.82642 18.5574 10.0858 18.4014 12.9132H18.3732C12.5882 13.194 8.60156 17.2116 8.60156 22.8729V39.9563C8.60156 45.9417 12.8049 49.9355 19.0449 49.9355H32.955C39.195 49.9355 43.3983 45.9417 43.3983 39.9563V22.8729C43.3983 17.2116 39.4116 13.194 33.6266 12.9132Z" fill="#FF9500"/>
</svg>
