<svg width="43" height="26" viewBox="0 0 43 26" fill="none" xmlns="http://www.w3.org/2000/svg">
<rect width="43" height="26" rx="13" fill="#FFF3E0"/>
<path d="M11.7779 15.964C11.7219 15.9733 11.6426 15.978 11.5399 15.978C11.0826 15.978 10.6486 15.824 10.2379 15.516C9.82727 15.1987 9.54727 14.816 9.39794 14.368C9.32327 14.116 9.28594 13.878 9.28594 13.654C9.28594 13.1593 9.4306 12.702 9.71994 12.282C10.0093 11.862 10.3873 11.5727 10.8539 11.414L12.9119 10.728V10.098H13.9759V14.214C13.9759 14.662 14.1346 15.0447 14.4519 15.362C14.7786 15.67 15.1753 15.824 15.6419 15.824H15.9079L15.9779 16.412L15.9079 17H15.6419C15.1659 17 14.7226 16.8833 14.3119 16.65C13.9106 16.4167 13.5839 16.104 13.3319 15.712L11.7779 15.964ZM10.4059 13.948C10.4806 14.2093 10.6439 14.4287 10.8959 14.606C11.1479 14.774 11.4139 14.8347 11.6939 14.788L12.9399 14.578C12.9213 14.41 12.9119 14.2887 12.9119 14.214V11.904L11.1899 12.492C10.9286 12.5853 10.7233 12.7347 10.5739 12.94C10.4246 13.136 10.3499 13.3553 10.3499 13.598C10.3499 13.682 10.3686 13.7987 10.4059 13.948ZM15.762 15.824H16.644C17.54 15.824 17.96 15.474 17.904 14.774V14.732L17.75 13.01L18.814 12.912L18.968 14.634V14.662C19.0054 15.082 19.1174 15.3807 19.304 15.558C19.4907 15.7353 19.7987 15.824 20.228 15.824L20.298 16.412L20.228 17C19.444 17 18.856 16.7713 18.464 16.314C18.0347 16.7713 17.428 17 16.644 17H15.762V15.824ZM15.86 18.274H17.274V19.674H15.86V18.274ZM20.0823 15.824H20.9643C21.8603 15.824 22.2803 15.474 22.2243 14.774V14.732L22.0703 13.01L23.1343 12.912L23.2883 14.634V14.662C23.3257 15.082 23.4377 15.3807 23.6243 15.558C23.811 15.7353 24.119 15.824 24.5483 15.824L24.6183 16.412L24.5483 17C23.7643 17 23.1763 16.7713 22.7843 16.314C22.355 16.7713 21.7483 17 20.9643 17H20.0823V15.824ZM21.2583 10.056H22.6583V11.456H21.2583V10.056ZM31.9627 17C31.608 17 31.286 16.9347 30.9967 16.804C30.7073 16.664 30.4647 16.4727 30.2687 16.23C29.8673 16.7433 29.284 17 28.5187 17C28.164 17 27.842 16.93 27.5527 16.79C27.2633 16.65 27.0207 16.4587 26.8247 16.216C26.414 16.7387 25.826 17 25.0607 17H24.4027V15.824H25.0607C25.9007 15.824 26.3207 15.446 26.3207 14.69V12.954H27.3147V14.69V14.774C27.3147 15.0913 27.4173 15.348 27.6227 15.544C27.8373 15.7307 28.136 15.824 28.5187 15.824C29.3213 15.824 29.7413 15.4833 29.7787 14.802V14.69V12.954H30.7727V14.69V14.802C30.782 15.1193 30.8893 15.3713 31.0947 15.558C31.3 15.7353 31.5893 15.824 31.9627 15.824C32.336 15.824 32.6393 15.74 32.8727 15.572C33.1153 15.3947 33.2367 15.1053 33.2367 14.704C33.2367 14.4893 33.204 14.2653 33.1387 14.032L32.5787 11.946L33.6007 11.652L34.1607 13.738C34.254 14.074 34.3007 14.4007 34.3007 14.718C34.3007 15.2033 34.1933 15.6187 33.9787 15.964C33.764 16.3 33.4793 16.5567 33.1247 16.734C32.77 16.9113 32.3827 17 31.9627 17ZM28.3507 9.93H29.6807V11.26H28.3507V9.93ZM29.6667 8.18H30.8847V9.342H29.6667V8.18ZM30.8427 9.93H32.1587V11.26H30.8287L30.8427 9.93Z" fill="#71717A"/>
</svg>
