<svg width="52" height="52" viewBox="0 0 52 52" fill="none" xmlns="http://www.w3.org/2000/svg">
<path d="M18.7775 5.45251C18.1429 4.81791 17.114 4.81791 16.4794 5.45251C15.8448 6.08713 15.8448 7.11601 16.4794 7.75063C16.8574 8.12862 16.8557 8.73897 16.4806 9.11327C14.8347 10.7592 14.8318 13.4303 16.4806 15.0757C17.1159 15.7097 18.1448 15.7086 18.7787 15.0733C19.4127 14.438 19.4116 13.4092 18.7763 12.7752C18.4012 12.4009 18.3995 11.7906 18.7775 11.4126C20.4251 9.7671 20.423 7.09801 18.7775 5.45251Z" fill="#FF9500"/>
<path d="M40.2 12.7555C40.8346 12.1209 40.8346 11.092 40.2 10.4574C39.5654 9.8228 38.5366 9.8228 37.902 10.4574C36.256 12.1033 36.2543 14.7733 37.9031 16.4187C38.5384 17.0526 39.5673 17.0515 40.2013 16.4162C40.8353 15.781 40.8342 14.7521 40.1989 14.1181C39.8239 13.7439 39.8221 13.1335 40.2 12.7555Z" fill="#FF9500"/>
<path d="M9.10803 14.1185C8.47343 13.4839 7.44453 13.4839 6.80993 14.1185C6.17534 14.7531 6.17534 15.782 6.80993 16.4166C7.18793 16.7946 7.18622 17.405 6.81112 17.7793C6.17588 18.4132 6.17479 19.4421 6.80874 20.0774C7.44268 20.7126 8.47157 20.7137 9.10684 20.0798C10.7556 18.4344 10.7539 15.7644 9.10803 14.1185Z" fill="#FF9500"/>
<path fill-rule="evenodd" clip-rule="evenodd" d="M25.9992 13.5674C23.517 13.5674 21.5093 15.5803 21.5093 18.0594V19.5358C13.3039 21.2755 7.14408 27.6713 7.60753 35.3831C7.64191 35.9551 8.11585 36.4014 8.68891 36.4014H43.3115C43.8845 36.4014 44.3586 35.9551 44.3928 35.3829C44.8543 27.6708 38.6939 21.2749 30.4891 19.5356V18.0594C30.4891 15.5795 28.4785 13.5674 25.9992 13.5674ZM27.2391 19.1031V18.0594C27.2391 17.3729 26.6821 16.8174 25.9992 16.8174C25.3151 16.8174 24.7594 17.3721 24.7594 18.0594V19.1032C25.1698 19.0799 25.5836 19.0681 26.0002 19.0681C26.416 19.0681 26.8292 19.0799 27.2391 19.1031Z" fill="#FF9500"/>
<path d="M6.06238 39.1818C6.50007 38.8304 7.03621 38.6943 7.58318 38.6943H44.4164C44.9635 38.6943 45.4995 38.8304 45.9374 39.1818C46.3757 39.5337 46.5961 40.0058 46.6921 40.4519C46.871 41.2844 46.6641 42.2297 46.415 42.9783C45.7171 45.0715 43.7554 46.4855 41.5482 46.4855H10.4516C8.24423 46.4855 6.28273 45.0721 5.58498 42.9787C5.33581 42.2301 5.12859 41.2844 5.30758 40.4519C5.4035 40.0058 5.624 39.5337 6.06238 39.1818Z" fill="#FF9500"/>
</svg>
