<svg width="402" height="299" viewBox="0 0 402 299" fill="none" xmlns="http://www.w3.org/2000/svg">
<g clip-path="url(#clip0_105_7732)">
<path d="M402 262.762H0V262.962H402V262.762Z" fill="#EBEBEB"/>
<path d="M190.556 226.972H35.3037C32.7711 226.972 30.7129 224.918 30.7129 222.39V4.58198C30.7129 2.05427 32.7711 0 35.3037 0H190.556C193.089 0 195.147 2.05427 195.147 4.58198V222.39C195.147 224.918 193.089 226.972 190.556 226.972ZM35.3037 0.200612C32.8837 0.200612 30.9139 2.16661 30.9139 4.58198V222.39C30.9139 224.806 32.8837 226.772 35.3037 226.772H190.556C192.976 226.772 194.946 224.806 194.946 222.39V4.58198C194.946 2.16661 192.976 0.200612 190.556 0.200612H35.3037Z" fill="#EBEBEB"/>
<path d="M364.461 226.972H209.209C206.676 226.972 204.618 224.918 204.618 222.39V4.58198C204.618 2.05427 206.676 0 209.209 0H364.461C366.994 0 369.052 2.05427 369.052 4.58198V222.39C369.052 224.918 366.994 226.972 364.461 226.972ZM209.209 0.200612C206.789 0.200612 204.819 2.16661 204.819 4.58198V222.39C204.819 224.806 206.789 226.772 209.209 226.772H364.461C366.881 226.772 368.851 224.806 368.851 222.39V4.58198C368.851 2.16661 366.881 0.200612 364.461 0.200612H209.209Z" fill="#EBEBEB"/>
<path d="M62.133 270.401H41.229V270.601H62.133V270.401Z" fill="#EBEBEB"/>
<path d="M152.905 268.226H116.701V268.427H152.905V268.226Z" fill="#EBEBEB"/>
<path d="M111.812 277.855H62.937V278.056H111.812V277.855Z" fill="#EBEBEB"/>
<path d="M360.771 276.507H345.31V276.708H360.771V276.507Z" fill="#EBEBEB"/>
<path d="M338.146 276.507H293.693V276.708H338.146V276.507Z" fill="#EBEBEB"/>
<path d="M266.542 273.113H206.668V273.313H266.542V273.113Z" fill="#EBEBEB"/>
<path d="M153.427 128.785L143.257 262.761H241.329L251.499 128.785H153.427ZM215.102 223.482C214.274 234.411 204.723 243.27 193.772 243.27C182.822 243.27 174.621 234.411 175.449 223.482L179.027 176.378C179.855 165.449 189.406 156.581 200.357 156.581C205.832 156.581 210.624 158.796 213.936 162.383C217.249 165.962 219.09 170.913 218.68 176.378L215.102 223.482Z" fill="#E6E6E6"/>
<path d="M272.452 262.761H129.452L130.272 253.966H273.28L272.452 262.761Z" fill="#E6E6E6"/>
<path d="M327.405 213.01H340.068C340.792 213.01 341.355 212.416 341.315 211.694L341.266 210.795C341.226 210.073 340.607 209.479 339.883 209.479H327.22C326.497 209.479 325.934 210.073 325.974 210.795L326.022 211.694C326.063 212.416 326.682 213.01 327.405 213.01Z" fill="#E0E0E0"/>
<path d="M306.236 213.01H318.899C319.623 213.01 320.185 212.416 320.145 211.694L320.097 210.795C320.057 210.073 319.438 209.479 318.714 209.479H306.051C305.327 209.479 304.765 210.073 304.805 210.795L304.853 211.694C304.893 212.416 305.512 213.01 306.236 213.01Z" fill="#E0E0E0"/>
<path d="M349.925 212.023H54.3506C50.9417 212.023 48.0392 209.262 47.8704 205.86L38.9701 28.6633C38.8013 25.2609 41.4223 22.5005 44.8313 22.5005H340.398C343.807 22.5005 346.709 25.2609 346.878 28.6633L355.778 205.86C355.947 209.262 353.326 212.023 349.917 212.023H349.925Z" fill="#E0E0E0"/>
<path d="M353.543 212.023H57.9766C54.5677 212.023 51.6652 209.262 51.4964 205.86L42.5961 28.6633C42.4273 25.2609 45.0483 22.5005 48.4573 22.5005H344.024C347.433 22.5005 350.335 25.2609 350.504 28.6633L359.404 205.86C359.573 209.262 356.952 212.023 353.543 212.023Z" fill="#E6E6E6"/>
<path d="M59.7051 199.657L51.432 34.8744C51.3275 32.7399 52.9676 31.0146 55.1063 31.0146H338.243C340.382 31.0146 342.199 32.7399 342.303 34.8744L350.576 199.657C350.681 201.792 349.041 203.517 346.902 203.517H63.7653C61.6267 203.517 59.8097 201.792 59.7051 199.657Z" fill="#F5F5F5"/>
<path d="M68.871 39.4399C68.9675 41.3257 67.5122 42.8583 65.6228 42.8583C63.7334 42.8583 62.1254 41.3257 62.0289 39.4399C61.9325 37.5542 63.3877 36.0215 65.2771 36.0215C67.1665 36.0215 68.7745 37.5542 68.871 39.4399Z" fill="white"/>
<path d="M84.3642 39.4399C84.4606 41.3257 83.0054 42.8583 81.116 42.8583C79.2266 42.8583 77.6186 41.3257 77.5221 39.4399C77.4256 37.5542 78.8809 36.0215 80.7703 36.0215C82.6597 36.0215 84.2677 37.5542 84.3642 39.4399Z" fill="white"/>
<path d="M99.8651 39.4399C99.9616 41.3257 98.5064 42.8583 96.617 42.8583C94.7276 42.8583 93.1196 41.3257 93.0231 39.4399C92.9266 37.5542 94.3818 36.0215 96.2712 36.0215C98.1606 36.0215 99.7686 37.5542 99.8651 39.4399Z" fill="white"/>
<g opacity="0.6">
<path d="M89.1479 203.517H129.951L167.257 31.0063H126.454L89.1479 203.517Z" fill="white"/>
<path d="M264.742 203.517H275.073L312.379 31.0063H302.047L264.742 203.517Z" fill="white"/>
<path d="M139.02 203.517H196.908L234.214 31.0063H176.326L139.02 203.517Z" fill="white"/>
</g>
<path d="M201 299C287.094 299 356.887 294.933 356.887 289.916C356.887 284.899 287.094 280.833 201 280.833C114.906 280.833 45.1123 284.899 45.1123 289.916C45.1123 294.933 114.906 299 201 299Z" fill="#F5F5F5"/>
<path d="M289.922 166.99C289.826 166.99 289.729 166.99 289.633 166.982C268.222 165.232 253.477 146.961 252.858 146.182C251.628 144.633 251.885 142.379 253.437 141.143C254.988 139.915 257.248 140.172 258.478 141.721C258.647 141.937 271.261 157.457 288.732 159.671C294.4 154.062 299.168 139.225 298.646 134.731C298.646 134.691 298.638 134.651 298.638 134.603C298.517 133.158 298.252 128.215 299.675 125.262C300.535 123.481 302.682 122.727 304.467 123.585C306.251 124.444 307.007 126.586 306.147 128.368C305.793 129.106 305.624 131.77 305.793 133.977C306.589 141.359 300.181 159.992 292.125 166.227C291.49 166.717 290.718 166.982 289.922 166.982V166.99Z" fill="#263238"/>
<path d="M119.651 147.546C113.275 147.546 95.2254 145.981 80.6087 129.668C79.4751 128.4 79.3866 126.506 80.3997 125.142C86.2045 117.35 96.4475 98.95 98.0475 92.9557C97.3882 91.8163 96.1983 90.1793 94.7189 89.4811C93.5772 88.9435 92.7973 87.8441 92.6687 86.5923L92.0898 80.7184C91.8969 78.7444 93.336 76.9951 95.3139 76.8025C97.2837 76.6099 99.0444 78.0463 99.2374 80.0203L99.6394 84.1047C103.145 86.6164 104.898 90.5323 105.115 91.0379C105.356 91.6076 105.444 92.2335 105.38 92.8514C104.64 99.2229 94.2928 117.647 87.9251 126.963C102.791 141.753 120.559 140.404 121.339 140.332C123.301 140.172 125.054 141.616 125.231 143.582C125.408 145.548 123.96 147.289 121.991 147.474C121.822 147.49 121.002 147.562 119.659 147.562L119.651 147.546Z" fill="#263238"/>
<path d="M235.467 289.796H225.843C224.718 289.796 223.664 289.275 222.981 288.384C222.306 287.493 222.08 286.338 222.378 285.255C224.894 276.235 226.125 268.901 227.057 257.402C223.648 241.393 220.44 226.74 220.408 226.588C219.982 224.654 221.212 222.744 223.15 222.319C225.087 221.893 227.001 223.121 227.427 225.055C227.459 225.207 230.739 240.189 234.197 256.415C234.269 256.752 234.293 257.097 234.261 257.442C233.449 267.761 232.404 274.895 230.498 282.623H235.467C237.453 282.623 239.061 284.227 239.061 286.209C239.061 288.192 237.453 289.796 235.467 289.796Z" fill="#263238"/>
<path d="M161.057 289.796H155.622C154.585 289.796 153.596 289.347 152.913 288.561C152.229 287.782 151.924 286.739 152.068 285.712C152.993 279.132 157.729 267.151 162.762 255.107C164.555 239.218 166.026 225.577 166.042 225.44C166.251 223.474 168.02 222.038 169.998 222.262C171.967 222.471 173.399 224.236 173.181 226.21C173.165 226.347 171.662 240.301 169.845 256.423C169.805 256.76 169.724 257.089 169.588 257.402C166.018 265.932 161.958 275.978 160.1 282.631H161.065C163.051 282.631 164.659 284.235 164.659 286.217C164.659 288.2 163.051 289.804 161.065 289.804L161.057 289.796Z" fill="#263238"/>
<path d="M164.184 44.9614L122.32 86.7449C120.213 133.054 120.39 181.699 122.32 232.14H260.737C257.995 167.054 257.738 104.407 260.737 44.9695H164.176L164.184 44.9614Z" fill="white"/>
<path d="M260.745 232.847H122.328C121.942 232.847 121.629 232.542 121.612 232.156C119.602 179.789 119.602 130.847 121.612 86.7048C121.621 86.5282 121.693 86.3597 121.822 86.2313L163.686 44.4479C163.822 44.3115 163.999 44.2393 164.192 44.2393H260.753C260.946 44.2393 261.139 44.3195 261.275 44.4639C261.412 44.6084 261.484 44.801 261.476 44.9936C258.59 102.24 258.59 163.451 261.476 232.1C261.484 232.293 261.412 232.485 261.275 232.63C261.139 232.766 260.954 232.847 260.761 232.847H260.745ZM123.019 231.41H259.997C257.151 163.314 257.151 102.545 259.997 45.6676H164.49L123.036 87.0418C121.05 130.88 121.05 179.444 123.019 231.41Z" fill="#263238"/>
<path d="M163.091 186.529L164.603 186.401C164.699 187.003 164.892 187.508 165.174 187.894C165.455 188.279 165.873 188.6 166.436 188.832C166.999 189.073 167.626 189.194 168.317 189.194C168.928 189.194 169.467 189.105 169.925 188.921C170.384 188.736 170.721 188.487 170.938 188.174C171.155 187.853 171.252 187.508 171.236 187.139C171.22 186.762 171.091 186.425 170.858 186.144C170.625 185.863 170.247 185.623 169.732 185.43C169.403 185.302 168.671 185.109 167.545 184.836C166.42 184.571 165.624 184.315 165.166 184.082C164.571 183.777 164.12 183.4 163.815 182.951C163.509 182.501 163.341 181.996 163.316 181.442C163.284 180.832 163.437 180.262 163.759 179.725C164.08 179.195 164.571 178.786 165.222 178.513C165.873 178.24 166.613 178.096 167.433 178.096C168.333 178.096 169.129 178.24 169.837 178.529C170.536 178.818 171.083 179.243 171.485 179.805C171.879 180.367 172.112 181.001 172.168 181.715L170.633 181.827C170.512 181.065 170.207 180.487 169.708 180.094C169.21 179.701 168.494 179.508 167.562 179.508C166.629 179.508 165.889 179.685 165.463 180.038C165.037 180.391 164.836 180.824 164.86 181.322C164.884 181.755 165.053 182.116 165.383 182.397C165.704 182.678 166.524 182.967 167.843 183.263C169.161 183.56 170.07 183.817 170.568 184.034C171.292 184.363 171.831 184.772 172.193 185.27C172.554 185.767 172.747 186.345 172.779 186.995C172.812 187.637 172.651 188.247 172.313 188.816C171.967 189.386 171.461 189.827 170.786 190.148C170.11 190.461 169.338 190.622 168.47 190.622C167.369 190.622 166.444 190.461 165.688 190.14C164.932 189.819 164.321 189.338 163.871 188.696C163.421 188.054 163.164 187.332 163.099 186.521L163.091 186.529Z" fill="#263238"/>
<path d="M180.827 187.597L182.379 187.789C182.178 188.688 181.76 189.386 181.133 189.876C180.498 190.373 179.67 190.622 178.649 190.622C177.362 190.622 176.325 190.229 175.529 189.434C174.741 188.64 174.307 187.533 174.243 186.112C174.17 184.636 174.5 183.488 175.224 182.678C175.947 181.859 176.912 181.458 178.126 181.458C179.34 181.458 180.281 181.859 181.061 182.654C181.84 183.456 182.267 184.58 182.339 186.024C182.339 186.112 182.339 186.241 182.347 186.417H175.794C175.899 187.38 176.204 188.118 176.719 188.632C177.234 189.145 177.861 189.402 178.592 189.402C179.139 189.402 179.597 189.258 179.967 188.969C180.337 188.68 180.626 188.223 180.819 187.597H180.827ZM175.819 185.189H180.731C180.626 184.451 180.417 183.897 180.088 183.528C179.589 182.959 178.954 182.67 178.198 182.67C177.515 182.67 176.952 182.894 176.502 183.352C176.06 183.809 175.827 184.419 175.819 185.189Z" fill="#263238"/>
<path d="M184.357 190.421L183.939 181.651H185.282L185.346 182.983C185.66 182.357 185.957 181.947 186.23 181.755C186.512 181.554 186.825 181.458 187.171 181.458C187.67 181.458 188.192 181.618 188.723 181.939L188.273 183.32C187.895 183.103 187.533 182.999 187.163 182.999C186.833 182.999 186.552 183.095 186.303 183.296C186.053 183.488 185.885 183.761 185.788 184.106C185.651 184.636 185.595 185.213 185.619 185.839L185.836 190.429H184.349L184.357 190.421Z" fill="#263238"/>
<path d="M192.461 190.421L188.699 181.65H190.275L192.413 186.906C192.646 187.476 192.863 188.062 193.064 188.672C193.177 188.206 193.33 187.653 193.539 187.003L195.235 181.65H196.763L193.852 190.421H192.461Z" fill="#263238"/>
<path d="M198.009 180.022L197.929 178.312H199.416L199.497 180.022H198.009ZM198.508 190.421L198.09 181.651H199.577L199.995 190.421H198.508Z" fill="#263238"/>
<path d="M207.842 187.211L209.313 187.404C209.2 188.407 208.831 189.201 208.195 189.771C207.56 190.341 206.764 190.63 205.808 190.63C204.602 190.63 203.621 190.237 202.849 189.45C202.077 188.664 201.659 187.54 201.587 186.072C201.538 185.125 201.659 184.298 201.94 183.584C202.222 182.87 202.672 182.34 203.299 181.987C203.926 181.634 204.618 181.45 205.373 181.45C206.33 181.45 207.118 181.69 207.753 182.172C208.38 182.653 208.806 183.335 209.024 184.226L207.584 184.451C207.416 183.865 207.15 183.416 206.788 183.119C206.427 182.822 205.992 182.669 205.494 182.669C204.746 182.669 204.143 182.934 203.701 183.472C203.259 184.01 203.066 184.86 203.122 186.024C203.178 187.203 203.444 188.062 203.926 188.591C204.401 189.129 205.012 189.394 205.735 189.394C206.322 189.394 206.796 189.217 207.174 188.856C207.552 188.495 207.769 187.95 207.842 187.203V187.211Z" fill="#263238"/>
<path d="M216.621 187.597L218.173 187.789C217.972 188.688 217.554 189.386 216.927 189.876C216.292 190.373 215.464 190.622 214.443 190.622C213.156 190.622 212.119 190.229 211.323 189.434C210.535 188.64 210.101 187.533 210.037 186.112C209.964 184.636 210.294 183.488 211.009 182.678C211.733 181.859 212.698 181.458 213.912 181.458C215.126 181.458 216.067 181.859 216.855 182.654C217.634 183.456 218.061 184.58 218.133 186.024C218.133 186.112 218.133 186.241 218.141 186.417H211.588C211.693 187.38 211.998 188.118 212.513 188.632C213.028 189.145 213.655 189.402 214.386 189.402C214.933 189.402 215.391 189.258 215.761 188.969C216.131 188.68 216.42 188.223 216.613 187.597H216.621ZM211.612 185.189H216.525C216.42 184.451 216.211 183.897 215.882 183.528C215.383 182.959 214.748 182.67 213.992 182.67C213.309 182.67 212.746 182.894 212.296 183.352C211.854 183.809 211.621 184.419 211.612 185.189Z" fill="#263238"/>
<path d="M155.59 207.345L155.526 206.053C154.89 207.048 153.982 207.537 152.808 207.537C152.285 207.537 151.803 207.441 151.345 207.24C150.887 207.04 150.541 206.791 150.308 206.494C150.074 206.197 149.906 205.828 149.793 205.395C149.721 205.106 149.664 204.64 149.632 204.007L149.375 198.566H150.862L151.096 203.429C151.136 204.207 151.184 204.729 151.264 205.002C151.377 205.395 151.594 205.7 151.908 205.924C152.221 206.149 152.599 206.261 153.049 206.261C153.5 206.261 153.91 206.149 154.287 205.916C154.665 205.684 154.931 205.379 155.075 204.985C155.22 204.592 155.276 204.023 155.236 203.268L155.011 198.566H156.498L156.917 207.345H155.582H155.59Z" fill="#263238"/>
<path d="M159.256 207.345L158.838 198.566H160.181L160.237 199.818C160.84 198.855 161.748 198.374 162.962 198.374C163.493 198.374 163.983 198.47 164.434 198.654C164.884 198.847 165.23 199.096 165.471 199.401C165.704 199.706 165.881 200.075 165.985 200.5C166.05 200.773 166.106 201.254 166.138 201.944L166.395 207.337H164.908L164.651 202.001C164.619 201.399 164.538 200.941 164.41 200.644C164.281 200.348 164.064 200.107 163.758 199.922C163.453 199.746 163.107 199.657 162.705 199.657C162.07 199.657 161.531 199.858 161.089 200.259C160.647 200.661 160.454 201.423 160.51 202.546L160.743 207.337H159.256V207.345Z" fill="#263238"/>
<path d="M174.372 206.262C173.841 206.727 173.326 207.064 172.828 207.257C172.329 207.449 171.783 207.545 171.196 207.545C170.231 207.545 169.475 207.313 168.936 206.839C168.398 206.366 168.108 205.764 168.068 205.034C168.044 204.608 168.124 204.215 168.309 203.854C168.486 203.501 168.727 203.212 169.041 202.996C169.347 202.779 169.7 202.618 170.086 202.506C170.376 202.426 170.81 202.354 171.397 202.281C172.595 202.137 173.471 201.968 174.026 201.768C174.026 201.567 174.026 201.431 174.018 201.383C173.986 200.781 173.825 200.347 173.535 200.099C173.141 199.762 172.563 199.593 171.815 199.593C171.115 199.593 170.601 199.714 170.279 199.962C169.958 200.211 169.732 200.644 169.604 201.262L168.141 201.062C168.245 200.436 168.438 199.938 168.719 199.553C169.001 199.168 169.427 198.879 169.99 198.67C170.552 198.462 171.212 198.357 171.968 198.357C172.723 198.357 173.334 198.446 173.809 198.622C174.283 198.799 174.645 199.023 174.878 199.288C175.111 199.553 175.28 199.89 175.393 200.299C175.457 200.556 175.497 201.014 175.529 201.672L175.626 203.654C175.69 205.034 175.762 205.908 175.843 206.278C175.923 206.647 176.068 206.992 176.269 207.329H174.709C174.54 207.024 174.42 206.663 174.363 206.245L174.372 206.262ZM174.09 202.939C173.559 203.164 172.755 203.349 171.686 203.501C171.075 203.589 170.649 203.686 170.4 203.798C170.151 203.91 169.966 204.071 169.837 204.279C169.708 204.488 169.652 204.729 169.66 204.986C169.676 205.379 169.845 205.716 170.159 205.981C170.472 206.245 170.922 206.374 171.501 206.374C172.08 206.374 172.579 206.245 173.013 205.997C173.447 205.748 173.76 205.403 173.945 204.97C174.09 204.633 174.146 204.135 174.114 203.485L174.09 202.939Z" fill="#263238"/>
<path d="M180.554 207.345L176.792 198.566H178.367L180.506 203.822C180.739 204.392 180.956 204.977 181.157 205.587C181.27 205.122 181.423 204.568 181.632 203.918L183.328 198.566H184.856L181.945 207.345H180.554Z" fill="#263238"/>
<path d="M192.276 206.262C191.746 206.727 191.231 207.064 190.733 207.257C190.234 207.449 189.687 207.545 189.1 207.545C188.136 207.545 187.38 207.313 186.841 206.839C186.303 206.366 186.013 205.764 185.973 205.034C185.949 204.608 186.029 204.215 186.214 203.854C186.391 203.501 186.632 203.212 186.946 202.996C187.251 202.779 187.605 202.618 187.991 202.506C188.28 202.426 188.715 202.354 189.301 202.281C190.499 202.137 191.376 201.968 191.931 201.768C191.931 201.567 191.931 201.431 191.923 201.383C191.89 200.781 191.73 200.347 191.44 200.099C191.046 199.762 190.467 199.593 189.72 199.593C189.02 199.593 188.506 199.714 188.184 199.962C187.862 200.211 187.637 200.644 187.509 201.262L186.045 201.062C186.15 200.436 186.343 199.938 186.624 199.553C186.906 199.168 187.332 198.879 187.894 198.67C188.457 198.462 189.117 198.357 189.872 198.357C190.628 198.357 191.239 198.446 191.713 198.622C192.188 198.799 192.55 199.023 192.783 199.288C193.016 199.553 193.185 199.89 193.297 200.299C193.362 200.556 193.402 201.014 193.434 201.672L193.531 203.654C193.595 205.034 193.667 205.908 193.748 206.278C193.828 206.647 193.973 206.992 194.174 207.329H192.614C192.445 207.024 192.325 206.663 192.26 206.245L192.276 206.262ZM191.995 202.939C191.464 203.164 190.66 203.349 189.591 203.501C188.98 203.589 188.554 203.686 188.305 203.798C188.055 203.91 187.87 204.071 187.742 204.279C187.613 204.488 187.557 204.729 187.565 204.986C187.581 205.379 187.75 205.716 188.063 205.981C188.377 206.245 188.827 206.374 189.406 206.374C189.985 206.374 190.483 206.245 190.918 205.997C191.352 205.748 191.665 205.403 191.85 204.97C191.995 204.633 192.051 204.135 192.019 203.485L191.995 202.939Z" fill="#263238"/>
<path d="M195.525 196.945L195.444 195.236H196.932L197.012 196.945H195.525ZM196.023 207.345L195.605 198.566H197.093L197.511 207.345H196.023Z" fill="#263238"/>
<path d="M199.754 207.345L199.175 195.236H200.662L201.241 207.345H199.754Z" fill="#263238"/>
<path d="M209.233 206.262C208.702 206.727 208.188 207.064 207.689 207.257C207.191 207.449 206.644 207.545 206.057 207.545C205.092 207.545 204.336 207.313 203.798 206.839C203.259 206.366 202.97 205.764 202.929 205.034C202.905 204.608 202.986 204.215 203.171 203.854C203.348 203.501 203.589 203.212 203.902 202.996C204.208 202.779 204.562 202.618 204.948 202.506C205.237 202.426 205.671 202.354 206.258 202.281C207.456 202.137 208.332 201.968 208.887 201.768C208.887 201.567 208.887 201.431 208.879 201.383C208.847 200.781 208.686 200.347 208.397 200.099C208.003 199.762 207.424 199.593 206.676 199.593C205.977 199.593 205.462 199.714 205.14 199.962C204.819 200.211 204.594 200.644 204.465 201.262L203.002 201.062C203.106 200.436 203.299 199.938 203.581 199.553C203.862 199.168 204.288 198.879 204.851 198.67C205.414 198.462 206.073 198.357 206.829 198.357C207.585 198.357 208.196 198.446 208.67 198.622C209.144 198.799 209.506 199.023 209.739 199.288C209.973 199.553 210.141 199.89 210.254 200.299C210.318 200.556 210.358 201.014 210.391 201.672L210.487 203.654C210.551 205.034 210.624 205.908 210.712 206.278C210.793 206.647 210.937 206.992 211.138 207.329H209.579C209.41 207.024 209.289 206.663 209.225 206.245L209.233 206.262ZM208.951 202.939C208.421 203.164 207.617 203.349 206.547 203.501C205.936 203.589 205.51 203.686 205.261 203.798C205.012 203.91 204.827 204.071 204.698 204.279C204.57 204.488 204.513 204.729 204.529 204.986C204.546 205.379 204.714 205.716 205.028 205.981C205.341 206.245 205.792 206.374 206.371 206.374C206.949 206.374 207.448 206.245 207.882 205.997C208.316 205.748 208.63 205.403 208.815 204.97C208.959 204.633 209.016 204.135 208.984 203.485L208.959 202.939H208.951Z" fill="#263238"/>
<path d="M214.354 207.345H212.971L212.393 195.236H213.88L214.089 199.553C214.684 198.767 215.464 198.373 216.445 198.373C216.983 198.373 217.506 198.486 217.996 198.702C218.487 198.919 218.905 199.224 219.235 199.617C219.564 200.01 219.83 200.484 220.039 201.046C220.24 201.599 220.36 202.193 220.392 202.827C220.465 204.328 220.151 205.491 219.444 206.318C218.736 207.136 217.868 207.545 216.823 207.545C215.777 207.545 214.949 207.112 214.314 206.245L214.37 207.345H214.354ZM214.121 202.891C214.169 203.942 214.354 204.705 214.66 205.17C215.166 205.932 215.818 206.318 216.622 206.318C217.273 206.318 217.82 206.037 218.27 205.467C218.72 204.905 218.913 204.063 218.865 202.947C218.808 201.8 218.543 200.957 218.061 200.412C217.578 199.866 217.016 199.593 216.372 199.593C215.729 199.593 215.174 199.874 214.724 200.444C214.274 201.013 214.081 201.824 214.129 202.891H214.121Z" fill="#263238"/>
<path d="M222.378 207.345L221.799 195.236H223.287L223.866 207.345H222.378Z" fill="#263238"/>
<path d="M232.058 204.52L233.61 204.713C233.409 205.611 232.991 206.31 232.364 206.799C231.729 207.297 230.901 207.545 229.88 207.545C228.593 207.545 227.556 207.152 226.76 206.358C225.972 205.563 225.538 204.456 225.474 203.036C225.401 201.559 225.731 200.412 226.455 199.601C227.178 198.783 228.143 198.381 229.357 198.381C230.571 198.381 231.512 198.783 232.292 199.577C233.071 200.379 233.498 201.503 233.57 202.947C233.57 203.036 233.57 203.172 233.578 203.349H227.025C227.13 204.311 227.435 205.05 227.95 205.563C228.465 206.077 229.092 206.334 229.823 206.334C230.37 206.334 230.828 206.189 231.198 205.9C231.568 205.611 231.857 205.154 232.05 204.528L232.058 204.52ZM227.049 202.113H231.962C231.857 201.374 231.648 200.821 231.319 200.452C230.82 199.882 230.185 199.593 229.429 199.593C228.746 199.593 228.183 199.826 227.733 200.275C227.283 200.724 227.058 201.342 227.049 202.113Z" fill="#263238"/>
<path d="M235.925 212.256H220.826C220.529 212.256 220.288 212.015 220.288 211.718C220.288 211.421 220.529 211.181 220.826 211.181H235.925C236.223 211.181 236.464 211.421 236.464 211.718C236.464 212.015 236.223 212.256 235.925 212.256Z" fill="#FF9500"/>
<path d="M214.571 212.256H147.14C146.842 212.256 146.601 212.015 146.601 211.718C146.601 211.421 146.842 211.181 147.14 211.181H214.571C214.869 211.181 215.11 211.421 215.11 211.718C215.11 212.015 214.869 212.256 214.571 212.256Z" fill="#FF9500"/>
<path d="M172.281 131.787C172.12 128.296 170.134 125.527 167.835 125.608C165.535 125.688 163.807 128.593 163.96 132.083C164.12 135.574 166.106 138.343 168.406 138.262C170.705 138.182 172.434 135.277 172.281 131.787Z" fill="#FF9500"/>
<path d="M220.818 130.695C220.657 127.205 218.671 124.436 216.372 124.516C214.073 124.597 212.344 127.501 212.497 130.992C212.657 134.483 214.643 137.251 216.943 137.171C219.242 137.091 220.971 134.186 220.818 130.695Z" fill="#FF9500"/>
<path d="M184.397 146.11C197.124 141.577 206.957 146.905 207.415 147.154C207.914 147.434 208.091 148.052 207.809 148.55C207.528 149.039 206.901 149.216 206.402 148.943C206.29 148.879 194.833 142.716 181.149 149.753C180.642 150.01 180.015 149.818 179.75 149.32C179.485 148.815 179.677 148.197 180.184 147.94C181.615 147.202 183.022 146.6 184.389 146.11H184.397Z" fill="#FF9500"/>
<path d="M165.334 99.0146C165.68 99.0227 166.026 99.119 166.347 99.3035C167.336 99.8813 167.666 101.141 167.087 102.12C161.306 111.87 151.779 112.351 151.377 112.367C150.235 112.416 149.27 111.533 149.214 110.401C149.158 109.27 150.034 108.323 151.168 108.275C151.481 108.259 158.902 107.801 163.517 100.026C163.911 99.3677 164.619 99.0066 165.334 99.0227V99.0146Z" fill="#FF9500"/>
<path d="M213.904 97.835C214.563 97.7066 215.271 97.8992 215.777 98.4047C222.233 104.848 229.558 103.532 229.863 103.476C230.981 103.26 232.074 103.982 232.299 105.089C232.524 106.196 231.817 107.272 230.707 107.496C230.305 107.569 220.939 109.358 212.851 101.285C212.047 100.483 212.047 99.1831 212.851 98.3887C213.148 98.0918 213.518 97.9072 213.904 97.835Z" fill="#FF9500"/>
<path opacity="0.2" d="M258.662 120.295L252.793 120.849C250.687 121.049 248.765 119.653 248.307 117.591L240.162 81.1757C239.672 78.977 241.007 76.7863 243.193 76.2086L258.944 72.084L258.662 120.295Z" fill="black"/>
<path opacity="0.2" d="M168.052 90.4682C163.959 79.3142 159.867 61.4758 164.192 44.9614L122.328 86.7449C134.155 90.6929 153.017 92.4182 168.052 90.4763V90.4682Z" fill="black"/>
<path d="M164.185 86.7371C159.594 73.2078 161.467 54.8157 164.185 44.9536L122.32 86.7371C134.991 89.0401 149.15 88.679 164.185 86.7371Z" fill="white"/>
<path d="M141.471 89.048C134.485 89.048 128.093 88.5103 122.2 87.4431C121.934 87.3949 121.725 87.2104 121.645 86.9536C121.564 86.6968 121.637 86.424 121.822 86.2314L163.686 44.4479C163.919 44.2152 164.273 44.1751 164.554 44.3356C164.836 44.4961 164.972 44.8331 164.884 45.1461C162.351 54.3261 160.261 72.9188 164.868 86.5042C164.94 86.7048 164.908 86.9295 164.795 87.1141C164.683 87.2986 164.49 87.419 164.281 87.4431C156.016 88.5103 148.45 89.0399 141.471 89.0399V89.048ZM123.816 86.2715C134.935 88.1091 147.855 88.069 163.236 86.1431C159.449 74.1626 160.309 58.2982 162.858 47.3046L123.816 86.2715Z" fill="#263238"/>
<path d="M308.012 147.779C307.481 147.779 306.991 147.426 306.854 146.88L292.109 90.8052C291.94 90.1633 292.326 89.5133 292.969 89.3448C293.612 89.1762 294.264 89.5614 294.433 90.2034L309.178 146.278C309.347 146.92 308.961 147.57 308.318 147.739C308.213 147.763 308.117 147.779 308.012 147.779Z" fill="#263238"/>
<path d="M334.978 65.6684L334.2 65.8721L335.324 70.1488L336.102 69.9452L334.978 65.6684Z" fill="#FF9500"/>
<path d="M332.944 61.0987L329.849 49.3187C329.133 46.5904 326.657 44.6806 323.827 44.6806C323.296 44.6806 322.758 44.7528 322.243 44.8812L314.147 46.9997L313.946 46.2213L322.042 44.1028C322.621 43.9504 323.224 43.8701 323.827 43.8701C327.019 43.8701 329.809 46.0207 330.621 49.1021L333.716 60.882L332.936 61.0826L332.944 61.0987Z" fill="#FF9500"/>
<path d="M322.765 46.8502L246.108 66.9218C243.858 67.511 242.512 69.8097 243.102 72.056L252.803 108.963C253.394 111.21 255.697 112.553 257.948 111.964L334.604 91.892C336.854 91.3027 338.2 89.0041 337.61 86.7578L327.909 49.8504C327.318 47.6041 325.015 46.2609 322.765 46.8502Z" fill="#FF9500"/>
<path d="M318.939 89.8441L270.575 102.508C268.324 103.097 266.978 105.396 267.569 107.642L270.6 119.176C271.191 121.422 273.494 122.765 275.744 122.176L324.109 109.513C326.359 108.923 327.705 106.625 327.115 104.378L324.083 92.8443C323.492 90.598 321.189 89.2548 318.939 89.8441Z" fill="#FF9500"/>
<path d="M275.088 106.718L281.705 105L282.147 106.702L278.007 107.777L278.337 109.045L282.18 108.05L282.606 109.679L278.763 110.674L279.173 112.247L283.434 111.139L283.908 112.945L277.171 114.694L275.096 106.718H275.088Z" fill="white"/>
<path d="M285.267 112.584L283.193 104.607L287.309 103.54C288.073 103.34 288.668 103.259 289.11 103.283C289.544 103.308 289.938 103.468 290.276 103.757C290.614 104.046 290.847 104.447 290.984 104.953C291.096 105.394 291.104 105.803 291 106.172C290.895 106.541 290.702 106.87 290.421 107.159C290.244 107.344 289.979 107.52 289.633 107.697C289.954 107.721 290.196 107.761 290.348 107.825C290.453 107.865 290.622 107.97 290.855 108.138C291.08 108.307 291.241 108.443 291.329 108.547L293.122 110.546L290.332 111.268L288.379 109.173C288.129 108.901 287.928 108.732 287.768 108.676C287.559 108.596 287.341 108.588 287.116 108.652L286.899 108.708L287.744 111.942L285.267 112.584ZM286.513 107.199L287.559 106.927C287.671 106.894 287.88 106.806 288.186 106.646C288.338 106.565 288.451 106.453 288.523 106.293C288.596 106.132 288.604 105.964 288.556 105.787C288.491 105.53 288.355 105.354 288.154 105.257C287.953 105.161 287.631 105.177 287.181 105.29L286.095 105.57L286.521 107.191L286.513 107.199Z" fill="white"/>
<path d="M293.942 110.337L291.868 102.368L295.984 101.301C296.748 101.1 297.351 101.02 297.785 101.044C298.219 101.068 298.613 101.229 298.951 101.518C299.289 101.807 299.522 102.208 299.658 102.713C299.771 103.155 299.779 103.564 299.675 103.933C299.57 104.302 299.377 104.631 299.096 104.912C298.919 105.097 298.653 105.273 298.308 105.45C298.629 105.474 298.871 105.514 299.023 105.578C299.128 105.618 299.297 105.722 299.53 105.891C299.755 106.059 299.916 106.196 300.004 106.3L301.797 108.298L299.007 109.021L297.053 106.926C296.804 106.653 296.603 106.485 296.442 106.429C296.233 106.348 296.016 106.34 295.791 106.397L295.574 106.453L296.418 109.687L293.942 110.329V110.337ZM295.188 104.952L296.233 104.679C296.346 104.647 296.555 104.559 296.861 104.398C297.013 104.326 297.126 104.206 297.198 104.045C297.271 103.885 297.279 103.716 297.23 103.54C297.166 103.283 297.029 103.106 296.828 103.01C296.627 102.914 296.306 102.93 295.856 103.042L294.77 103.323L295.196 104.944L295.188 104.952Z" fill="white"/>
<path d="M301.057 104.238C300.72 102.938 300.816 101.831 301.355 100.916C301.894 100.001 302.81 99.3751 304.104 99.0381C305.431 98.693 306.549 98.7813 307.457 99.3109C308.366 99.8325 308.985 100.739 309.314 102.023C309.556 102.954 309.596 103.765 309.443 104.439C309.282 105.121 308.953 105.698 308.446 106.188C307.94 106.677 307.24 107.03 306.356 107.263C305.455 107.496 304.675 107.544 304.008 107.416C303.341 107.287 302.746 106.958 302.215 106.429C301.684 105.907 301.299 105.177 301.057 104.246V104.238ZM303.526 103.612C303.735 104.414 304.032 104.96 304.426 105.233C304.82 105.506 305.27 105.578 305.785 105.442C306.315 105.305 306.677 105.024 306.878 104.607C307.079 104.19 307.063 103.532 306.83 102.641C306.637 101.887 306.34 101.381 305.946 101.116C305.552 100.852 305.093 100.779 304.579 100.916C304.08 101.044 303.727 101.325 303.518 101.758C303.309 102.184 303.309 102.81 303.518 103.62L303.526 103.612Z" fill="white"/>
<path d="M311.734 105.715L309.66 97.7383L313.777 96.6711C314.54 96.4705 315.135 96.3902 315.578 96.4143C316.012 96.4384 316.406 96.5989 316.743 96.8877C317.081 97.1766 317.314 97.5778 317.451 98.0834C317.563 98.5247 317.572 98.934 317.467 99.3031C317.362 99.6722 317.17 100.001 316.888 100.29C316.711 100.475 316.446 100.651 316.1 100.828C316.422 100.852 316.663 100.892 316.816 100.956C316.92 100.996 317.089 101.101 317.322 101.269C317.547 101.438 317.708 101.574 317.797 101.678L319.59 103.676L316.8 104.399L314.846 102.304C314.597 102.031 314.396 101.863 314.243 101.807C314.034 101.727 313.817 101.718 313.592 101.775L313.375 101.831L314.219 105.065L311.743 105.707L311.734 105.715ZM312.981 100.33L314.018 100.057C314.13 100.025 314.339 99.937 314.645 99.7765C314.798 99.6963 314.91 99.584 314.983 99.4235C315.047 99.263 315.063 99.0945 315.015 98.9179C314.95 98.6611 314.814 98.4846 314.613 98.3883C314.412 98.292 314.09 98.3081 313.64 98.4204L312.555 98.7013L312.981 100.322V100.33Z" fill="white"/>
<path d="M256.267 74.8529L272.909 70.4956L274.381 76.0806L263.109 79.0336L263.503 82.9737C264.186 82.4039 264.885 81.9225 265.601 81.5453C266.317 81.1601 267.048 80.8713 267.796 80.6787C270.321 80.0207 272.572 80.2453 274.542 81.3527C276.511 82.4601 277.806 84.1773 278.409 86.4884C278.835 88.1174 278.843 89.7864 278.425 91.4957C278.007 93.2049 277.163 94.6493 275.884 95.8289C274.606 97.0085 272.805 97.8992 270.489 98.5091C268.825 98.9424 267.362 99.159 266.091 99.159C264.821 99.159 263.688 98.9504 262.691 98.5412C261.694 98.1319 260.833 97.6023 260.11 96.9523C259.386 96.2943 258.695 95.4277 258.043 94.3363L264.934 91.7043C265.4 92.7956 266.035 93.5499 266.815 93.9752C267.603 94.4005 268.431 94.4968 269.299 94.2721C270.272 94.0154 270.98 93.4376 271.43 92.5308C271.88 91.6241 271.904 90.4364 271.518 88.976C271.125 87.4754 270.513 86.4643 269.685 85.9267C268.857 85.389 267.917 85.2687 266.847 85.5495C266.172 85.7261 265.561 86.0631 265.014 86.5606C264.604 86.9217 264.202 87.4914 263.808 88.2698L257.609 88.976L256.275 74.8609L256.267 74.8529Z" fill="white"/>
<path d="M280.218 81.9303C278.955 77.1397 278.939 73.5688 280.169 71.2016C281.392 68.8344 283.771 67.1893 287.309 66.2665C289.005 65.8252 290.453 65.6647 291.659 65.8011C292.857 65.9375 293.894 66.2425 294.754 66.732C295.622 67.2214 296.346 67.7832 296.933 68.4171C297.52 69.051 298.067 69.8294 298.565 70.7522C299.53 72.5096 300.278 74.4034 300.816 76.4416C302.014 81.0075 302.119 84.5543 301.13 87.082C300.141 89.6097 297.745 91.3671 293.966 92.3541C291.844 92.9078 290.043 93.0201 288.555 92.6911C287.068 92.3541 285.733 91.6479 284.559 90.5646C283.707 89.7943 282.903 88.6548 282.139 87.1302C281.375 85.6135 280.74 83.8803 280.226 81.9303H280.218ZM287.172 80.1248C288.017 83.3346 288.877 85.445 289.753 86.4722C290.63 87.4993 291.61 87.8684 292.688 87.5876C293.395 87.403 293.95 86.9938 294.344 86.3598C294.738 85.7259 294.915 84.8352 294.875 83.6957C294.834 82.5562 294.521 80.847 293.918 78.5681C293.042 75.2218 292.165 73.0552 291.297 72.0522C290.429 71.0491 289.424 70.696 288.29 70.9929C287.132 71.2979 286.449 72.1003 286.24 73.4083C286.031 74.7163 286.344 76.9551 287.18 80.1328L287.172 80.1248Z" fill="white"/>
<path d="M304.96 74.1769C303.698 69.3863 303.682 65.8154 304.912 63.4482C306.134 61.0809 308.514 59.4359 312.051 58.5131C313.748 58.0718 315.195 57.9113 316.401 58.0477C317.599 58.1841 318.636 58.489 319.496 58.9785C320.365 59.468 321.088 60.0297 321.675 60.6637C322.262 61.2976 322.809 62.076 323.307 62.9988C324.272 64.7562 325.02 66.6499 325.558 68.6881C326.756 73.2541 326.861 76.8009 325.872 79.3286C324.883 81.8563 322.487 83.6137 318.708 84.6007C316.586 85.1544 314.785 85.2667 313.297 84.9377C311.81 84.6007 310.475 83.8945 309.301 82.8112C308.449 82.0409 307.645 80.9014 306.881 79.3768C306.118 77.8601 305.483 76.1268 304.968 74.1769H304.96ZM311.914 72.3714C312.759 75.5812 313.619 77.6916 314.495 78.7187C315.372 79.7459 316.353 80.115 317.43 79.8341C318.137 79.6496 318.692 79.2403 319.086 78.6064C319.48 77.9725 319.657 77.0818 319.617 75.9423C319.577 74.8028 319.263 73.0936 318.66 70.8146C317.784 67.4684 316.907 65.3018 316.039 64.2988C315.171 63.2957 314.166 62.9426 313.032 63.2395C311.874 63.5445 311.191 64.3469 310.982 65.6549C310.773 66.9629 311.086 69.2017 311.923 72.3794L311.914 72.3714Z" fill="white"/>
</g>
<defs>
<clipPath id="clip0_105_7732">
<rect width="402" height="299" fill="white"/>
</clipPath>
</defs>
</svg>
