<svg xmlns="http://www.w3.org/2000/svg">
    <symbol id="icon-location" viewBox="0 0 30 30" fill="currentColor">

<path fill-rule="evenodd" clip-rule="evenodd" d="M14.9986 13.3058C13.5236 13.3058 12.3237 12.1058 12.3237 10.6308C12.3237 9.15576 13.5236 7.95576 14.9986 7.95576C16.4736 7.95576 17.6736 9.15576 17.6736 10.6308C17.6736 12.1058 16.4736 13.3058 14.9986 13.3058ZM14.9986 2.96826C10.7362 2.96826 7.27368 6.43076 7.27368 10.6933C7.27368 15.9808 13.3111 21.1933 14.9986 21.1933C16.6736 21.1933 22.7111 15.9808 22.7111 10.6933C22.7111 6.43076 19.2486 2.96826 14.9986 2.96826Z" fill="#FB8901"/>
<path fill-rule="evenodd" clip-rule="evenodd" d="M23.5154 18.4948C23.0641 18.2398 22.4916 18.4023 22.2391 18.8535C21.9854 19.3048 22.1454 19.876 22.5979 20.1298C23.5666 20.6735 24.1004 21.281 24.1004 21.8423C24.1004 22.596 23.1591 23.2373 22.5791 23.5635C22.1979 23.7885 21.7716 23.986 21.2729 24.1685C17.8279 25.4448 12.1816 25.4473 8.7241 24.166C8.26285 23.9985 7.8166 23.7923 7.39535 23.5523C6.83285 23.2385 5.8916 22.5973 5.8916 21.8423C5.8916 21.0848 6.83285 20.4448 7.39535 20.1298C7.8466 19.876 8.0066 19.3048 7.7541 18.8535C7.50035 18.4023 6.93035 18.2423 6.4766 18.4948C4.4441 19.6348 4.0166 20.9435 4.0166 21.8423C4.0166 22.7385 4.4441 24.0473 6.47285 25.186C6.9816 25.4748 7.5241 25.7248 8.07785 25.926C10.0041 26.6398 12.4629 27.0335 15.0004 27.0335C17.5404 27.0335 19.9991 26.6398 21.9204 25.9273C22.5241 25.7085 23.0516 25.4623 23.5154 25.1873C25.5479 24.046 25.9754 22.7385 25.9754 21.8423C25.9754 20.9448 25.5479 19.636 23.5154 18.4948Z" fill="#FB8901"/>


    </symbol>

    <symbol id="icon-phone" viewBox="0 0 30 30" fill="currentColor">
<path fill-rule="evenodd" clip-rule="evenodd" d="M24.7526 18.6371C24.4514 18.3509 24.1264 18.0421 23.7839 17.7009C22.1839 16.1021 20.8026 16.6434 19.6939 17.0796C18.3664 17.5996 17.1126 18.0921 14.8239 15.8009C12.5364 13.5171 13.0264 12.2622 13.5464 10.9334C13.9801 9.82094 14.5201 8.43719 12.9226 6.83969C12.5714 6.48719 12.2538 6.15469 11.9638 5.84844C10.7913 4.61594 9.94384 3.72469 8.75134 3.71094H8.72134C7.69634 3.71094 6.62134 4.36594 5.02384 5.96344C5.00759 5.97969 4.92634 6.06094 4.91259 6.07844C4.55509 6.42719 3.60509 7.35719 3.59384 9.17094C3.57759 12.0034 5.86134 15.7309 10.3801 20.2471C14.8814 24.7484 18.5964 27.0296 21.4226 27.0296C21.4326 27.0296 21.4426 27.0284 21.4526 27.0284C23.2664 27.0184 24.1951 26.0671 24.5451 25.7096L24.6614 25.5971C26.2726 23.9871 26.9239 22.9071 26.9114 21.8721C26.8951 20.6734 25.9964 19.8184 24.7526 18.6371Z" fill="#FB8901"/>
<path fill-rule="evenodd" clip-rule="evenodd" d="M17.7952 7.39375C18.3127 7.39375 18.7327 6.97375 18.7327 6.45625V3.90625C18.7327 3.38875 18.3127 2.96875 17.7952 2.96875C17.2777 2.96875 16.8577 3.38875 16.8577 3.90625V6.45625C16.8577 6.97375 17.2777 7.39375 17.7952 7.39375Z" fill="#FB8901"/>
<path fill-rule="evenodd" clip-rule="evenodd" d="M22.3558 9.20541C22.5958 9.20541 22.8346 9.11416 23.0183 8.93166L24.8221 7.13166C25.1883 6.76541 25.1896 6.17166 24.8233 5.80416C24.4583 5.43791 23.8646 5.43916 23.4983 5.80291L21.6933 7.60416C21.3271 7.97041 21.3271 8.56291 21.6921 8.93041C21.8758 9.11416 22.1158 9.20541 22.3558 9.20541Z" fill="#FB8901"/>
<path fill-rule="evenodd" clip-rule="evenodd" d="M26.7199 11.8945H24.1699C23.6524 11.8945 23.2324 12.3145 23.2324 12.832C23.2324 13.3495 23.6524 13.7695 24.1699 13.7695H26.7199C27.2374 13.7695 27.6574 13.3495 27.6574 12.832C27.6574 12.3145 27.2374 11.8945 26.7199 11.8945Z" fill="#FB8901"/>



    </symbol>

    <symbol id="icon-telephone" viewBox="0 0 30 30" fill="currentColor">

<path fill-rule="evenodd" clip-rule="evenodd" d="M11.5615 3.125H18.4365C21.2627 3.125 23.5615 5.42375 23.5615 8.24875V21.75C23.5615 24.5762 21.2627 26.875 18.4365 26.875H11.5615C8.73527 26.875 6.43652 24.5762 6.43652 21.75V8.24875C6.43652 5.42375 8.73527 3.125 11.5615 3.125ZM13.249 9.3125H16.749C17.2665 9.3125 17.6865 8.8925 17.6865 8.375C17.6865 7.8575 17.2665 7.4375 16.749 7.4375H13.249C12.7315 7.4375 12.3115 7.8575 12.3115 8.375C12.3115 8.8925 12.7315 9.3125 13.249 9.3125ZM13.8115 21.5C13.8115 22.1663 14.3327 22.6875 14.999 22.6875C15.5602 22.6875 16.1865 22.18 16.1865 21.5C16.1865 20.82 15.5602 20.3125 14.999 20.3125C14.439 20.3125 13.8115 20.82 13.8115 21.5Z" fill="#FB8901"/>


    </symbol>
</svg>