<svg width="52" height="54" viewBox="0 0 52 54" fill="none" xmlns="http://www.w3.org/2000/svg">
<path fill-rule="evenodd" clip-rule="evenodd" d="M33.679 30.8639H23.8575C24.0352 32.2809 25.008 33.5553 26.4878 34.1234C28.1085 34.7325 30.208 34.4668 31.9565 33.4278C32.7235 32.9699 33.7223 33.2162 34.1838 33.9851C34.6453 34.7541 34.3962 35.7477 33.6248 36.2078C31.9998 37.1754 30.1387 37.6766 28.349 37.6766C27.296 37.6766 26.269 37.5038 25.3287 37.1495C22.3668 36.0112 20.4428 33.2334 20.5338 30.231C20.5945 27.9566 21.7948 25.7706 23.7405 24.3818C24.4685 23.8612 25.4868 24.0318 26.0068 24.7576C26.529 25.4855 26.36 26.4986 25.6298 27.0191C25.3785 27.1984 25.1575 27.4058 24.9517 27.6239H32.0432C31.7528 24.8656 30.0043 22.1785 26.7933 21.7789C25.229 21.5953 23.5737 22.0813 22.2498 23.1246C20.9368 24.1593 20.0788 25.6367 19.899 27.1833C19.795 28.0689 18.9825 28.7061 18.0985 28.6046C17.2058 28.5009 16.5667 27.6974 16.6707 26.8074C16.9502 24.4142 18.2502 22.144 20.237 20.5801C22.2368 19.012 24.7762 18.2949 27.1877 18.5627C32.288 19.1977 35.772 23.8461 35.2975 29.38C35.226 30.2202 34.524 30.8639 33.679 30.8639ZM35.1372 7.5791H16.8613C10.0168 7.5791 5.41699 12.3786 5.41699 19.5239V36.6722C5.41699 43.8174 10.0168 48.6191 16.8613 48.6191H35.135C41.9838 48.6191 46.5837 43.8174 46.5837 36.6722V19.5239C46.5837 12.3786 41.9838 7.5791 35.1372 7.5791Z" fill="#FF9500"/>
</svg>
