<svg width="30" height="30" viewBox="0 0 30 30" fill="none" xmlns="http://www.w3.org/2000/svg">
<path fill-rule="evenodd" clip-rule="evenodd" d="M24.7526 18.6371C24.4514 18.3509 24.1264 18.0421 23.7839 17.7009C22.1839 16.1021 20.8026 16.6434 19.6939 17.0796C18.3664 17.5996 17.1126 18.0921 14.8239 15.8009C12.5364 13.5171 13.0264 12.2622 13.5464 10.9334C13.9801 9.82094 14.5201 8.43719 12.9226 6.83969C12.5714 6.48719 12.2538 6.15469 11.9638 5.84844C10.7913 4.61594 9.94384 3.72469 8.75134 3.71094H8.72134C7.69634 3.71094 6.62134 4.36594 5.02384 5.96344C5.00759 5.97969 4.92634 6.06094 4.91259 6.07844C4.55509 6.42719 3.60509 7.35719 3.59384 9.17094C3.57759 12.0034 5.86134 15.7309 10.3801 20.2471C14.8814 24.7484 18.5964 27.0296 21.4226 27.0296C21.4326 27.0296 21.4426 27.0284 21.4526 27.0284C23.2664 27.0184 24.1951 26.0671 24.5451 25.7096L24.6614 25.5971C26.2726 23.9871 26.9239 22.9071 26.9114 21.8721C26.8951 20.6734 25.9964 19.8184 24.7526 18.6371Z" fill="#FB8901"/>
<path fill-rule="evenodd" clip-rule="evenodd" d="M17.7954 7.39375C18.3129 7.39375 18.7329 6.97375 18.7329 6.45625V3.90625C18.7329 3.38875 18.3129 2.96875 17.7954 2.96875C17.2779 2.96875 16.8579 3.38875 16.8579 3.90625V6.45625C16.8579 6.97375 17.2779 7.39375 17.7954 7.39375Z" fill="#FB8901"/>
<path fill-rule="evenodd" clip-rule="evenodd" d="M22.3558 9.20541C22.5958 9.20541 22.8346 9.11416 23.0183 8.93166L24.8221 7.13166C25.1883 6.76541 25.1896 6.17166 24.8233 5.80416C24.4583 5.43791 23.8646 5.43916 23.4983 5.80291L21.6933 7.60416C21.3271 7.97041 21.3271 8.56291 21.6921 8.93041C21.8758 9.11416 22.1158 9.20541 22.3558 9.20541Z" fill="#FB8901"/>
<path fill-rule="evenodd" clip-rule="evenodd" d="M26.7199 11.8945H24.1699C23.6524 11.8945 23.2324 12.3145 23.2324 12.832C23.2324 13.3495 23.6524 13.7695 24.1699 13.7695H26.7199C27.2374 13.7695 27.6574 13.3495 27.6574 12.832C27.6574 12.3145 27.2374 11.8945 26.7199 11.8945Z" fill="#FB8901"/>
</svg>
