<svg width="48" height="48" viewBox="0 0 48 48" fill="none" xmlns="http://www.w3.org/2000/svg">
<g clip-path="url(#clip0_56_22454)">
<rect x="48" y="48.0001" width="48" height="48" rx="12" transform="rotate(180 48 48.0001)" fill="#F4F4F5"/>
<path d="M27.8398 24.0001C27.8398 24.1212 27.8148 24.2423 27.7648 24.3634C27.7148 24.4845 27.6498 24.5753 27.5698 24.6359L23.0998 29.1769C22.9198 29.3585 22.6898 29.4493 22.4098 29.4493C22.1298 29.4493 21.8898 29.3585 21.6898 29.1769C21.5098 28.9751 21.4198 28.7329 21.4198 28.4503C21.4198 28.1678 21.5098 27.9357 21.6898 27.754L25.5298 23.879L21.6898 20.004C21.5098 19.8022 21.4198 19.56 21.4198 19.2775C21.4198 18.9949 21.5098 18.7628 21.6898 18.5812C21.8898 18.3794 22.1298 18.2784 22.4098 18.2784C22.6898 18.2784 22.9198 18.3794 23.0998 18.5812L27.5698 23.0919C27.6498 23.2937 27.7148 23.4653 27.7648 23.6066C27.8148 23.7478 27.8398 23.879 27.8398 24.0001Z" fill="#3F3F46"/>
</g>
<defs>
<clipPath id="clip0_56_22454">
<rect x="48" y="48.0001" width="48" height="48" rx="12" transform="rotate(180 48 48.0001)" fill="white"/>
</clipPath>
</defs>
</svg>
