<svg width="48" height="48" viewBox="0 0 48 48" fill="none" xmlns="http://www.w3.org/2000/svg">
<g clip-path="url(#clip0_56_22452)">
<rect width="48" height="48" rx="12" fill="#F4F4F5"/>
<path d="M20.1602 24C20.1602 23.8789 20.1852 23.7578 20.2352 23.6367C20.2852 23.5156 20.3502 23.4248 20.4302 23.3643L24.9002 18.8232C25.0802 18.6416 25.3102 18.5508 25.5902 18.5508C25.8702 18.5508 26.1102 18.6416 26.3102 18.8232C26.4902 19.0251 26.5802 19.2673 26.5802 19.5498C26.5802 19.8324 26.4902 20.0645 26.3102 20.2461L22.4702 24.1211L26.3102 27.9961C26.4902 28.1979 26.5802 28.4401 26.5802 28.7227C26.5802 29.0052 26.4902 29.2373 26.3102 29.4189C26.1102 29.6208 25.8702 29.7217 25.5902 29.7217C25.3102 29.7217 25.0802 29.6208 24.9002 29.4189L20.4302 24.9082C20.3502 24.7064 20.2852 24.5348 20.2352 24.3936C20.1852 24.2523 20.1602 24.1211 20.1602 24Z" fill="#3F3F46"/>
</g>
<defs>
<clipPath id="clip0_56_22452">
<rect width="48" height="48" rx="12" fill="white"/>
</clipPath>
</defs>
</svg>
