<svg width="52" height="54" viewBox="0 0 52 54" fill="none" xmlns="http://www.w3.org/2000/svg">
<path fill-rule="evenodd" clip-rule="evenodd" d="M5.50366 38.9578C5.4558 38.9578 5.41699 38.9964 5.41699 39.0442C5.41699 44.8438 9.15666 48.7426 14.7228 48.7426H37.2735C42.8418 48.7426 46.5836 44.8438 46.5836 39.0442C46.5836 38.9964 46.5448 38.9578 46.497 38.9578H5.50366Z" fill="#FF9500"/>
<path fill-rule="evenodd" clip-rule="evenodd" d="M5.41602 35.2866C5.41602 35.5253 5.61002 35.7186 5.84935 35.7186H46.1494C46.3886 35.7186 46.5827 35.5253 46.5827 35.2866V28.9125C46.5827 28.674 46.3886 28.4805 46.1494 28.4805H5.84935C5.61002 28.4805 5.41602 28.674 5.41602 28.9125V35.2866Z" fill="#FF9500"/>
<path fill-rule="evenodd" clip-rule="evenodd" d="M20.3471 15.4352C20.3471 13.6835 21.775 12.26 23.53 12.26H28.4721C30.2271 12.26 31.655 13.6835 31.655 15.4352C31.655 15.6022 31.5191 15.7376 31.3516 15.7376H20.6505C20.4829 15.7376 20.3471 15.6022 20.3471 15.4352ZM46.1261 25.2416C46.3679 25.2416 46.5638 25.0435 46.5521 24.8026C46.288 19.3568 42.6337 15.7376 37.2753 15.7376H35.2083C35.0408 15.7376 34.905 15.6022 34.905 15.4352C34.905 11.8971 32.019 9.02002 28.4721 9.02002H23.53C19.9831 9.02002 17.0971 11.8971 17.0971 15.4352C17.0971 15.6022 16.9613 15.7376 16.7938 15.7376H14.7225C9.36406 15.7376 5.71186 19.3567 5.44582 24.8024C5.43405 25.0433 5.62987 25.2416 5.87176 25.2416H46.1261Z" fill="#FF9500"/>
</svg>
