<svg width="52" height="52" viewBox="0 0 52 52" fill="none" xmlns="http://www.w3.org/2000/svg">
<path fill-rule="evenodd" clip-rule="evenodd" d="M33.9322 40.5698H18.0743C17.1773 40.5698 16.4493 39.8418 16.4493 38.9448C16.4493 38.0478 17.1773 37.3198 18.0743 37.3198H33.9322C34.8292 37.3198 35.5572 38.0478 35.5572 38.9448C35.5572 39.8418 34.8292 40.5698 33.9322 40.5698ZM20.345 30.0441H31.6615C32.5585 30.0441 33.2865 30.7721 33.2865 31.6691C33.2865 32.5661 32.5585 33.2941 31.6615 33.2941H20.345C19.4458 33.2941 18.72 32.5661 18.72 31.6691C18.72 30.7721 19.4458 30.0441 20.345 30.0441ZM34.6075 11.8177C34.4892 11.8144 34.3798 11.8805 34.336 11.9905C34.2851 12.1185 34.3046 12.27 34.3954 12.3736C35.6211 13.7696 36.3242 15.5863 36.3242 17.4709C36.3242 20.6688 33.7588 22.9604 30.7259 23.1481C30.4991 23.1621 30.3123 23.337 30.2751 23.5612C29.9349 25.6146 28.1502 27.1798 26 27.1798C23.8498 27.1798 22.0651 25.6146 21.725 23.5612C21.6877 23.337 21.5009 23.1621 21.274 23.1481C18.2419 22.9602 15.678 20.6671 15.678 17.4709C15.678 15.586 16.3812 13.7671 17.6073 12.3708C17.6978 12.2676 17.7173 12.1175 17.6664 11.99C17.6223 11.8797 17.5125 11.8123 17.3937 11.8155C11.3507 11.9823 7.3125 16.3111 7.3125 22.7121V35.9396C7.3125 42.4678 11.505 46.8553 17.7472 46.8553H34.2463C40.4907 46.8553 44.6875 42.4678 44.6875 35.9396V22.7121C44.6875 16.313 40.6491 11.9841 34.6075 11.8177Z" fill="#FF9500"/>
<path fill-rule="evenodd" clip-rule="evenodd" d="M22.2585 16.1305C24.0005 15.1577 24.3299 14.4968 24.436 14.2845C24.9105 13.342 24.839 11.7473 24.4815 10.9175C24.4035 10.7247 24.1609 10.144 22.9822 9.27951C22.8349 9.13651 22.785 8.90901 22.8587 8.72484C22.9389 8.52551 23.1274 8.39551 23.3397 8.39551H28.6589C28.869 8.39551 29.0619 8.52551 29.1377 8.71834L29.1399 8.72484C29.2157 8.91334 29.1659 9.13651 29.1745 9.14517C27.8442 10.1418 27.5994 10.7182 27.5192 10.9088C27.1617 11.7495 27.0902 13.3398 27.5625 14.2802C27.673 14.5012 28.0024 15.1598 29.74 16.1305C30.065 16.4013 30.2774 16.7848 30.3424 17.2008H21.6584C21.7234 16.787 21.9379 16.4013 22.2585 16.1305ZM21.3724 20.4508H24.3754V22.845C24.3754 23.742 25.1012 24.47 26.0004 24.47C26.8974 24.47 27.6254 23.742 27.6254 22.845V20.4508H30.6284C32.275 20.4508 33.614 19.114 33.614 17.4695C33.614 15.9052 32.8665 14.4123 31.6164 13.472C31.5557 13.4265 31.4907 13.3832 31.4214 13.3463C31.0877 13.1643 30.7042 12.9173 30.4854 12.7505C30.4767 12.5988 30.481 12.406 30.494 12.2782C30.6457 12.1308 30.9317 11.8882 31.2784 11.6152C32.3812 10.5492 32.7257 8.94367 32.158 7.52017C31.5882 6.07717 30.2145 5.14551 28.6589 5.14551H23.3397C21.7905 5.14551 20.4169 6.07717 19.8406 7.52451C19.2772 8.94801 19.6239 10.5535 20.8762 11.7473C21.0994 11.9142 21.3551 12.1308 21.5002 12.2717C21.5197 12.4212 21.5284 12.6205 21.5306 12.7397C21.3139 12.9043 20.9196 13.1578 20.5772 13.3463C20.5079 13.3832 20.4429 13.4265 20.3801 13.4742C19.1321 14.4145 18.3867 15.9073 18.3867 17.4695C18.3867 19.114 19.7257 20.4508 21.3724 20.4508Z" fill="#FF9500"/>
</svg>
