<svg width="52" height="52" viewBox="0 0 52 52" fill="none" xmlns="http://www.w3.org/2000/svg">
<path fill-rule="evenodd" clip-rule="evenodd" d="M33.1705 27.3285H18.825C17.928 27.3285 17.2 26.6005 17.2 25.7035C17.2 24.8065 17.928 24.0785 18.825 24.0785H33.1705C34.0675 24.0785 34.7955 24.8065 34.7955 25.7035C34.7955 26.6005 34.0675 27.3285 33.1705 27.3285ZM33.1705 36.1165H18.825C17.928 36.1165 17.2 35.3885 17.2 34.4915C17.2 33.5945 17.928 32.8665 18.825 32.8665H33.1705C34.0675 32.8665 34.7955 33.5945 34.7955 34.4915C34.7955 35.3885 34.0675 36.1165 33.1705 36.1165ZM18.8271 15.31H24.3001C25.1971 15.31 25.9251 16.038 25.9251 16.935C25.9251 17.832 25.1971 18.56 24.3001 18.56H18.8271C17.9301 18.56 17.2021 17.832 17.2021 16.935C17.2021 16.038 17.9301 15.31 18.8271 15.31ZM34.7456 5.41699H17.252C11.7335 5.41699 7.24414 9.90633 7.24414 15.427V36.5737C7.24414 42.0922 11.7335 46.5837 17.252 46.5837H34.7456C40.2641 46.5837 44.7556 42.0922 44.7556 36.5737V15.427C44.7556 9.90633 40.2641 5.41699 34.7456 5.41699Z" fill="#FF9500"/>
</svg>
