<svg width="24" height="24" viewBox="0 0 24 24" fill="none" xmlns="http://www.w3.org/2000/svg">
<path fill-rule="evenodd" clip-rule="evenodd" d="M16.267 14.0841C16.267 14.4981 15.931 14.8341 15.517 14.8341C15.103 14.8341 14.767 14.4981 14.767 14.0841V9.91612C14.767 9.50212 15.103 9.16612 15.517 9.16612C15.931 9.16612 16.267 9.50212 16.267 9.91612V14.0841ZM12.579 13.3391C12.316 13.6611 11.841 13.7041 11.523 13.4411L10.095 12.2631V14.5001H11.029C11.443 14.5001 11.779 14.8361 11.779 15.2501C11.779 15.6641 11.443 16.0001 11.029 16.0001H7.663C7.248 16.0001 6.913 15.6641 6.913 15.2501C6.913 14.8361 7.248 14.5001 7.663 14.5001H8.595V12.2631L7.168 13.4411C7.029 13.5561 6.86 13.6121 6.691 13.6121C6.475 13.6121 6.261 13.5201 6.113 13.3401C5.849 13.0201 5.894 12.5471 6.213 12.2841L8.595 10.3181V8.75012C8.595 8.33612 8.931 8.00012 9.345 8.00012C9.759 8.00012 10.095 8.33612 10.095 8.75012V10.3181L12.478 12.2841C12.797 12.5471 12.842 13.0201 12.579 13.3391ZM21.044 13.6631C20.954 13.5901 20.814 13.5161 20.291 13.2411C19.821 12.9931 19.539 12.5281 19.539 11.9981C19.539 11.4691 19.82 11.0061 20.346 10.7301C20.838 10.4721 20.957 10.4091 21.047 10.3371C21.329 10.1091 21.405 9.98312 21.477 9.62512C21.495 9.53912 21.5 9.39613 21.5 9.10913C21.5 7.97913 21.5 7.41112 21.353 6.90013C20.994 5.66413 20.04 4.71113 18.803 4.35113C18.292 4.20312 17.725 4.20312 16.594 4.20312H16.267V7.30312C16.267 7.71712 15.931 8.05312 15.517 8.05312C15.103 8.05312 14.767 7.71712 14.767 7.30312V4.20312H7.408C6.279 4.20312 5.712 4.20312 5.203 4.35113C3.963 4.71012 3.009 5.66513 2.65 6.90613C2.502 7.41813 2.503 7.98312 2.504 9.11212C2.509 10.3271 2.506 11.5301 2.503 12.7311L2.5 14.8971C2.5 16.0221 2.5 16.5871 2.647 17.0961C3.005 18.3371 3.96 19.2921 5.203 19.6511C5.71 19.7981 6.276 19.7981 7.402 19.7981H14.767V16.6971C14.767 16.2831 15.103 15.9471 15.517 15.9471C15.931 15.9471 16.267 16.2831 16.267 16.6971V19.7981H16.594C17.724 19.7981 18.291 19.7981 18.803 19.6491C20.04 19.2901 20.994 18.3371 21.352 17.1011C21.501 16.5871 21.5 16.0211 21.499 14.8921C21.499 14.6091 21.494 14.4681 21.477 14.3751C21.405 14.0201 21.329 13.8941 21.044 13.6631Z" fill="#787878"/>
<path fill-rule="evenodd" clip-rule="evenodd" d="M16.267 14.0841C16.267 14.4981 15.931 14.8341 15.517 14.8341C15.103 14.8341 14.767 14.4981 14.767 14.0841V9.91612C14.767 9.50212 15.103 9.16612 15.517 9.16612C15.931 9.16612 16.267 9.50212 16.267 9.91612V14.0841ZM12.579 13.3391C12.316 13.6611 11.841 13.7041 11.523 13.4411L10.095 12.2631V14.5001H11.029C11.443 14.5001 11.779 14.8361 11.779 15.2501C11.779 15.6641 11.443 16.0001 11.029 16.0001H7.663C7.248 16.0001 6.913 15.6641 6.913 15.2501C6.913 14.8361 7.248 14.5001 7.663 14.5001H8.595V12.2631L7.168 13.4411C7.029 13.5561 6.86 13.6121 6.691 13.6121C6.475 13.6121 6.261 13.5201 6.113 13.3401C5.849 13.0201 5.894 12.5471 6.213 12.2841L8.595 10.3181V8.75012C8.595 8.33612 8.931 8.00012 9.345 8.00012C9.759 8.00012 10.095 8.33612 10.095 8.75012V10.3181L12.478 12.2841C12.797 12.5471 12.842 13.0201 12.579 13.3391ZM21.044 13.6631C20.954 13.5901 20.814 13.5161 20.291 13.2411C19.821 12.9931 19.539 12.5281 19.539 11.9981C19.539 11.4691 19.82 11.0061 20.346 10.7301C20.838 10.4721 20.957 10.4091 21.047 10.3371C21.329 10.1091 21.405 9.98312 21.477 9.62512C21.495 9.53912 21.5 9.39613 21.5 9.10913C21.5 7.97913 21.5 7.41112 21.353 6.90013C20.994 5.66413 20.04 4.71113 18.803 4.35113C18.292 4.20312 17.725 4.20312 16.594 4.20312H16.267V7.30312C16.267 7.71712 15.931 8.05312 15.517 8.05312C15.103 8.05312 14.767 7.71712 14.767 7.30312V4.20312H7.408C6.279 4.20312 5.712 4.20312 5.203 4.35113C3.963 4.71012 3.009 5.66513 2.65 6.90613C2.502 7.41813 2.503 7.98312 2.504 9.11212C2.509 10.3271 2.506 11.5301 2.503 12.7311L2.5 14.8971C2.5 16.0221 2.5 16.5871 2.647 17.0961C3.005 18.3371 3.96 19.2921 5.203 19.6511C5.71 19.7981 6.276 19.7981 7.402 19.7981H14.767V16.6971C14.767 16.2831 15.103 15.9471 15.517 15.9471C15.931 15.9471 16.267 16.2831 16.267 16.6971V19.7981H16.594C17.724 19.7981 18.291 19.7981 18.803 19.6491C20.04 19.2901 20.994 18.3371 21.352 17.1011C21.501 16.5871 21.5 16.0211 21.499 14.8921C21.499 14.6091 21.494 14.4681 21.477 14.3751C21.405 14.0201 21.329 13.8941 21.044 13.6631Z" fill="#787878"/>
</svg>
