<svg width="52" height="52" viewBox="0 0 52 52" fill="none" xmlns="http://www.w3.org/2000/svg">
<path fill-rule="evenodd" clip-rule="evenodd" d="M24.865 32.016C24.6787 32.0853 24.4858 32.1178 24.2973 32.1178C23.6387 32.1178 23.019 31.7148 22.7742 31.0626L21.3723 27.3056L18.9478 31.5046L20.6985 32.5143C21.4763 32.9628 21.7407 33.9573 21.2922 34.733C20.991 35.2551 20.445 35.5455 19.8838 35.5455C19.6087 35.5455 19.3292 35.4761 19.0735 35.3288L12.7577 31.6823C11.9798 31.2338 11.7133 30.2393 12.1618 29.4615C12.6103 28.6836 13.6048 28.4171 14.3827 28.8678L16.1333 29.8796L18.5578 25.6806L14.6015 26.3436C13.7045 26.4801 12.879 25.893 12.7295 25.009C12.5822 24.1228 13.178 23.2865 14.0642 23.137L20.6638 22.032L22.3625 19.0897C22.811 18.3119 23.8077 18.0454 24.5833 18.496C25.3612 18.9445 25.6255 19.9369 25.177 20.7147L23.4783 23.657L25.8183 29.9251C26.1325 30.7658 25.7057 31.7018 24.865 32.016ZM39.126 31.6021C38.229 31.6021 37.501 30.8741 37.501 29.9771C37.501 29.0801 38.229 28.3521 39.126 28.3521H46.5837V23.6808H34.7602C33.8632 23.6808 33.1352 22.9528 33.1352 22.0558C33.1352 21.1589 33.8632 20.4309 34.7602 20.4309H46.5837V20.1059C46.5837 18.08 46.5837 17.066 46.3865 16.1409C45.6542 12.7305 42.9762 10.0525 39.5658 9.32021C38.645 9.12305 37.6267 9.12305 35.6008 9.12305C35.0657 9.12305 34.7992 9.12955 34.6345 9.15121C33.679 9.29421 33.3497 9.49355 32.7798 10.2692C32.6997 10.3754 32.4592 10.8065 31.924 11.814C31.365 12.8692 30.3207 13.4975 29.129 13.4975C27.8138 13.4975 26.6915 12.7327 26.1975 11.4977C25.7317 10.332 25.5193 9.79905 25.0232 9.45888C24.527 9.12305 24.0048 9.12305 23.136 9.12305H22.1025C14.4585 9.12305 10.6213 9.12305 8.01916 11.7252C5.41699 14.3274 5.41699 18.1624 5.41699 25.8063V26.1941C5.41699 33.8381 5.41699 37.6731 8.01916 40.2753C10.6213 42.8775 14.4585 42.8775 22.1025 42.8775H23.1338C24.0005 42.8775 24.5205 42.8775 25.0145 42.5438C25.5085 42.2123 25.723 41.6815 26.1932 40.5115C26.6828 39.2938 27.8355 38.5073 29.2222 38.5073C30.3358 38.5463 31.3282 39.153 31.8893 40.1691C32.4397 41.1636 32.7235 41.6576 32.8015 41.7595C33.3973 42.546 33.6725 42.7106 34.6345 42.8471C34.784 42.8688 35.0613 42.8775 35.6138 42.8775C37.6288 42.8775 38.6385 42.8775 39.5528 42.6803C42.9762 41.9501 45.6585 39.27 46.3908 35.8466C46.5837 34.9301 46.5837 33.9183 46.5837 31.9055V31.6021H39.126Z" fill="#FF9500"/>
<path fill-rule="evenodd" clip-rule="evenodd" d="M24.865 32.016C24.6787 32.0853 24.4858 32.1178 24.2973 32.1178C23.6387 32.1178 23.019 31.7148 22.7742 31.0626L21.3723 27.3056L18.9478 31.5046L20.6985 32.5143C21.4763 32.9628 21.7407 33.9573 21.2922 34.733C20.991 35.2551 20.445 35.5455 19.8838 35.5455C19.6087 35.5455 19.3292 35.4761 19.0735 35.3288L12.7577 31.6823C11.9798 31.2338 11.7133 30.2393 12.1618 29.4615C12.6103 28.6836 13.6048 28.4171 14.3827 28.8678L16.1333 29.8796L18.5578 25.6806L14.6015 26.3436C13.7045 26.4801 12.879 25.893 12.7295 25.009C12.5822 24.1228 13.178 23.2865 14.0642 23.137L20.6638 22.032L22.3625 19.0897C22.811 18.3119 23.8077 18.0454 24.5833 18.496C25.3612 18.9445 25.6255 19.9369 25.177 20.7147L23.4783 23.657L25.8183 29.9251C26.1325 30.7658 25.7057 31.7018 24.865 32.016ZM39.126 31.6021C38.229 31.6021 37.501 30.8741 37.501 29.9771C37.501 29.0801 38.229 28.3521 39.126 28.3521H46.5837V23.6808H34.7602C33.8632 23.6808 33.1352 22.9528 33.1352 22.0558C33.1352 21.1589 33.8632 20.4309 34.7602 20.4309H46.5837V20.1059C46.5837 18.08 46.5837 17.066 46.3865 16.1409C45.6542 12.7305 42.9762 10.0525 39.5658 9.32021C38.645 9.12305 37.6267 9.12305 35.6008 9.12305C35.0657 9.12305 34.7992 9.12955 34.6345 9.15121C33.679 9.29421 33.3497 9.49355 32.7798 10.2692C32.6997 10.3754 32.4592 10.8065 31.924 11.814C31.365 12.8692 30.3207 13.4975 29.129 13.4975C27.8138 13.4975 26.6915 12.7327 26.1975 11.4977C25.7317 10.332 25.5193 9.79905 25.0232 9.45888C24.527 9.12305 24.0048 9.12305 23.136 9.12305H22.1025C14.4585 9.12305 10.6213 9.12305 8.01916 11.7252C5.41699 14.3274 5.41699 18.1624 5.41699 25.8063V26.1941C5.41699 33.8381 5.41699 37.6731 8.01916 40.2753C10.6213 42.8775 14.4585 42.8775 22.1025 42.8775H23.1338C24.0005 42.8775 24.5205 42.8775 25.0145 42.5438C25.5085 42.2123 25.723 41.6815 26.1932 40.5115C26.6828 39.2938 27.8355 38.5073 29.2222 38.5073C30.3358 38.5463 31.3282 39.153 31.8893 40.1691C32.4397 41.1636 32.7235 41.6576 32.8015 41.7595C33.3973 42.546 33.6725 42.7106 34.6345 42.8471C34.784 42.8688 35.0613 42.8775 35.6138 42.8775C37.6288 42.8775 38.6385 42.8775 39.5528 42.6803C42.9762 41.9501 45.6585 39.27 46.3908 35.8466C46.5837 34.9301 46.5837 33.9183 46.5837 31.9055V31.6021H39.126Z" fill="#FF9500"/>
</svg>
