<svg width="390" height="291" viewBox="0 0 390 291" fill="none" xmlns="http://www.w3.org/2000/svg">
<g clip-path="url(#clip0_105_7599)">
<path d="M390 255.731H0V255.926H390V255.731Z" fill="#EBEBEB"/>
<path d="M350.922 268.297H334.012V268.492H350.922V268.297Z" fill="#EBEBEB"/>
<path d="M268.843 264.244H242.237V264.439H268.843V264.244Z" fill="#EBEBEB"/>
<path d="M344.074 261.049H309.34V261.245H344.074V261.049Z" fill="#EBEBEB"/>
<path d="M134.956 264.986H126.266V265.181H134.956V264.986Z" fill="#EBEBEB"/>
<path d="M119.317 264.986H89.3723V265.181H119.317V264.986Z" fill="#EBEBEB"/>
<path d="M73.3277 261.69H51.7217V261.885H73.3277V261.69Z" fill="#EBEBEB"/>
<path d="M184.868 220.899H34.2497C31.7927 220.899 29.7959 218.9 29.7959 216.44V4.45938C29.7959 1.9993 31.7927 0 34.2497 0H184.868C187.325 0 189.322 1.9993 189.322 4.45938V216.44C189.322 218.9 187.325 220.899 184.868 220.899ZM34.2497 0.195244C31.9019 0.195244 29.9909 2.10864 29.9909 4.45938V216.44C29.9909 218.791 31.9019 220.704 34.2497 220.704H184.868C187.216 220.704 189.127 218.791 189.127 216.44V4.45938C189.127 2.10864 187.216 0.195244 184.868 0.195244H34.2497Z" fill="#EBEBEB"/>
<path d="M353.582 220.899H202.964C200.507 220.899 198.51 218.9 198.51 216.44V4.45938C198.51 1.9993 200.507 0 202.964 0H353.582C356.039 0 358.036 1.9993 358.036 4.45938V216.44C358.036 218.9 356.039 220.899 353.582 220.899ZM202.964 0.195244C200.616 0.195244 198.705 2.10864 198.705 4.45938V216.44C198.705 218.791 200.616 220.704 202.964 220.704H353.582C355.93 220.704 357.841 218.791 357.841 216.44V4.45938C357.841 2.10864 355.93 0.195244 353.582 0.195244H202.964Z" fill="#EBEBEB"/>
<path d="M168.535 113.968L168.886 103.706L162.591 101.644C162.334 98.1373 161.749 94.6776 160.914 91.335L166.249 87.3988L162.63 77.7616L156.031 78.2926C154.456 75.1765 152.607 72.2088 150.54 69.4286L153.956 63.7196L146.929 56.2144L141.032 59.2368C138.372 56.9798 135.572 54.9258 132.577 53.1217L133.528 46.5693L124.168 42.313L119.878 47.3425C116.61 46.2804 113.225 45.4838 109.723 44.9605L108.131 38.5331L97.8509 38.1816L95.8229 44.4841C92.2895 44.7731 88.8653 45.3276 85.5269 46.1632L81.5645 40.8526L71.9393 44.4529L72.4697 51.06C69.3575 52.661 66.3935 54.5119 63.6167 56.5815L57.9383 53.1608L50.4113 60.1662L53.4299 66.1016C51.1757 68.7335 49.1243 71.5684 47.3459 74.5674L40.8017 73.5834L36.5273 82.9551L41.5817 87.2505C40.5209 90.5228 39.7019 93.9356 39.2027 97.4188L32.7599 99.0432L32.4089 109.305L38.7269 111.367C38.9843 114.897 39.5693 118.333 40.4039 121.668L35.0687 125.604L38.6879 135.242L45.2867 134.71C46.8623 137.827 48.7109 140.794 50.7779 143.575L47.3615 149.283L54.3893 156.789L60.2861 153.766C62.9147 156.023 65.7461 158.077 68.7413 159.889L67.7585 166.442L77.1185 170.698L81.4319 165.668C84.7001 166.731 88.0853 167.527 91.5875 168.05L93.1787 174.478L103.459 174.829L105.487 168.527C109.013 168.238 112.445 167.683 115.775 166.848L119.707 172.158L129.332 168.558L128.825 161.951C131.937 160.35 134.87 158.499 137.678 156.422L143.356 159.842L150.883 152.837L147.865 146.902C150.119 144.27 152.17 141.435 153.949 138.436L160.493 139.42L164.767 130.048L159.713 125.753C160.774 122.48 161.593 119.091 162.092 115.584L168.511 113.96L168.535 113.968ZM99.2705 147.214C76.8221 146.441 59.2487 127.596 60.0131 105.119C60.7853 82.6193 79.6067 65.016 102.055 65.7892C124.504 66.5624 142.077 85.4073 141.313 107.907C140.54 130.384 121.719 147.979 99.2705 147.214Z" fill="#EBEBEB"/>
<path d="M343.949 80.0264L346.53 77.6132L345.501 75.5748C346.289 74.6533 346.991 73.6692 347.599 72.654L349.861 72.9976L351.328 69.7643L349.588 68.2805C349.963 67.1403 350.235 65.961 350.407 64.7817L352.63 64.2272L352.747 60.6816L350.571 59.9787C350.477 58.776 350.29 57.5967 350.002 56.4252L351.835 55.0585L350.587 51.7394L348.317 51.919C347.778 50.8647 347.147 49.8416 346.421 48.8576L347.599 46.9051L345.181 44.3123L343.153 45.351C342.225 44.5622 341.25 43.8593 340.236 43.2502L340.563 40.9853L337.342 39.5093L335.86 41.2509C334.713 40.8838 333.536 40.6105 332.358 40.4386L331.804 38.2207L328.263 38.0957L327.553 40.2824C326.36 40.3762 325.174 40.5636 324.004 40.8604L322.647 39.0251L319.324 40.2668L319.511 42.5473C318.458 43.0861 317.421 43.7187 316.454 44.4451L314.488 43.2658L311.906 45.679L312.944 47.7252C312.148 48.6467 311.454 49.6307 310.845 50.646L308.583 50.3024L307.117 53.5356L308.857 55.0195C308.482 56.1597 308.209 57.339 308.038 58.5183L305.815 59.0728L305.698 62.6184L307.874 63.3213C307.967 64.5162 308.155 65.7033 308.443 66.8747L306.61 68.2336L307.858 71.5528L310.136 71.381C310.674 72.4353 311.306 73.4584 312.031 74.4424L310.853 76.3948L313.271 78.9877L315.299 77.949C316.228 78.7378 317.203 79.4406 318.217 80.0498L317.881 82.3068L321.103 83.7829L322.585 82.0491C323.731 82.4162 324.901 82.6817 326.087 82.8613L326.64 85.0793L330.182 85.2043L330.892 83.0175C332.085 82.9238 333.27 82.7364 334.44 82.4396L335.798 84.2749L339.12 83.0331L338.933 80.7527C339.986 80.2138 341.016 79.589 341.991 78.8549L343.949 80.0264ZM325.525 65.0863C323.622 63.0479 323.731 59.8459 325.767 57.9481C327.803 56.0426 331.001 56.1519 332.904 58.1903C334.807 60.2286 334.698 63.4306 332.654 65.3362C330.619 67.2418 327.42 67.1324 325.525 65.0941V65.0863Z" fill="#EBEBEB"/>
<path d="M249.592 185.388L241.527 179.812V179.796C240.731 176.86 239.631 174.041 238.282 171.385L240.349 163.263L228.649 150.721L220.412 152.228C217.862 150.705 215.124 149.409 212.261 148.417C212.261 148.417 212.246 148.417 212.238 148.417L207.23 139.974L190.101 139.389L184.532 147.464C184.532 147.464 184.509 147.464 184.501 147.464C181.576 148.261 178.752 149.362 176.108 150.705L168.004 148.635L155.477 160.35L156.983 168.582C155.43 171.167 154.167 173.908 153.176 176.774L144.744 181.788L144.159 198.946L152.232 204.53C153.028 207.482 154.097 210.301 155.469 212.98L153.41 221.079L165.11 233.621L173.292 232.122C175.874 233.653 178.62 234.941 181.521 235.941L186.521 244.368L203.65 244.953L209.219 236.886C212.183 236.089 215.007 234.988 217.682 233.637L225.755 235.699L238.282 223.984L236.777 215.753C238.329 213.168 239.592 210.426 240.583 207.552L249.015 202.539L249.6 185.38L249.592 185.388ZM196.201 211.465C185.554 211.098 177.231 202.148 177.598 191.511C177.965 180.851 186.872 172.518 197.527 172.885C208.174 173.252 216.497 182.171 216.13 192.839C215.763 203.468 206.856 211.832 196.201 211.465Z" fill="#EBEBEB"/>
<path d="M267.969 136.671C267.969 136.671 267.93 136.671 267.914 136.671L254.405 136.21C253.843 136.195 253.328 135.89 253.048 135.406L249.413 129.275C247.478 128.572 245.575 127.69 243.734 126.636L237.877 127.705C237.323 127.807 236.761 127.62 236.379 127.206L227.152 117.318C226.769 116.905 226.621 116.327 226.762 115.788L228.236 110.001C227.339 108.165 226.59 106.213 226.005 104.167L220.132 100.106C219.671 99.7855 219.398 99.2545 219.422 98.6922L219.882 85.1656C219.898 84.6033 220.202 84.0879 220.685 83.8067L226.824 80.1596C227.549 78.1681 228.431 76.2625 229.453 74.4975L228.376 68.6167C228.275 68.0622 228.462 67.4999 228.875 67.1172L238.758 57.8783C239.171 57.4956 239.749 57.3472 240.287 57.4878L246.082 58.9716C247.962 58.0579 249.904 57.3081 251.893 56.7302L255.949 50.8495C256.269 50.3887 256.792 50.0997 257.361 50.1388L270.871 50.5996C271.432 50.6152 271.947 50.9198 272.228 51.404L275.87 57.5503C277.805 58.2609 279.7 59.1434 281.51 60.1821L287.399 59.1044C287.953 59.0029 288.514 59.1903 288.896 59.6042L298.124 69.4992C298.506 69.9131 298.654 70.491 298.514 71.0299L297.032 76.8404C297.944 78.7226 298.693 80.6672 299.27 82.6587L305.136 86.7198C305.596 87.04 305.861 87.571 305.846 88.1333L305.386 101.66C305.37 102.222 305.066 102.738 304.582 103.019L298.444 106.666C297.718 108.657 296.837 110.555 295.815 112.32L296.891 118.209C296.993 118.763 296.806 119.326 296.392 119.708L286.517 128.939C286.104 129.322 285.535 129.47 284.989 129.33L279.217 127.854C277.313 128.775 275.356 129.525 273.374 130.095L269.326 135.968C269.014 136.413 268.515 136.679 267.969 136.679V136.671ZM255.419 132.938L267.127 133.336L271.003 127.713C271.222 127.393 271.557 127.159 271.931 127.057C274.084 126.479 276.229 125.659 278.288 124.613C278.288 124.613 278.288 124.613 278.296 124.613C278.639 124.441 279.045 124.394 279.435 124.496L284.926 125.894L293.491 117.889L292.469 112.289C292.399 111.891 292.469 111.485 292.679 111.141C293.81 109.267 294.77 107.205 295.526 105.026C295.651 104.635 295.916 104.315 296.26 104.112L302.125 100.621L302.523 88.8987L296.907 85.0172C296.611 84.8142 296.392 84.5174 296.283 84.1816C296.267 84.1425 296.26 84.0957 296.244 84.0488C295.659 81.8933 294.84 79.7769 293.818 77.762C293.639 77.4027 293.592 76.9966 293.693 76.6061L295.097 71.0768L287.102 62.5016L281.494 63.5325C281.104 63.6028 280.699 63.5325 280.355 63.3295C278.405 62.1658 276.346 61.2052 274.232 60.4633C274.115 60.4242 273.991 60.3696 273.889 60.2993C273.663 60.1587 273.476 59.9635 273.335 59.737L269.849 53.8562L258.141 53.4579L254.264 59.081C254.03 59.4168 253.687 59.6511 253.297 59.7448C251.129 60.3383 249.023 61.1506 247.018 62.1736C246.659 62.3533 246.254 62.4001 245.864 62.2986L240.341 60.8928L231.777 68.8979L232.799 74.4975C232.861 74.8489 232.814 75.216 232.651 75.5284C232.627 75.5752 232.604 75.6143 232.573 75.6611C231.442 77.5433 230.482 79.6129 229.726 81.7996C229.601 82.1667 229.343 82.4791 229.008 82.6743L223.135 86.1653L222.737 97.8877L228.361 101.777C228.68 101.996 228.914 102.324 229.016 102.706C229.624 104.956 230.435 107.088 231.442 109.048C231.496 109.157 231.543 109.282 231.574 109.399C231.637 109.665 231.637 109.938 231.574 110.204L230.17 115.71L238.165 124.285L243.734 123.262C244.124 123.191 244.53 123.262 244.865 123.465C246.854 124.636 248.921 125.605 251.02 126.331C251.402 126.448 251.729 126.706 251.932 127.057L255.411 132.93L255.419 132.938ZM262.649 118.131C262.361 118.131 262.072 118.131 261.784 118.115C248.173 117.646 237.487 106.182 237.947 92.5615C238.415 78.9334 249.881 68.234 263.468 68.6948C277.079 69.1634 287.765 80.6281 287.305 94.2484C287.079 100.84 284.302 106.955 279.482 111.461C274.872 115.78 268.921 118.123 262.642 118.123L262.649 118.131ZM262.618 71.9827C251.152 71.9827 241.636 81.1202 241.238 92.6786C240.833 104.487 250.099 114.421 261.893 114.827C267.61 115.022 273.055 112.976 277.235 109.064C281.408 105.159 283.819 99.8558 284.014 94.1469C284.419 82.3385 275.153 72.4044 263.359 71.9983C263.11 71.9905 262.86 71.9827 262.618 71.9827Z" fill="#EBEBEB"/>
<path d="M299.083 39.3376L293.491 37.8303L291.985 32.2307L294.177 30.0361L296.486 34.8313L301.275 37.143L299.083 39.3376Z" fill="#E0E0E0"/>
<path d="M299.426 35.589C300.448 34.566 300.448 32.9025 299.426 31.8872C298.404 30.8641 296.751 30.8719 295.737 31.8872L298.521 27.709L302.258 29.599L303.077 33.5273L299.434 35.589H299.426Z" fill="#E0E0E0"/>
<path d="M293.732 30.4815L297.835 26.3735L303.428 27.8808L304.933 33.4804L300.83 37.5884L295.238 36.0811L293.732 30.4815ZM301.181 33.8397C302.203 32.8166 302.203 31.1531 301.181 30.1378C300.16 29.1148 298.506 29.1226 297.492 30.1378C296.47 31.1609 296.47 32.8088 297.492 33.8241C298.514 34.8471 300.167 34.855 301.181 33.8241V33.8397Z" fill="#F0F0F0"/>
<path d="M70.3714 188.809L73.3744 187.997L74.1778 184.99L73.0078 183.819L71.7676 186.388L69.1936 187.63L70.3714 188.809Z" fill="#E0E0E0"/>
<path d="M70.1841 186.794C69.6381 186.247 69.6381 185.357 70.1841 184.802C70.7301 184.248 71.6193 184.256 72.1653 184.802L70.6755 182.561L68.6709 183.576L68.2341 185.685L70.1841 186.794Z" fill="#E0E0E0"/>
<path d="M73.2418 184.053L71.0422 181.851L68.0392 182.655L67.2358 185.662L69.4354 187.864L72.4384 187.06L73.2418 184.053ZM69.2482 185.857C68.7022 185.31 68.7022 184.42 69.2482 183.865C69.7942 183.311 70.6834 183.319 71.2294 183.865C71.7754 184.412 71.7754 185.295 71.2294 185.849C70.6834 186.404 69.7942 186.404 69.2482 185.849V185.857Z" fill="#F0F0F0"/>
<path d="M59.5607 23.9834L62.0489 26.4747C62.6963 27.1229 63.7571 27.1229 64.4045 26.4747C65.0519 25.8265 65.0519 24.7644 64.4045 24.1161L61.9163 21.6248C61.2689 20.9766 60.2081 20.9766 59.5607 21.6248C58.9133 22.273 58.9133 23.3352 59.5607 23.9834Z" fill="#F0F0F0"/>
<path d="M57.8058 17.767C59.7246 17.0798 61.8072 17.9779 62.4546 19.7819C63.102 21.586 62.0724 23.6087 60.1536 24.3038C58.2348 24.9911 56.1522 24.0929 55.5048 22.2889C54.8574 20.4848 55.887 18.4621 57.8058 17.767Z" fill="#E0E0E0"/>
<path d="M55.0879 21.869L55.4492 22.876L62.8633 20.2092L62.5021 19.2023L55.0879 21.869Z" fill="#F0F0F0"/>
<path d="M195 291C278.524 291 346.234 287.042 346.234 282.16C346.234 277.277 278.524 273.319 195 273.319C111.476 273.319 43.7659 277.277 43.7659 282.16C43.7659 287.042 111.476 291 195 291Z" fill="#F5F5F5"/>
<path d="M67.6416 51.3023C66.8616 47.866 67.2126 44.9686 68.6868 42.6178C70.1688 40.2671 72.6102 38.7051 76.0266 37.9242C79.5288 37.1276 82.4382 37.4556 84.7626 38.9082C87.087 40.3608 88.6314 42.7818 89.4036 46.1713C89.9652 48.6314 90.0042 50.7478 89.5362 52.5128C89.0682 54.2778 88.1478 55.7773 86.7828 57.0113C85.4178 58.2452 83.5692 59.1277 81.2292 59.6588C78.858 60.1976 76.8066 60.2679 75.0828 59.8618C73.359 59.4557 71.8224 58.5498 70.4886 57.1284C69.147 55.707 68.2032 53.7702 67.6416 51.3101V51.3023ZM74.1468 49.8497C74.6304 51.974 75.3714 53.4188 76.3698 54.1607C77.3682 54.9104 78.546 55.1291 79.911 54.8167C81.3072 54.4965 82.2822 53.8014 82.8438 52.7159C83.4054 51.6303 83.4132 49.9122 82.8828 47.5536C82.4304 45.5699 81.705 44.211 80.6988 43.4769C79.6926 42.7428 78.507 42.5319 77.1342 42.8443C75.8238 43.1411 74.8722 43.844 74.295 44.953C73.71 46.062 73.6632 47.6942 74.1546 49.8341L74.1468 49.8497Z" fill="#263238"/>
<path d="M92.5001 48.7252C91.9697 46.3978 92.3207 44.297 93.5453 42.4305C94.7699 40.5639 96.7199 39.33 99.3875 38.7208C102.437 38.0258 104.949 38.385 106.907 39.8064C108.482 40.9466 109.512 42.5632 109.988 44.6563C110.518 47.007 110.183 49.1078 108.966 50.9587C107.749 52.8097 105.768 54.0514 103.022 54.6762C100.573 55.2307 98.4515 55.0667 96.6575 54.1608C94.4501 53.044 93.0617 51.2321 92.4923 48.733L92.5001 48.7252ZM98.3501 47.3819C98.6621 48.7408 99.1613 49.6858 99.8633 50.209C100.557 50.7323 101.33 50.9041 102.156 50.7166C102.999 50.5214 103.615 50.045 104.013 49.2796C104.411 48.5143 104.442 47.4209 104.122 46.0074C103.818 44.6875 103.326 43.7581 102.632 43.2427C101.938 42.7194 101.189 42.5476 100.386 42.7351C99.5357 42.9303 98.9039 43.4145 98.4983 44.2033C98.0927 44.9843 98.0381 46.0464 98.3501 47.3897V47.3819Z" fill="#263238"/>
<path d="M115.892 57.4876L111.111 36.4168L116.579 35.175L117.093 37.4321C117.632 36.3153 118.185 35.5109 118.739 35.0345C119.488 34.3941 120.377 33.9489 121.415 33.7146C123.45 33.2538 125.205 33.6756 126.672 34.9798C128.138 36.284 129.137 38.0881 129.659 40.392C130.236 42.9302 130.065 45.0076 129.16 46.6164C128.247 48.233 126.867 49.2483 125.01 49.67C124.113 49.873 123.255 49.9043 122.444 49.7715C121.633 49.6309 120.869 49.3264 120.143 48.8578L121.797 56.1443L115.9 57.4876H115.892ZM118.708 42.7583C118.981 43.9689 119.441 44.8045 120.081 45.2731C120.72 45.7417 121.43 45.8901 122.202 45.7104C122.881 45.5542 123.388 45.1481 123.723 44.4843C124.059 43.8205 124.067 42.813 123.762 41.4775C123.482 40.2436 123.037 39.3923 122.429 38.9159C121.82 38.4473 121.173 38.2911 120.479 38.4473C119.73 38.6192 119.176 39.0487 118.809 39.7516C118.443 40.4466 118.412 41.4541 118.708 42.7661V42.7583Z" fill="#263238"/>
<path d="M132.155 43.227L137.826 41.3604C138.224 41.993 138.668 42.4148 139.168 42.61C139.667 42.8052 140.275 42.8287 140.993 42.6647C141.781 42.485 142.35 42.1805 142.701 41.7509C142.982 41.4229 143.075 41.0793 142.99 40.7044C142.896 40.2827 142.6 40.0093 142.108 39.8766C141.757 39.7829 140.876 39.7751 139.456 39.8453C137.35 39.9547 135.86 39.9469 135.002 39.8219C134.144 39.697 133.364 39.3377 132.662 38.7442C131.96 38.1506 131.5 37.3931 131.297 36.4715C131.071 35.4641 131.165 34.5347 131.586 33.6756C132.007 32.8165 132.686 32.0902 133.63 31.4967C134.573 30.9031 135.907 30.4111 137.623 30.0206C139.441 29.6067 140.813 29.4427 141.742 29.5208C142.67 29.5989 143.489 29.8723 144.199 30.3174C144.908 30.7704 145.571 31.4498 146.18 32.3636L140.767 34.1676C140.509 33.7147 140.189 33.4101 139.807 33.2539C139.277 33.0508 138.692 33.0274 138.037 33.1758C137.374 33.3242 136.921 33.5507 136.672 33.8552C136.422 34.1598 136.336 34.48 136.414 34.8158C136.5 35.1907 136.757 35.425 137.179 35.5343C137.608 35.6359 138.473 35.6203 139.792 35.4797C141.781 35.261 143.302 35.2376 144.331 35.4094C145.369 35.589 146.219 35.9795 146.89 36.5965C147.56 37.2134 147.989 37.9554 148.184 38.8223C148.387 39.7048 148.309 40.6185 147.974 41.5713C147.631 42.5241 146.944 43.3754 145.915 44.1329C144.885 44.8826 143.38 45.484 141.414 45.937C138.629 46.5696 136.555 46.6242 135.197 46.101C133.832 45.5777 132.818 44.6171 132.155 43.227Z" fill="#263238"/>
<path d="M151.203 23.9057L157.607 23.8667L157.638 28.7869L156.46 38.6818L152.498 38.7053L151.234 28.8259L151.203 23.9057ZM151.515 40.2204L157.49 40.1891L157.521 45.4763L151.546 45.5076L151.515 40.2204Z" fill="#263238"/>
<path d="M100.371 91.0856C100.324 91.0856 100.277 91.0778 100.23 91.0622C96.7201 89.7033 94.6219 88.3678 93.5299 86.7746C92.7343 86.9308 91.8529 86.8293 91.0105 86.431C90.1915 86.0405 89.4037 85.361 88.8421 84.3848C88.3117 84.7909 87.6643 84.9002 86.9467 84.6816C86.1511 84.4317 85.3321 83.7678 84.6457 82.7994C84.2089 83.1118 83.7643 83.1587 83.4367 83.1352C81.1201 82.9478 77.9767 78.3244 77.7505 73.3965C77.7427 73.1778 77.9065 72.9982 78.1249 72.9903C78.3355 72.9747 78.5227 73.1465 78.5305 73.3652C78.7411 78.0433 81.7363 82.2137 83.4991 82.3543C83.7877 82.3855 84.0217 82.2918 84.2245 82.1356C83.1637 80.2769 82.6177 77.6215 83.4289 74.7866C84.0997 72.4437 84.6925 71.5221 85.4023 71.6939C86.7439 72.0297 86.5723 77.1373 85.8547 80.5112C85.6909 81.2765 85.4569 81.8232 85.1917 82.2137C85.8079 83.1274 86.5333 83.7366 87.1729 83.9396C87.7423 84.1193 88.1635 83.9709 88.4755 83.6663C87.8593 82.1512 87.7345 80.0972 88.5691 77.4653C89.6611 74.0056 90.1057 73.9119 90.3709 73.8572C90.5581 73.8182 90.7453 73.8807 90.8701 74.029C91.5877 74.8413 90.7297 80.2144 89.8249 82.8697C89.7079 83.2133 89.5597 83.5179 89.3881 83.7756C89.8717 84.7284 90.5893 85.3766 91.3303 85.7281C91.9309 86.017 92.5471 86.1186 93.1009 86.0639C93.0307 85.9155 92.9683 85.7671 92.9137 85.6109C92.2975 83.9318 92.5939 81.995 93.8341 79.6911C94.6609 78.1604 95.3317 77.4497 95.9479 77.4497C96.1351 77.4497 96.4705 77.52 96.7201 77.9652C97.3987 79.2225 96.9073 83.3695 95.5657 85.4235C95.2459 85.9077 94.8091 86.2748 94.3021 86.5169C95.3473 87.8914 97.3285 89.1019 100.503 90.3359C100.706 90.4139 100.807 90.6404 100.729 90.8435C100.667 90.9997 100.519 91.0934 100.363 91.0934L100.371 91.0856ZM95.9635 78.2229C95.9635 78.2229 95.5189 78.2229 94.5361 80.0582C93.4051 82.1512 93.1243 83.8772 93.6547 85.3376C93.7171 85.5172 93.7951 85.689 93.8887 85.8609C94.3021 85.6812 94.6609 85.3923 94.9183 85.0018C96.0103 83.3305 96.5329 79.8942 96.1273 78.5509C96.0415 78.2776 95.9557 78.2307 95.9557 78.2307L95.9635 78.2229ZM90.3709 74.935C90.1681 75.3177 89.8327 76.0908 89.3257 77.6918C88.6549 79.8083 88.6549 81.503 89.0293 82.8072C89.0527 82.7447 89.0761 82.6745 89.0995 82.612C90.0199 79.9254 90.4645 76.2314 90.3709 74.935ZM85.2307 72.4749C85.0981 72.5999 84.7237 73.0919 84.1777 74.9896C83.4601 77.4966 83.9047 79.7848 84.7471 81.4327C84.9109 81.0969 85.0201 80.7064 85.0981 80.3393C85.9093 76.5047 85.6753 73.0372 85.2307 72.4827V72.4749Z" fill="#263238"/>
<path d="M130.026 132.017C128.84 132.017 127.585 131.744 126.469 131.087C126.282 130.978 126.22 130.736 126.329 130.556C126.438 130.369 126.68 130.307 126.859 130.416C129.644 132.048 133.24 130.908 133.981 129.721C134.066 129.58 134.144 129.401 134.098 129.198C132.998 129.315 131.641 129.026 130.096 128.049C128.115 126.808 127.959 126.441 127.967 126.144C127.967 125.972 128.076 125.816 128.232 125.738C129.012 125.347 132.53 126.964 133.996 127.932C134.191 128.057 134.347 128.198 134.48 128.338C135.127 128.182 135.634 127.846 135.962 127.44C136.188 127.167 136.344 126.862 136.422 126.566C136.367 126.566 136.321 126.581 136.266 126.581C135.018 126.706 133.77 126.167 132.436 124.941C131.524 124.09 131.165 123.512 131.282 123.043C131.321 122.895 131.446 122.629 131.843 122.536C132.92 122.27 135.587 123.403 136.672 124.598C136.913 124.863 137.085 125.183 137.171 125.519C138.185 125.043 139.269 123.965 140.54 122.184C140.665 122.013 140.907 121.966 141.086 122.091C141.258 122.216 141.305 122.458 141.18 122.637C139.706 124.699 138.481 125.871 137.241 126.347C137.194 126.894 136.968 127.456 136.562 127.94C136.165 128.417 135.587 128.823 134.862 129.041C134.94 129.393 134.862 129.768 134.644 130.127C133.988 131.189 132.101 132.017 130.026 132.017ZM129.332 126.597C129.597 126.792 129.971 127.05 130.51 127.386C131.57 128.049 132.514 128.354 133.318 128.417C132.023 127.612 130.338 126.901 129.332 126.597ZM132.054 123.278C132.101 123.403 132.272 123.723 132.967 124.363C134.129 125.433 135.182 125.917 136.188 125.8C136.274 125.792 136.352 125.777 136.438 125.761C136.383 125.527 136.266 125.308 136.102 125.113C135.002 123.91 132.592 123.145 132.062 123.27L132.054 123.278Z" fill="#263238"/>
<path d="M140.353 130.947L128.201 133.157L117.164 72.8574L93.7171 77.1216L55.5049 145.067L59.6077 167.488L108.623 158.578L111.977 176.915L135.424 172.651L132.07 154.313L144.222 152.103L140.353 130.954V130.947ZM78.8503 142.13L99.0991 106.541L104.746 137.421L78.8503 142.13Z" fill="#FFB54C"/>
<path d="M238.235 68.7572C237.783 64.5946 236.948 60.8928 235.739 57.6517C234.53 54.4185 232.713 51.2399 230.287 48.1316C227.861 45.0233 224.554 42.3211 220.381 40.0329C216.2 37.7446 210.686 36.1514 203.83 35.2611C189.563 33.4024 178.441 35.9327 170.461 42.8678C162.482 49.8029 157.232 63.0795 154.705 82.7055C153.676 90.6871 153.426 98.0673 153.941 104.838C154.456 111.617 155.704 117.061 157.669 121.184C160.36 126.979 164.167 131.602 169.096 135.062C174.018 138.522 180.765 140.81 189.337 141.927C204.625 143.918 215.951 140.982 223.322 133.11C230.693 125.238 235.583 111.937 237.994 93.2018C239.07 84.8454 239.148 76.692 238.243 68.7416L238.235 68.7572Z" fill="#FFB54C"/>
<path d="M196.381 133.922C194.509 133.86 192.512 133.688 190.445 133.422C183.308 132.493 177.778 130.681 174.026 128.041C170.321 125.441 167.513 122.012 165.454 117.568L165.415 117.49C163.917 114.351 162.934 109.876 162.505 104.19C162.029 98.0284 162.271 91.1714 163.223 83.8068C166.007 62.1581 171.756 53.1222 176.093 49.3578C181.147 44.9688 187.964 42.9851 196.942 43.2896C198.783 43.3521 200.733 43.5161 202.73 43.7817C208.494 44.5314 213.049 45.8122 216.278 47.5772C219.406 49.2876 221.848 51.2556 223.54 53.4267C225.412 55.8321 226.816 58.261 227.713 60.6664C228.665 63.2202 229.343 66.2582 229.718 69.6945C230.552 76.9654 230.467 84.494 229.492 92.1242C227.331 108.946 223.15 120.763 217.074 127.253C212.566 132.071 205.803 134.25 196.396 133.93L196.381 133.922Z" fill="#263238"/>
<path d="M211.645 68.9836L211.747 66.0237L209.929 65.4301C209.851 64.4227 209.687 63.423 209.446 62.4624L210.982 61.33L209.937 58.5497L208.034 58.7059C207.581 57.8078 207.051 56.9565 206.45 56.1521L207.433 54.5043L205.405 52.341L203.705 53.2157C202.94 52.5674 202.129 51.9739 201.271 51.4506L201.544 49.5607L198.845 48.3345L197.613 49.7872C196.669 49.4826 195.694 49.2561 194.688 49.0999L194.228 47.249L191.264 47.1475L190.679 48.9671C189.665 49.053 188.674 49.2092 187.715 49.4513L186.576 47.9206L183.799 48.9593L183.955 50.8649C183.058 51.3257 182.208 51.8568 181.405 52.4581L179.767 51.4741L177.598 53.4968L178.472 55.2072C177.824 55.9647 177.232 56.7847 176.717 57.6438L174.829 57.3626L173.597 60.0648L175.055 61.2988C174.751 62.2438 174.509 63.2278 174.369 64.2274L172.513 64.696L172.411 67.6559L174.236 68.2495C174.314 69.2647 174.478 70.2566 174.72 71.2172L173.183 72.3496L174.229 75.1299L176.132 74.9737C176.584 75.8718 177.115 76.7231 177.715 77.5275L176.732 79.1753L178.76 81.3387L180.461 80.464C181.217 81.1122 182.036 81.7057 182.894 82.229L182.614 84.1189L185.312 85.3451L186.553 83.8925C187.496 84.197 188.471 84.4235 189.478 84.5797L189.938 86.4306L192.902 86.5322L193.487 84.7125C194.501 84.6266 195.491 84.4704 196.451 84.2283L197.582 85.759L200.359 84.7203L200.21 82.8147C201.107 82.3539 201.958 81.8229 202.761 81.2215L204.399 82.2055L206.567 80.1828L205.694 78.4725C206.341 77.7149 206.934 76.8949 207.449 76.0358L209.336 76.317L210.569 73.6148L209.11 72.3808C209.414 71.4359 209.648 70.4596 209.797 69.4522L211.645 68.9836ZM191.677 78.5662C185.203 78.3475 180.141 72.9119 180.359 66.4298C180.578 59.9399 186.007 54.8713 192.481 55.09C198.955 55.3087 204.017 60.7443 203.798 67.2342C203.58 73.7163 198.151 78.7849 191.677 78.5662Z" fill="#FFB54C"/>
<path opacity="0.3" d="M223.954 123.324L224.164 121.333L222.971 120.841C222.971 120.153 222.908 119.474 222.791 118.818L223.883 118.123L223.33 116.194H222.035C221.77 115.577 221.465 114.968 221.099 114.398L221.84 113.335L220.584 111.773L219.391 112.273C218.915 111.797 218.4 111.359 217.838 110.969L218.127 109.696L216.372 108.728L215.452 109.657C214.82 109.391 214.172 109.196 213.517 109.04L213.299 107.759L211.31 107.533L210.818 108.728C210.132 108.728 209.461 108.798 208.798 108.915L208.104 107.814L206.177 108.376V109.673C205.569 109.938 204.961 110.243 204.383 110.61L203.323 109.86L201.763 111.117L202.262 112.312C201.802 112.789 201.349 113.304 200.959 113.866L199.703 113.585L198.736 115.342L199.657 116.248C199.399 116.889 199.196 117.529 199.04 118.193L197.761 118.404L197.551 120.395L198.744 120.895C198.744 121.575 198.806 122.246 198.923 122.91L197.824 123.605L198.385 125.534H199.68C199.945 126.151 200.249 126.76 200.616 127.33L199.867 128.393L201.115 129.962L202.316 129.455C202.792 129.931 203.307 130.368 203.869 130.759L203.58 132.032L205.335 133L206.255 132.079C206.887 132.337 207.535 132.532 208.19 132.688L208.408 133.969L210.397 134.195L210.889 132.993C211.567 132.993 212.246 132.922 212.909 132.805L213.603 133.906L215.522 133.344V132.048C216.138 131.782 216.746 131.477 217.324 131.11L218.377 131.86L219.944 130.611L219.437 129.416C219.913 128.939 220.35 128.424 220.748 127.862L222.004 128.143L222.971 126.386L222.05 125.48C222.308 124.839 222.503 124.199 222.659 123.543L223.946 123.324H223.954ZM213.915 122.551C212.987 124.238 210.873 124.863 209.188 123.933C207.503 123.004 206.895 120.887 207.815 119.201C208.744 117.514 210.85 116.904 212.534 117.826C214.219 118.755 214.843 120.864 213.915 122.551Z" fill="#FFB54C"/>
<path d="M235.006 89.5779L232.682 87.9691C232.456 87.1256 232.136 86.3056 231.746 85.548L232.339 83.2051L228.969 79.5892L226.598 80.0265C225.865 79.5892 225.077 79.2143 224.25 78.9254L222.807 76.4887L217.87 76.3169L216.263 78.6442C216.263 78.6442 216.263 78.6442 216.255 78.6442C215.413 78.8707 214.601 79.1909 213.837 79.5814L211.497 78.9878L207.886 82.3617L208.322 84.7358C207.878 85.4778 207.511 86.2744 207.223 87.0944L204.789 88.5392L204.617 93.4828L206.942 95.0916C207.168 95.9429 207.48 96.7551 207.878 97.5282L207.285 99.8634L210.655 103.479L213.01 103.05C213.751 103.487 214.547 103.862 215.381 104.151L216.824 106.58L221.762 106.752L223.369 104.424C224.219 104.198 225.038 103.878 225.81 103.487L228.134 104.081L231.746 100.707L231.309 98.3327C231.754 97.5907 232.12 96.7941 232.409 95.9663L234.842 94.5215L235.014 89.5779H235.006ZM219.617 97.0909C216.544 96.9894 214.149 94.4043 214.25 91.3429C214.352 88.2658 216.926 85.8682 219.991 85.9698C223.064 86.0713 225.459 88.6485 225.358 91.7178C225.256 94.7792 222.682 97.1924 219.617 97.0909Z" fill="white"/>
<path d="M251.971 50.1152L252.377 49.1312C252.665 48.9828 252.946 48.7954 253.196 48.6001L254.101 48.6314L255.161 47.1085L254.818 46.2728C254.92 45.9682 254.998 45.648 255.037 45.32L255.817 44.6015L255.489 42.7741L254.506 42.3679C254.358 42.079 254.179 41.8056 253.976 41.5557L254.007 40.6498L252.486 39.5877L251.651 39.9313C251.339 39.822 251.027 39.7517 250.7 39.7126L249.982 38.9316L248.157 39.2597L247.751 40.2437C247.455 40.3921 247.182 40.5717 246.932 40.7747L246.028 40.7435L244.967 42.2664L245.31 43.1021C245.209 43.4066 245.131 43.7268 245.092 44.0627L244.312 44.7812L244.639 46.6087L245.622 47.0148C245.77 47.3115 245.957 47.5849 246.16 47.8348L246.129 48.7329L247.65 49.795L248.485 49.4514C248.797 49.5607 249.109 49.631 249.436 49.6701L250.162 50.4511L251.987 50.123L251.971 50.1152ZM248.001 45.0467C247.798 43.9065 248.555 42.8287 249.686 42.6257C250.825 42.4226 251.901 43.1802 252.104 44.3126C252.307 45.445 251.55 46.5306 250.419 46.7336C249.288 46.9367 248.204 46.1791 248.001 45.0467Z" fill="#FFB54C"/>
<path d="M230.576 44.9374L229.983 44.4376C231.021 43.2115 232.487 41.6573 234.671 40.5093L235.03 41.2043C232.705 42.4227 231.216 44.1877 230.576 44.9452V44.9374Z" fill="#FFB54C"/>
<path d="M236.8 40.4935L236.496 39.775C239.444 38.5099 242.525 38.0178 245.653 38.3068L245.583 39.0878C242.588 38.7988 239.639 39.283 236.808 40.4935H236.8Z" fill="#FFB54C"/>
<path d="M235.326 45.898L234.679 45.4607C236.278 43.1021 239.445 41.0559 242.377 40.4702L242.526 41.2356C239.78 41.7823 236.816 43.6957 235.318 45.898H235.326Z" fill="#FFB54C"/>
<path d="M183.565 121.052C183.464 121.052 183.363 121.013 183.285 120.934L181.647 119.248C180.812 119.169 179.993 119.013 179.19 118.787L176.639 119.911C176.514 119.966 176.374 119.95 176.265 119.88L171.99 117.045C171.881 116.975 171.811 116.85 171.819 116.717L171.858 113.937C171.335 113.289 170.875 112.586 170.477 111.844L168.285 110.993C168.16 110.946 168.067 110.836 168.043 110.704L167.022 105.674C166.998 105.541 167.037 105.409 167.131 105.315L168.816 103.675C168.894 102.847 169.05 102.019 169.268 101.215L168.145 98.6688C168.09 98.5439 168.106 98.4033 168.176 98.2939L171.007 94.0142C171.078 93.9048 171.187 93.8346 171.335 93.8424L174.112 93.8814C174.767 93.3582 175.469 92.8974 176.202 92.5069L177.052 90.3124C177.099 90.1874 177.208 90.0937 177.341 90.0703L182.364 89.0472C182.497 89.0237 182.629 89.0628 182.723 89.1565L184.353 90.8434C185.18 90.9215 186.007 91.0777 186.81 91.2964L189.353 90.1718C189.478 90.1171 189.618 90.1327 189.727 90.203L194.002 93.038C194.111 93.1083 194.181 93.2332 194.173 93.366L194.134 96.1541C194.657 96.8023 195.117 97.5052 195.507 98.2393L197.699 99.0905C197.824 99.1374 197.917 99.2467 197.941 99.3795L198.963 104.409C198.986 104.542 198.947 104.675 198.853 104.768L197.169 106.408C197.091 107.228 196.935 108.056 196.708 108.861L197.832 111.414C197.886 111.539 197.871 111.68 197.8 111.789L194.969 116.061C194.899 116.171 194.782 116.225 194.641 116.233L191.865 116.194C191.217 116.709 190.515 117.17 189.774 117.568L188.924 119.763C188.877 119.888 188.768 119.982 188.635 120.005L183.612 121.028C183.612 121.028 183.558 121.028 183.534 121.028L183.565 121.052ZM179.166 117.982C179.166 117.982 179.236 117.982 179.275 117.998C180.11 118.24 180.976 118.404 181.857 118.482C181.951 118.482 182.037 118.529 182.107 118.599L183.698 120.239L188.3 119.302L189.127 117.17C189.158 117.084 189.228 117.006 189.314 116.967C190.094 116.561 190.835 116.077 191.514 115.522C191.584 115.468 191.662 115.429 191.763 115.436L194.47 115.475L197.067 111.555L195.975 109.071C195.936 108.986 195.936 108.892 195.96 108.806C196.209 107.955 196.365 107.08 196.443 106.221C196.443 106.127 196.49 106.041 196.56 105.971L198.198 104.378L197.262 99.77L195.133 98.9422C195.039 98.9109 194.969 98.8406 194.922 98.7547C194.517 97.9737 194.033 97.2396 193.479 96.5602C193.417 96.4899 193.386 96.3962 193.393 96.3025L193.432 93.5925L189.517 90.9918L187.036 92.0852C186.951 92.1242 186.857 92.1242 186.771 92.1008C185.929 91.8509 185.055 91.6947 184.182 91.6166C184.088 91.6166 184.002 91.5697 183.932 91.4994L182.349 89.8594L177.747 90.7966L176.92 92.9286C176.889 93.0145 176.818 93.0926 176.733 93.1317C175.953 93.5378 175.219 94.022 174.533 94.5765C174.463 94.6312 174.369 94.678 174.276 94.6624L171.569 94.6234L168.972 98.5439L170.064 101.027C170.11 101.137 170.11 101.254 170.056 101.363C169.837 102.144 169.674 103.011 169.603 103.886C169.603 103.979 169.557 104.065 169.486 104.136L167.848 105.729L168.784 110.337L170.914 111.164C171.007 111.204 171.085 111.274 171.124 111.368C171.53 112.141 172.014 112.875 172.56 113.546C172.622 113.617 172.653 113.71 172.653 113.804L172.614 116.514L176.53 119.115L179.01 118.021C179.057 117.998 179.112 117.99 179.166 117.99V117.982ZM183.004 115.452C181.03 115.452 179.041 114.89 177.279 113.726C174.962 112.188 173.386 109.845 172.833 107.119C172.279 104.393 172.817 101.621 174.354 99.3014C177.528 94.5218 183.987 93.202 188.76 96.3727C193.534 99.5435 194.844 106.018 191.677 110.797C189.681 113.812 186.373 115.452 183.004 115.452ZM175.001 99.7309C173.581 101.871 173.082 104.44 173.597 106.963C174.112 109.485 175.57 111.649 177.708 113.07C182.13 115.999 188.105 114.788 191.03 110.368C193.955 105.948 192.746 99.9574 188.331 97.021C183.916 94.0923 177.934 95.3028 175.001 99.7309Z" fill="white"/>
<path d="M332.147 137.999L319.909 136.343L328.006 75.5751L304.387 72.3809L247.096 125.198L244.085 147.792L293.452 154.462L290.987 172.94L314.605 176.134L317.07 157.656L329.308 159.311L332.147 137.999ZM270.2 129.627L300.433 102.035L296.283 133.149L270.2 129.627Z" fill="#FFB54C"/>
<path d="M307.421 175.556C307.421 175.556 307.375 175.556 307.351 175.556C307.141 175.517 307 175.314 307.039 175.103L325.237 75.1924C325.276 74.9816 325.478 74.8488 325.689 74.88C325.9 74.9191 326.04 75.1221 326.001 75.333L307.804 175.243C307.772 175.431 307.609 175.564 307.421 175.564V175.556Z" fill="#263238"/>
<path d="M323.567 76.8637C323.552 77.2151 323.263 77.4963 322.904 77.4807C322.546 77.465 322.273 77.1761 322.288 76.8168C322.304 76.4576 322.592 76.1842 322.951 76.1999C323.302 76.2155 323.583 76.5044 323.567 76.8637Z" fill="#263238"/>
<path d="M320.97 90.3744C320.954 90.7259 320.666 91.007 320.307 90.9914C319.948 90.9758 319.675 90.6868 319.691 90.3276C319.706 89.9683 319.995 89.695 320.354 89.7106C320.705 89.7262 320.986 90.0152 320.97 90.3744Z" fill="#263238"/>
<path d="M318.373 103.886C318.357 104.237 318.068 104.518 317.71 104.503C317.351 104.487 317.078 104.198 317.093 103.839C317.109 103.48 317.398 103.206 317.756 103.222C318.107 103.237 318.388 103.526 318.373 103.886Z" fill="#263238"/>
<path d="M313.256 117.951C313.24 118.303 312.951 118.584 312.593 118.568C312.234 118.552 311.961 118.263 311.976 117.904C311.992 117.545 312.281 117.272 312.639 117.287C312.998 117.303 313.271 117.592 313.256 117.951Z" fill="#263238"/>
<path d="M313.17 130.907C313.154 131.259 312.866 131.54 312.507 131.524C312.148 131.508 311.875 131.22 311.891 130.86C311.906 130.501 312.195 130.228 312.554 130.243C312.913 130.259 313.186 130.548 313.17 130.907Z" fill="#263238"/>
<path d="M310.573 144.418C310.557 144.77 310.268 145.051 309.91 145.035C309.551 145.02 309.278 144.731 309.293 144.371C309.309 144.02 309.598 143.739 309.956 143.755C310.315 143.77 310.588 144.059 310.573 144.418Z" fill="#263238"/>
<path d="M307.975 157.929C307.96 158.281 307.671 158.562 307.312 158.546C306.953 158.53 306.68 158.242 306.696 157.882C306.712 157.523 307 157.25 307.359 157.265C307.718 157.281 307.991 157.57 307.975 157.929Z" fill="#263238"/>
<path d="M305.37 171.44C305.354 171.791 305.066 172.072 304.707 172.057C304.348 172.041 304.075 171.752 304.091 171.393C304.106 171.034 304.395 170.76 304.754 170.776C305.113 170.792 305.386 171.081 305.37 171.44Z" fill="#263238"/>
<path d="M312.616 118.318C312.437 118.318 312.273 118.193 312.234 118.005C312.187 117.794 312.32 117.584 312.53 117.545L314.465 117.131C314.675 117.092 314.886 117.217 314.925 117.427C314.972 117.638 314.839 117.849 314.629 117.888L312.694 118.302C312.694 118.302 312.64 118.31 312.608 118.31L312.616 118.318Z" fill="#263238"/>
<path d="M319.082 111.125C319.082 111.125 317.335 115.678 316.75 118.435C316.165 121.192 316.126 127.354 316.126 127.354" fill="#263238"/>
<path d="M316.126 127.744C315.908 127.744 315.736 127.565 315.736 127.354C315.736 127.104 315.775 121.122 316.368 118.349C316.953 115.592 318.646 111.164 318.716 110.977C318.794 110.774 319.02 110.68 319.223 110.75C319.426 110.828 319.527 111.055 319.449 111.258C319.434 111.305 317.71 115.811 317.133 118.513C316.563 121.2 316.516 127.299 316.516 127.354C316.516 127.572 316.337 127.744 316.126 127.744Z" fill="#263238"/>
<path d="M173.511 195.158C174.595 177.664 172.598 145.855 205.444 150.065C240.653 154.579 230.576 195.799 230.576 195.799L173.503 195.158H173.511Z" fill="#263238"/>
<path d="M196.178 184.646C204.096 184.646 210.514 178.22 210.514 170.292C210.514 162.364 204.096 155.938 196.178 155.938C188.26 155.938 181.842 162.364 181.842 170.292C181.842 178.22 188.26 184.646 196.178 184.646Z" fill="white"/>
<path d="M198.065 155.961C191.279 154.797 184.018 159.811 183.3 164.887L210.218 167.363C209.266 161.576 203.455 156.882 198.065 155.961Z" fill="#263238"/>
<path d="M207.152 169.933C206.957 173.682 204.922 176.626 202.589 176.509C200.257 176.392 198.533 173.252 198.728 169.496C198.923 165.747 200.959 162.803 203.291 162.92C205.624 163.037 207.347 166.177 207.152 169.933Z" fill="#263238"/>
<path d="M196.178 185.42C187.848 185.42 181.062 178.633 181.062 170.284C181.062 161.936 187.84 155.149 196.178 155.149C204.516 155.149 211.294 161.936 211.294 170.284C211.294 178.633 204.516 185.42 196.178 185.42ZM196.178 156.719C188.706 156.719 182.622 162.803 182.622 170.292C182.622 177.782 188.698 183.865 196.178 183.865C203.658 183.865 209.734 177.782 209.734 170.292C209.734 162.803 203.658 156.719 196.178 156.719Z" fill="#FFB54C"/>
<path opacity="0.3" d="M226.582 194.713C226.582 194.713 226.52 194.713 226.489 194.706C226.278 194.659 226.153 194.448 226.2 194.237C226.224 194.136 228.712 183.545 226.13 172.838C226.083 172.627 226.208 172.417 226.419 172.37C226.621 172.323 226.84 172.448 226.887 172.659C229.515 183.553 226.98 194.315 226.957 194.424C226.91 194.604 226.754 194.721 226.575 194.721L226.582 194.713Z" fill="white"/>
<path opacity="0.3" d="M224.406 166.981C224.258 166.981 224.117 166.895 224.055 166.754C223.049 164.56 221.809 162.553 220.358 160.772C220.225 160.608 220.249 160.358 220.412 160.225C220.576 160.085 220.826 160.116 220.958 160.28C222.448 162.108 223.735 164.177 224.765 166.426C224.858 166.622 224.765 166.856 224.57 166.942C224.515 166.965 224.461 166.981 224.406 166.981Z" fill="white"/>
<path d="M100.409 277.224C100.316 277.224 100.214 277.224 100.121 277.224C97.968 277.161 96.2676 275.365 96.33 273.209C96.3924 271.054 98.163 269.39 100.339 269.414C100.363 269.414 100.386 269.414 100.417 269.414C102.671 269.414 108.092 266.673 119.434 248.773C120.042 247.812 121.04 247.164 122.164 247C123.287 246.836 124.433 247.172 125.284 247.921C139.277 260.136 154.105 267.742 154.253 267.821C156.172 268.797 156.936 271.148 155.961 273.069C154.986 274.99 152.638 275.763 150.719 274.787C150.127 274.49 137.171 267.852 123.575 256.707C114.067 271.015 107.016 277.224 100.409 277.224Z" fill="#263238"/>
<path d="M124.543 247.218C124.434 247.218 124.324 247.218 124.207 247.195C122.928 247.015 122.039 245.828 122.218 244.548C122.772 240.658 122.086 226.093 117.172 214.769C116.727 213.738 117.07 212.535 117.999 211.895C128.685 204.608 151.445 203.734 152.404 203.702C153.691 203.671 154.776 204.671 154.822 205.959C154.869 207.256 153.855 208.334 152.568 208.38C152.358 208.38 132.46 209.154 122.234 214.784C126.586 226.062 127.577 240.119 126.852 245.204C126.688 246.375 125.682 247.218 124.535 247.218H124.543Z" fill="#263238"/>
<path d="M128.474 244.18C126.914 240.502 119.902 240.923 115.783 244.071C113.584 245.758 110.604 250.818 110.292 252.654C109.98 254.489 111.252 256.153 113.428 255.965C116.119 255.731 119.808 251.818 119.808 251.818C117.351 254.231 120.518 255.934 125.253 252.443C127.873 250.506 130.213 248.296 128.474 244.18Z" fill="#FFB54C"/>
<path d="M262.634 196.189C262.634 196.189 262.564 196.189 262.525 196.174C262.314 196.111 262.197 195.9 262.259 195.69C263.297 192.066 264.436 189.856 265.925 188.622C265.699 187.841 265.723 186.95 266.042 186.076C266.354 185.224 266.963 184.381 267.883 183.733C267.431 183.241 267.267 182.6 267.423 181.874C267.602 181.062 268.187 180.179 269.092 179.406C268.741 179 268.655 178.555 268.648 178.227C268.624 175.9 272.945 172.346 277.82 171.682C278.031 171.643 278.234 171.799 278.257 172.018C278.288 172.229 278.14 172.432 277.922 172.455C273.289 173.088 269.404 176.446 269.42 178.219C269.42 178.508 269.529 178.734 269.701 178.922C271.456 177.696 274.045 176.907 276.939 177.469C279.334 177.93 280.309 178.438 280.192 179.164C279.981 180.531 274.88 180.82 271.463 180.406C270.691 180.312 270.122 180.132 269.708 179.898C268.858 180.593 268.312 181.374 268.172 182.03C268.047 182.616 268.234 183.022 268.562 183.311C270.013 182.561 272.048 182.249 274.739 182.85C278.281 183.631 278.413 184.061 278.491 184.318C278.546 184.506 278.499 184.693 278.366 184.834C277.618 185.623 272.197 185.248 269.474 184.584C269.123 184.498 268.804 184.381 268.538 184.233C267.634 184.803 267.056 185.568 266.768 186.349C266.542 186.974 266.487 187.591 266.588 188.145C266.729 188.059 266.869 187.981 267.017 187.919C268.632 187.153 270.582 187.278 272.984 188.309C274.576 188.997 275.348 189.598 275.402 190.215C275.418 190.394 275.387 190.746 274.958 191.027C273.772 191.816 269.599 191.699 267.431 190.543C266.916 190.27 266.518 189.863 266.23 189.379C264.958 190.543 263.929 192.636 262.985 195.908C262.938 196.08 262.782 196.189 262.61 196.189H262.634ZM266.869 188.903C267.088 189.301 267.407 189.629 267.821 189.856C269.584 190.793 273.047 191.011 274.342 190.48C274.607 190.371 274.646 190.285 274.646 190.285C274.646 190.285 274.607 189.848 272.696 189.028C270.512 188.091 268.765 187.958 267.368 188.622C267.197 188.7 267.033 188.793 266.869 188.903ZM269.467 183.772C269.537 183.795 269.599 183.811 269.669 183.826C272.423 184.498 276.143 184.615 277.415 184.404C277.017 184.24 276.214 183.967 274.576 183.608C272.415 183.131 270.722 183.28 269.459 183.764L269.467 183.772ZM270.449 179.383C270.8 179.515 271.198 179.594 271.573 179.633C275.457 180.093 278.889 179.547 279.404 179.063C279.271 178.945 278.749 178.61 276.806 178.235C274.248 177.75 272.009 178.391 270.449 179.375V179.383Z" fill="#263238"/>
<path d="M161.094 275.919C161.608 275.755 161.437 275.255 160.86 275.255H150.298C130.19 273.123 116.142 275.982 124.995 276.653C133.848 277.325 124.371 277.184 117.905 279.637C111.439 282.089 165.992 282.706 170.961 279.637C175.539 276.809 153.972 278.207 161.094 275.919Z" fill="#263238"/>
<path d="M236.707 279.035L144.823 275.982L141.009 186.778L249.514 189.207L236.707 279.035Z" fill="#FFB54C"/>
<path d="M173.511 277.325C173.308 277.325 173.137 277.169 173.121 276.966L165.758 187.372C165.742 187.153 165.898 186.966 166.117 186.95C166.335 186.935 166.522 187.091 166.538 187.31L173.901 276.903C173.917 277.122 173.761 277.309 173.542 277.325C173.535 277.325 173.519 277.325 173.511 277.325Z" fill="#263238"/>
<path d="M236.707 279.036L261.401 275.271L269.178 192.324L249.514 189.208L236.707 279.036Z" fill="#FFB54C"/>
<path opacity="0.2" d="M236.707 279.036L261.401 275.271L269.178 192.324L249.514 189.208L236.707 279.036Z" fill="black"/>
<path d="M152.669 258.785L150.407 205.788C150.173 200.258 154.651 195.674 160.181 195.799L228.868 197.337C234.601 197.462 238.937 202.586 238.126 208.271L230.513 261.682C229.827 266.524 225.607 270.07 220.724 269.906L161.92 267.953C156.92 267.789 152.888 263.791 152.677 258.785H152.669Z" fill="#263238"/>
<path d="M160.095 212.066L170.719 212.402L170.633 215.143L163.979 214.933L163.917 216.971L170.087 217.166L170.001 219.79L163.831 219.595L163.753 222.125L170.602 222.344L170.508 225.257L159.689 224.913L160.095 212.066Z" fill="white"/>
<path d="M172.692 225.328L173.098 212.48L179.704 212.691C180.929 212.73 181.865 212.863 182.505 213.097C183.144 213.332 183.659 213.738 184.033 214.316C184.416 214.902 184.587 215.597 184.564 216.417C184.54 217.127 184.369 217.736 184.049 218.244C183.729 218.752 183.3 219.158 182.754 219.462C182.411 219.658 181.943 219.814 181.342 219.923C181.81 220.095 182.146 220.267 182.356 220.431C182.497 220.54 182.7 220.774 182.973 221.126C183.246 221.477 183.417 221.751 183.503 221.938L185.305 225.726L180.828 225.585L178.831 221.594C178.581 221.079 178.347 220.743 178.144 220.579C177.864 220.368 177.544 220.259 177.185 220.251H176.834L176.67 225.452L172.684 225.328H172.692ZM176.92 217.815L178.589 217.869C178.768 217.869 179.119 217.83 179.642 217.729C179.907 217.682 180.126 217.557 180.297 217.346C180.469 217.135 180.562 216.893 180.57 216.612C180.586 216.198 180.461 215.878 180.204 215.643C179.946 215.409 179.455 215.284 178.737 215.261L176.998 215.206L176.912 217.815H176.92Z" fill="white"/>
<path d="M186.638 225.772L187.044 212.925L193.651 213.136C194.875 213.175 195.811 213.308 196.451 213.542C197.09 213.777 197.605 214.183 197.98 214.761C198.362 215.346 198.533 216.041 198.51 216.861C198.487 217.572 198.315 218.181 197.995 218.689C197.675 219.197 197.246 219.603 196.7 219.907C196.357 220.102 195.889 220.259 195.289 220.368C195.757 220.54 196.092 220.712 196.303 220.876C196.443 220.985 196.646 221.219 196.919 221.571C197.184 221.922 197.363 222.195 197.449 222.383L199.251 226.171L194.774 226.03L192.777 222.039C192.527 221.524 192.293 221.188 192.091 221.024C191.81 220.813 191.49 220.704 191.131 220.696H190.78L190.616 225.897L186.631 225.772H186.638ZM190.866 218.259L192.535 218.314C192.715 218.314 193.066 218.275 193.588 218.173C193.853 218.127 194.072 218.002 194.243 217.791C194.415 217.58 194.509 217.338 194.516 217.057C194.532 216.643 194.407 216.323 194.15 216.088C193.892 215.854 193.401 215.729 192.683 215.706L190.944 215.651L190.858 218.259H190.866Z" fill="white"/>
<path d="M199.93 219.775C200 217.674 200.632 216.065 201.833 214.933C203.034 213.8 204.68 213.269 206.762 213.332C208.9 213.402 210.522 214.027 211.645 215.214C212.761 216.401 213.291 218.025 213.229 220.095C213.182 221.594 212.885 222.82 212.355 223.765C211.817 224.71 211.068 225.437 210.093 225.937C209.118 226.444 207.925 226.671 206.497 226.624C205.046 226.577 203.861 226.311 202.925 225.819C201.989 225.327 201.248 224.57 200.686 223.555C200.125 222.539 199.875 221.274 199.922 219.775H199.93ZM203.892 219.915C203.853 221.212 204.064 222.149 204.524 222.735C204.984 223.32 205.631 223.617 206.458 223.648C207.308 223.672 207.979 223.422 208.463 222.875C208.946 222.336 209.212 221.344 209.258 219.907C209.297 218.697 209.079 217.807 208.611 217.236C208.143 216.666 207.488 216.362 206.653 216.338C205.85 216.315 205.202 216.573 204.703 217.127C204.204 217.682 203.931 218.611 203.884 219.915H203.892Z" fill="white"/>
<path d="M215.21 226.679L215.616 213.832L222.222 214.042C223.447 214.081 224.383 214.214 225.022 214.449C225.662 214.683 226.177 215.089 226.551 215.667C226.933 216.253 227.105 216.948 227.082 217.768C227.058 218.478 226.887 219.088 226.567 219.595C226.247 220.103 225.818 220.509 225.272 220.813C224.929 221.009 224.461 221.165 223.86 221.274C224.328 221.446 224.664 221.618 224.874 221.782C225.015 221.891 225.217 222.126 225.49 222.477C225.756 222.828 225.935 223.102 226.021 223.289L227.823 227.077L223.345 226.936L221.349 222.946C221.099 222.43 220.865 222.094 220.662 221.93C220.381 221.719 220.062 221.61 219.703 221.602H219.352L219.188 226.804L215.202 226.679H215.21ZM219.438 219.166L221.107 219.22C221.286 219.22 221.637 219.181 222.16 219.08C222.425 219.033 222.643 218.908 222.815 218.697C222.987 218.486 223.08 218.244 223.088 217.963C223.104 217.549 222.979 217.229 222.721 216.995C222.464 216.76 221.973 216.635 221.255 216.612L219.516 216.557L219.43 219.166H219.438Z" fill="white"/>
<path d="M221.52 248.515C221.239 248.515 220.966 248.405 220.763 248.179L214.087 240.861L206.879 247.453C206.458 247.835 205.811 247.804 205.436 247.39L198.76 240.072L191.552 246.664C191.131 247.047 190.484 247.015 190.109 246.601L183.433 239.284L176.225 245.875C176.023 246.062 175.757 246.156 175.492 246.141C175.219 246.125 174.962 246.008 174.782 245.805L168.106 238.487L160.898 245.078C160.485 245.461 159.83 245.43 159.455 245.016C159.073 244.594 159.104 243.946 159.518 243.571L167.482 236.285C167.895 235.902 168.55 235.933 168.925 236.347L175.601 243.665L182.809 237.073C183.011 236.886 183.277 236.792 183.542 236.808C183.815 236.824 184.072 236.941 184.252 237.144L190.928 244.461L198.136 237.87C198.549 237.487 199.204 237.519 199.579 237.932L206.255 245.25L213.463 238.659C213.876 238.276 214.523 238.307 214.906 238.721L222.277 246.797C222.659 247.218 222.628 247.867 222.214 248.241C222.019 248.421 221.77 248.507 221.528 248.507L221.52 248.515Z" fill="white"/>
<path d="M98.0851 280.925L93.2022 278.598L88.8499 257.379L91.2133 254.778L98.0851 280.925Z" fill="#FFB54C"/>
<path d="M98.0849 280.925L104.559 277.138L99.0131 259.659L91.2131 254.778L98.0849 280.925Z" fill="#FFB54C"/>
<path opacity="0.2" d="M98.0849 280.925L104.559 277.138L99.0131 259.659L91.2131 254.778L98.0849 280.925Z" fill="black"/>
<path d="M204.321 284.783C204.134 284.783 203.955 284.783 203.783 284.783C201.63 284.721 199.93 282.924 199.992 280.769C200.055 278.614 201.833 276.919 204.001 276.973C210.007 277.169 222.729 273.475 229.991 266.415C230.443 265.977 230.989 265.657 231.59 265.477C243.906 261.776 248.485 269.25 248.68 269.57L241.964 273.545C241.964 273.545 241.987 273.6 242.058 273.686C241.98 273.584 240.24 271.311 234.687 272.717C225.568 281.05 211.575 284.783 204.337 284.783H204.321Z" fill="#263238"/>
<path d="M203.884 289.977L189.68 289.079L188.565 262.861L207.652 263.572L203.884 289.977Z" fill="#FFB54C"/>
<path d="M203.884 289.977L207.207 286.666L209.266 270.32L207.651 263.572L203.884 289.977Z" fill="#FFB54C"/>
<path opacity="0.2" d="M203.884 289.977L207.207 286.666L209.266 270.32L207.651 263.572L203.884 289.977Z" fill="black"/>
<path d="M286.19 280.043C285.699 280.043 285.199 279.887 284.778 279.566C276.674 273.397 265.707 262.44 261.503 251.873C261.441 251.717 261.394 251.561 261.37 251.397C259.319 239.19 257.361 213.488 257.275 212.402C257.174 211.114 258.141 209.989 259.428 209.888C260.715 209.794 261.838 210.755 261.94 212.043C261.963 212.309 263.937 238.261 265.941 250.366C270.138 260.643 281.51 271.194 287.61 275.833C288.639 276.614 288.842 278.083 288.054 279.114C287.594 279.723 286.892 280.035 286.19 280.035V280.043Z" fill="#263238"/>
<path d="M297.009 281.23C295.199 281.23 293.148 280.41 290.917 278.793C289.872 278.036 289.638 276.568 290.394 275.521C291.151 274.474 292.617 274.24 293.662 274.998C295.597 276.396 296.65 276.552 297.016 276.552C298.311 276.552 299.356 277.598 299.356 278.895C299.356 280.191 298.311 281.238 297.016 281.238L297.009 281.23Z" fill="#263238"/>
<path d="M291.564 278.723C294.068 271.272 304.333 272.748 307.866 273.85C311.4 274.959 314.582 276.349 316.501 277.598C318.412 278.848 318.443 280.949 315.892 282.144C312.741 283.62 304.848 282.308 304.848 282.308C308.935 284.096 304.84 286.97 297.664 284.151C295.332 283.229 290.675 281.449 291.556 278.715L291.564 278.723Z" fill="#FFB54C"/>
<path d="M266.651 215.612C265.723 221.938 260.489 226.609 256.23 225.976C251.971 225.351 251.8 219.697 252.728 213.371C253.656 207.045 255.341 202.437 259.6 203.062C263.858 203.687 267.587 209.279 266.651 215.605V215.612Z" fill="#263238"/>
<path d="M163.707 190.356C164.06 190.356 164.346 190.069 164.346 189.715C164.346 189.361 164.06 189.075 163.707 189.075C163.353 189.075 163.067 189.361 163.067 189.715C163.067 190.069 163.353 190.356 163.707 190.356Z" fill="#263238"/>
<path d="M170.204 194.33C170.204 194.682 169.915 194.971 169.564 194.971C169.213 194.971 168.925 194.682 168.925 194.33C168.925 193.979 169.213 193.69 169.564 193.69C169.915 193.69 170.204 193.979 170.204 194.33Z" fill="#263238"/>
<path d="M170.914 270.007C170.914 270.359 170.625 270.647 170.274 270.647C169.923 270.647 169.635 270.359 169.635 270.007C169.635 269.656 169.923 269.367 170.274 269.367C170.625 269.367 170.914 269.656 170.914 270.007Z" fill="#263238"/>
<path d="M176.779 274.615C176.779 274.966 176.491 275.255 176.14 275.255C175.789 275.255 175.5 274.966 175.5 274.615C175.5 274.264 175.789 273.975 176.14 273.975C176.491 273.975 176.779 274.264 176.779 274.615Z" fill="#263238"/>
<path d="M64.3578 282.3C62.5014 282.3 59.9898 281.175 58.6404 279.215C58.5156 279.036 58.5624 278.793 58.7418 278.669C58.9212 278.544 59.163 278.59 59.2878 278.77C60.7464 280.871 63.9522 281.995 65.3796 281.332C65.5278 281.261 65.6526 281.175 65.7462 281.066C64.4748 280.48 63.3126 279.325 62.9928 277.567C62.8134 276.576 62.673 275.24 63.492 275.053C64.6074 274.803 66.0738 277.513 66.6354 279.567C66.7368 279.949 66.7758 280.301 66.7368 280.613C67.2282 280.746 67.7118 280.785 68.133 280.723C68.4684 280.676 68.952 280.535 69.2016 280.137C68.2578 279.496 67.6182 278.364 67.4076 276.864C67.1034 274.732 67.3296 274.358 67.5714 274.178C67.7274 274.061 67.9224 274.037 68.1096 274.115C68.9442 274.475 69.9582 277.497 70.1454 279.215C70.1688 279.403 70.1688 279.582 70.1454 279.754C70.4652 279.879 70.8162 279.949 71.1984 279.957C71.877 279.996 72.54 279.778 73.0782 279.465C72.969 279.395 72.8598 279.317 72.7662 279.231C71.955 278.536 71.6274 277.435 71.7678 275.849C71.877 274.623 72.15 273.959 72.6414 273.748C72.813 273.67 73.164 273.6 73.5852 273.936C74.4276 274.607 75.2154 276.747 74.9346 278.278C74.8722 278.598 74.7396 278.895 74.5446 279.176C75.972 279.426 77.9922 279.02 79.7238 278.59C79.9344 278.536 80.145 278.669 80.1996 278.879C80.2542 279.09 80.1216 279.301 79.911 279.356C77.7972 279.879 75.5196 280.301 73.9128 279.84C73.1952 280.41 72.189 280.754 71.1828 280.746C70.7226 280.738 70.2936 280.652 69.9036 280.504C69.5994 281.027 69.0222 281.379 68.25 281.496C67.7352 281.574 67.119 281.527 66.5028 281.347C66.3234 281.644 66.066 281.878 65.715 282.042C65.3406 282.214 64.8804 282.3 64.3734 282.3H64.3578ZM63.687 275.834C63.6402 275.951 63.5622 276.349 63.7494 277.427C64.0068 278.864 64.935 279.817 65.9646 280.324C65.9646 280.16 65.9256 279.973 65.871 279.77C65.2548 277.536 64.0926 275.998 63.6792 275.834H63.687ZM68.0316 275.154C68.0316 275.451 68.055 275.943 68.172 276.763C68.328 277.88 68.7414 278.731 69.3576 279.278C69.1782 277.708 68.484 275.896 68.0316 275.154ZM72.9378 274.475C72.9378 274.475 72.6414 274.623 72.5322 275.927C72.4152 277.239 72.657 278.13 73.2576 278.645C73.398 278.762 73.554 278.864 73.7256 278.942C73.944 278.7 74.1 278.426 74.1468 278.137C74.3574 277.005 73.8192 275.349 73.2108 274.678C73.0548 274.506 72.9534 274.467 72.93 274.467L72.9378 274.475Z" fill="#263238"/>
<path d="M178.519 288.204L180.632 284.534L178.519 280.863H176.257L177.536 284.534L176.257 288.204H178.519Z" fill="#263238"/>
<path d="M176.405 286.447C175.352 286.447 174.494 285.588 174.494 284.534C174.494 283.479 175.352 282.628 176.405 282.628L172.809 281.91L171.857 284.815L173.464 287.267L176.405 286.447Z" fill="#263238"/>
<path d="M176.717 280.863H172.481L170.368 284.534L172.481 288.204H176.717L178.831 284.534L176.717 280.863ZM174.603 286.447C173.55 286.447 172.692 285.588 172.692 284.534C172.692 283.48 173.55 282.628 174.603 282.628C175.656 282.628 176.506 283.48 176.506 284.534C176.506 285.588 175.656 286.447 174.603 286.447Z" fill="#FFB54C"/>
<path d="M325.954 280.613L324.386 277.888L325.954 275.162H327.631L326.687 277.888L327.631 280.613H325.954Z" fill="#FFB54C"/>
<path d="M327.522 279.309C328.302 279.309 328.942 278.668 328.942 277.888C328.942 277.107 328.302 276.474 327.522 276.474L330.19 275.943L330.899 278.098L329.706 279.918L327.522 279.309Z" fill="#FFB54C"/>
<path d="M327.296 275.162H330.439L332.007 277.888L330.439 280.613H327.296L325.728 277.888L327.296 275.162ZM328.864 279.309C329.644 279.309 330.283 278.669 330.283 277.888C330.283 277.107 329.644 276.474 328.864 276.474C328.084 276.474 327.452 277.107 327.452 277.888C327.452 278.669 328.084 279.309 328.864 279.309Z" fill="#263238"/>
<path d="M267.501 284.237H271.027C271.947 284.237 272.696 283.487 272.696 282.565C272.696 281.644 271.947 280.894 271.027 280.894H267.501C266.581 280.894 265.832 281.644 265.832 282.565C265.832 283.487 266.581 284.237 267.501 284.237Z" fill="#263238"/>
<path d="M261.869 281.082C262.743 279.231 264.849 278.395 266.581 279.215C268.312 280.035 269.014 282.191 268.141 284.041C267.267 285.892 265.161 286.728 263.429 285.908C261.698 285.088 260.996 282.932 261.869 281.082Z" fill="#FFB54C"/>
<path d="M262.828 285.902L263.794 286.358L267.153 279.224L266.187 278.767L262.828 285.902Z" fill="#263238"/>
</g>
<defs>
<clipPath id="clip0_105_7599">
<rect width="390" height="291" fill="white"/>
</clipPath>
</defs>
</svg>
