<svg xmlns="http://www.w3.org/2000/svg">
  <symbol id="icon-location" viewBox="0 0 30 30" fill="currentColor">
    <path fill-rule="evenodd" clip-rule="evenodd"
      d="M14.9986 13.3058C13.5236 13.3058 12.3237 12.1058 12.3237 10.6308C12.3237 9.15576 13.5236 7.95576 14.9986 7.95576C16.4736 7.95576 17.6736 9.15576 17.6736 10.6308C17.6736 12.1058 16.4736 13.3058 14.9986 13.3058ZM14.9986 2.96826C10.7362 2.96826 7.27368 6.43076 7.27368 10.6933C7.27368 15.9808 13.3111 21.1933 14.9986 21.1933C16.6736 21.1933 22.7111 15.9808 22.7111 10.6933C22.7111 6.43076 19.2486 2.96826 14.9986 2.96826Z"
      fill="#FB8901" />
    <path fill-rule="evenodd" clip-rule="evenodd"
      d="M23.5154 18.4948C23.0641 18.2398 22.4916 18.4023 22.2391 18.8535C21.9854 19.3048 22.1454 19.876 22.5979 20.1298C23.5666 20.6735 24.1004 21.281 24.1004 21.8423C24.1004 22.596 23.1591 23.2373 22.5791 23.5635C22.1979 23.7885 21.7716 23.986 21.2729 24.1685C17.8279 25.4448 12.1816 25.4473 8.7241 24.166C8.26285 23.9985 7.8166 23.7923 7.39535 23.5523C6.83285 23.2385 5.8916 22.5973 5.8916 21.8423C5.8916 21.0848 6.83285 20.4448 7.39535 20.1298C7.8466 19.876 8.0066 19.3048 7.7541 18.8535C7.50035 18.4023 6.93035 18.2423 6.4766 18.4948C4.4441 19.6348 4.0166 20.9435 4.0166 21.8423C4.0166 22.7385 4.4441 24.0473 6.47285 25.186C6.9816 25.4748 7.5241 25.7248 8.07785 25.926C10.0041 26.6398 12.4629 27.0335 15.0004 27.0335C17.5404 27.0335 19.9991 26.6398 21.9204 25.9273C22.5241 25.7085 23.0516 25.4623 23.5154 25.1873C25.5479 24.046 25.9754 22.7385 25.9754 21.8423C25.9754 20.9448 25.5479 19.636 23.5154 18.4948Z"
      fill="#FB8901" />
  </symbol>

  <symbol id="icon-location-white" viewBox="0 0 30 30" fill="currentColor">
    <path fill-rule="evenodd" clip-rule="evenodd"
      d="M14.9984 13.4222C13.5234 13.4222 12.3234 12.2222 12.3234 10.7472C12.3234 9.27222 13.5234 8.07222 14.9984 8.07222C16.4734 8.07222 17.6734 9.27222 17.6734 10.7472C17.6734 12.2222 16.4734 13.4222 14.9984 13.4222ZM14.9984 3.08472C10.7359 3.08472 7.27344 6.54722 7.27344 10.8097C7.27344 16.0972 13.3109 21.3097 14.9984 21.3097C16.6734 21.3097 22.7109 16.0972 22.7109 10.8097C22.7109 6.54722 19.2484 3.08472 14.9984 3.08472Z"
      fill="white" />
    <path fill-rule="evenodd" clip-rule="evenodd"
      d="M23.5154 18.6117C23.0641 18.3567 22.4916 18.5192 22.2391 18.9705C21.9854 19.4217 22.1454 19.993 22.5979 20.2467C23.5666 20.7905 24.1004 21.398 24.1004 21.9592C24.1004 22.713 23.1591 23.3542 22.5791 23.6805C22.1979 23.9055 21.7716 24.103 21.2729 24.2855C17.8279 25.5617 12.1816 25.5642 8.7241 24.283C8.26285 24.1155 7.8166 23.9092 7.39535 23.6692C6.83285 23.3555 5.8916 22.7142 5.8916 21.9592C5.8916 21.2017 6.83285 20.5617 7.39535 20.2467C7.8466 19.993 8.0066 19.4217 7.7541 18.9705C7.50035 18.5192 6.93035 18.3592 6.4766 18.6117C4.4441 19.7517 4.0166 21.0605 4.0166 21.9592C4.0166 22.8555 4.4441 24.1642 6.47285 25.303C6.9816 25.5917 7.5241 25.8417 8.07785 26.043C10.0041 26.7567 12.4629 27.1505 15.0004 27.1505C17.5404 27.1505 19.9991 26.7567 21.9204 26.0442C22.5241 25.8255 23.0516 25.5792 23.5154 25.3042C25.5479 24.163 25.9754 22.8555 25.9754 21.9592C25.9754 21.0617 25.5479 19.753 23.5154 18.6117Z"
      fill="white" />
  </symbol>

  <symbol id="icon-phone" viewBox="0 0 30 30" fill="currentColor">
    <path fill-rule="evenodd" clip-rule="evenodd"
      d="M24.7526 18.6371C24.4514 18.3509 24.1264 18.0421 23.7839 17.7009C22.1839 16.1021 20.8026 16.6434 19.6939 17.0796C18.3664 17.5996 17.1126 18.0921 14.8239 15.8009C12.5364 13.5171 13.0264 12.2622 13.5464 10.9334C13.9801 9.82094 14.5201 8.43719 12.9226 6.83969C12.5714 6.48719 12.2538 6.15469 11.9638 5.84844C10.7913 4.61594 9.94384 3.72469 8.75134 3.71094H8.72134C7.69634 3.71094 6.62134 4.36594 5.02384 5.96344C5.00759 5.97969 4.92634 6.06094 4.91259 6.07844C4.55509 6.42719 3.60509 7.35719 3.59384 9.17094C3.57759 12.0034 5.86134 15.7309 10.3801 20.2471C14.8814 24.7484 18.5964 27.0296 21.4226 27.0296C21.4326 27.0296 21.4426 27.0284 21.4526 27.0284C23.2664 27.0184 24.1951 26.0671 24.5451 25.7096L24.6614 25.5971C26.2726 23.9871 26.9239 22.9071 26.9114 21.8721C26.8951 20.6734 25.9964 19.8184 24.7526 18.6371Z"
      fill="#FB8901" />
    <path fill-rule="evenodd" clip-rule="evenodd"
      d="M17.7952 7.39375C18.3127 7.39375 18.7327 6.97375 18.7327 6.45625V3.90625C18.7327 3.38875 18.3127 2.96875 17.7952 2.96875C17.2777 2.96875 16.8577 3.38875 16.8577 3.90625V6.45625C16.8577 6.97375 17.2777 7.39375 17.7952 7.39375Z"
      fill="#FB8901" />
    <path fill-rule="evenodd" clip-rule="evenodd"
      d="M22.3558 9.20541C22.5958 9.20541 22.8346 9.11416 23.0183 8.93166L24.8221 7.13166C25.1883 6.76541 25.1896 6.17166 24.8233 5.80416C24.4583 5.43791 23.8646 5.43916 23.4983 5.80291L21.6933 7.60416C21.3271 7.97041 21.3271 8.56291 21.6921 8.93041C21.8758 9.11416 22.1158 9.20541 22.3558 9.20541Z"
      fill="#FB8901" />
    <path fill-rule="evenodd" clip-rule="evenodd"
      d="M26.7199 11.8945H24.1699C23.6524 11.8945 23.2324 12.3145 23.2324 12.832C23.2324 13.3495 23.6524 13.7695 24.1699 13.7695H26.7199C27.2374 13.7695 27.6574 13.3495 27.6574 12.832C27.6574 12.3145 27.2374 11.8945 26.7199 11.8945Z"
      fill="#FB8901" />
  </symbol>

  <symbol id="icon-phone-white" viewBox="0 0 30 30" fill="currentColor">
    <path fill-rule="evenodd" clip-rule="evenodd"
      d="M24.7526 18.7538C24.4514 18.4676 24.1264 18.1588 23.7839 17.8176C22.1839 16.2188 20.8026 16.7601 19.6939 17.1963C18.3664 17.7163 17.1126 18.2088 14.8239 15.9176C12.5364 13.6338 13.0264 12.3789 13.5464 11.0501C13.9801 9.93764 14.5201 8.55389 12.9226 6.95639C12.5714 6.60389 12.2538 6.27139 11.9638 5.96514C10.7913 4.73264 9.94384 3.84139 8.75134 3.82764H8.72134C7.69634 3.82764 6.62134 4.48264 5.02384 6.08014C5.00759 6.09639 4.92634 6.17764 4.91259 6.19514C4.55509 6.54389 3.60509 7.47389 3.59384 9.28764C3.57759 12.1201 5.86134 15.8476 10.3801 20.3638C14.8814 24.8651 18.5964 27.1463 21.4226 27.1463C21.4326 27.1463 21.4426 27.1451 21.4526 27.1451C23.2664 27.1351 24.1951 26.1838 24.5451 25.8263L24.6614 25.7138C26.2726 24.1038 26.9239 23.0238 26.9114 21.9888C26.8951 20.7901 25.9964 19.9351 24.7526 18.7538Z"
      fill="white" />
    <path fill-rule="evenodd" clip-rule="evenodd"
      d="M17.7949 7.51045C18.3124 7.51045 18.7324 7.09045 18.7324 6.57295V4.02295C18.7324 3.50545 18.3124 3.08545 17.7949 3.08545C17.2774 3.08545 16.8574 3.50545 16.8574 4.02295V6.57295C16.8574 7.09045 17.2774 7.51045 17.7949 7.51045Z"
      fill="white" />
    <path fill-rule="evenodd" clip-rule="evenodd"
      d="M22.3553 9.32211C22.5953 9.32211 22.8341 9.23086 23.0178 9.04836L24.8216 7.24836C25.1878 6.88211 25.1891 6.28836 24.8228 5.92086C24.4578 5.55461 23.8641 5.55586 23.4978 5.91961L21.6928 7.72086C21.3266 8.08711 21.3266 8.67961 21.6916 9.04711C21.8753 9.23086 22.1153 9.32211 22.3553 9.32211Z"
      fill="white" />
    <path fill-rule="evenodd" clip-rule="evenodd"
      d="M26.7199 12.0112H24.1699C23.6524 12.0112 23.2324 12.4312 23.2324 12.9487C23.2324 13.4662 23.6524 13.8862 24.1699 13.8862H26.7199C27.2374 13.8862 27.6574 13.4662 27.6574 12.9487C27.6574 12.4312 27.2374 12.0112 26.7199 12.0112Z"
      fill="white" />

  </symbol>

  <symbol id="icon-telephone" viewBox="0 0 30 30" fill="currentColor">
    <path fill-rule="evenodd" clip-rule="evenodd"
      d="M11.5615 3.125H18.4365C21.2627 3.125 23.5615 5.42375 23.5615 8.24875V21.75C23.5615 24.5762 21.2627 26.875 18.4365 26.875H11.5615C8.73527 26.875 6.43652 24.5762 6.43652 21.75V8.24875C6.43652 5.42375 8.73527 3.125 11.5615 3.125ZM13.249 9.3125H16.749C17.2665 9.3125 17.6865 8.8925 17.6865 8.375C17.6865 7.8575 17.2665 7.4375 16.749 7.4375H13.249C12.7315 7.4375 12.3115 7.8575 12.3115 8.375C12.3115 8.8925 12.7315 9.3125 13.249 9.3125ZM13.8115 21.5C13.8115 22.1663 14.3327 22.6875 14.999 22.6875C15.5602 22.6875 16.1865 22.18 16.1865 21.5C16.1865 20.82 15.5602 20.3125 14.999 20.3125C14.439 20.3125 13.8115 20.82 13.8115 21.5Z"
      fill="#FB8901" />
  </symbol>

  <symbol id="icon-telephone-white" viewBox="0 0 30 30" fill="currentColor">
    <path fill-rule="evenodd" clip-rule="evenodd"
      d="M11.5615 3.2417H18.4365C21.2627 3.2417 23.5615 5.54045 23.5615 8.36545V21.8667C23.5615 24.6929 21.2627 26.9917 18.4365 26.9917H11.5615C8.73527 26.9917 6.43652 24.6929 6.43652 21.8667V8.36545C6.43652 5.54045 8.73527 3.2417 11.5615 3.2417ZM13.249 9.4292H16.749C17.2665 9.4292 17.6865 9.0092 17.6865 8.4917C17.6865 7.9742 17.2665 7.5542 16.749 7.5542H13.249C12.7315 7.5542 12.3115 7.9742 12.3115 8.4917C12.3115 9.0092 12.7315 9.4292 13.249 9.4292ZM13.8115 21.6167C13.8115 22.283 14.3327 22.8042 14.999 22.8042C15.5602 22.8042 16.1865 22.2967 16.1865 21.6167C16.1865 20.9367 15.5602 20.4292 14.999 20.4292C14.439 20.4292 13.8115 20.9367 13.8115 21.6167Z"
      fill="white" />
  </symbol>

  <symbol id="icon-telegram" viewBox="0 0 30 30" fill="currentColor">
    <path fill-rule="evenodd" clip-rule="evenodd"
      d="M15.6607 20.7348L12.8959 23.304C12.5575 23.6196 12.0067 23.3604 12.0379 22.8984C12.1243 21.5928 12.2587 19.6092 12.3487 18.5064C12.3631 18.3324 12.5095 18.138 12.6487 18.012C15.8779 15.084 19.1143 12.1632 22.3495 9.24004C22.4695 9.13204 22.6111 8.86563 22.5367 8.72524C22.4527 8.56684 22.0651 8.61484 21.9043 8.71564C17.7955 11.3028 13.6867 13.8888 9.58388 16.4844C9.33188 16.6428 9.02348 16.6812 8.74028 16.59C7.04829 16.0464 5.34668 15.5316 3.65109 14.9964C3.26109 14.8728 2.79789 14.7504 2.75349 14.2668C2.70669 13.7616 3.13989 13.5216 3.53109 13.3644C5.10789 12.7284 6.69549 12.12 8.28068 11.508C13.9831 9.31084 19.6855 7.11484 25.3879 4.91884C25.5787 4.84564 25.8331 4.80004 26.0323 4.76044C26.6299 4.64044 27.1675 4.94044 27.2263 5.54524C27.2707 5.98804 27.1927 6.48124 27.1003 6.91924C25.9123 12.57 24.7087 18.2184 23.5063 23.868C23.1823 25.3944 22.3975 25.6836 21.1339 24.7512C19.5055 23.5488 15.6607 20.7348 15.6607 20.7348Z"
      fill="#fff" />
  </symbol>
  <symbol id="icon-linkdin" viewBox="0 0 30 30" fill="currentColor">
    <path fill-rule="evenodd" clip-rule="evenodd"
      d="M20.9728 18.9593C20.9728 19.4561 20.5696 19.8593 20.0728 19.8593C19.576 19.8593 19.1728 19.4561 19.1728 18.9593V14.8673C19.1728 13.6625 18.196 12.6833 16.9948 12.6833C15.7936 12.6833 14.8168 13.6625 14.8168 14.8673V18.9593C14.8168 19.4561 14.4136 19.8593 13.9168 19.8593C13.42 19.8593 13.0168 19.4561 13.0168 18.9593V14.8673C13.0168 12.6701 14.8012 10.8833 16.9948 10.8833C19.1884 10.8833 20.9728 12.6701 20.9728 14.8673V18.9593ZM9.93156 12.0113C9.43476 12.0113 8.98836 11.5601 8.98836 11.0633C8.98836 10.5665 9.43476 10.1153 9.93156 10.1153C10.4284 10.1153 10.8724 10.5665 10.8724 11.0633C10.8724 11.5601 10.4284 12.0113 9.93156 12.0113ZM10.8304 18.9593C10.8304 19.4561 10.4272 19.8593 9.93036 19.8593C9.43356 19.8593 9.03036 19.4561 9.03036 18.9593V14.4341C9.03036 13.9373 9.43356 13.5341 9.93036 13.5341C10.4272 13.5341 10.8304 13.9373 10.8304 14.4341V18.9593ZM20.062 3.61133H9.94116C6.14916 3.61133 3.60156 6.27893 3.60156 10.2473V19.7753C3.60156 23.7437 6.14916 26.4113 9.94116 26.4113H20.0608C23.8528 26.4113 26.4016 23.7437 26.4016 19.7753V10.2473C26.4016 6.27893 23.854 3.61133 20.062 3.61133Z"
      fill="white" />


  </symbol>
  <symbol id="icon-twitter" viewBox="0 0 30 30" fill="currentColor">
    <path fill-rule="evenodd" clip-rule="evenodd"
      d="M26.308 6.79872C26.1808 6.59952 25.9504 6.48792 25.7128 6.52752L23.3092 6.88512C22.6312 6.12672 20.5552 4.19232 17.6908 5.05872C15.2104 5.81952 14.0296 8.45712 13.9588 10.4707C10.8832 9.90672 8.01277 8.39232 5.81437 6.16032C5.65717 6.00072 5.42317 5.94192 5.20717 6.00912C4.99117 6.07632 4.83277 6.25872 4.79557 6.48072C3.69757 13.0123 5.11597 17.3719 9.25597 20.1079C7.71877 20.9551 5.95597 21.3907 4.22077 21.3283C3.98317 21.3271 3.76597 21.4531 3.66277 21.6655C3.55837 21.8767 3.58957 22.1299 3.74077 22.3123C5.51917 24.4507 8.86957 25.1839 11.5396 25.1839C11.848 25.1839 12.1468 25.1743 12.4336 25.1563C16.3216 24.9139 19.5268 23.3083 21.7024 20.5111C23.7628 17.8627 24.76 14.2231 24.5092 10.2331L24.502 10.1743L26.302 7.45152C26.4328 7.25472 26.4352 6.99792 26.308 6.79872Z"
      fill="white" />


  </symbol>
  <symbol id="icon-instagram" viewBox="0 0 30 30" fill="currentColor">
    <path fill-rule="evenodd" clip-rule="evenodd"
      d="M14.8115 12.1055C12.9899 12.1055 11.5078 13.5851 11.5078 15.4055C11.5078 17.2259 12.9899 18.7055 14.8115 18.7055C16.6331 18.7055 18.1139 17.2259 18.1139 15.4055C18.1139 13.5851 16.6331 12.1055 14.8115 12.1055Z"
      fill="white" />
    <path fill-rule="evenodd" clip-rule="evenodd"
      d="M20.8384 10.7021C20.1544 10.7021 19.5964 10.1477 19.5964 9.46733C19.5964 8.78453 20.1544 8.23013 20.8384 8.23013C21.5224 8.23013 22.0792 8.78453 22.0792 9.46733C22.0792 10.1477 21.5224 10.7021 20.8384 10.7021ZM14.8144 20.5073C12.0016 20.5073 9.71196 18.2201 9.71196 15.4073C9.71196 12.5945 12.0016 10.3073 14.8144 10.3073C17.6284 10.3073 19.9168 12.5945 19.9168 15.4073C19.9168 18.2201 17.6284 20.5073 14.8144 20.5073ZM20.062 3.61133H9.93996C6.14916 3.61133 3.60156 6.27773 3.60156 10.2473V19.7753C3.60156 23.7437 6.14916 26.4113 9.93996 26.4113H20.0608C23.8528 26.4113 26.4016 23.7437 26.4016 19.7753V10.2473C26.4016 6.27773 23.854 3.61133 20.062 3.61133Z"
      fill="white" />
  </symbol>

  <symbol id="icon-search-flight" viewBox="0 0 24 26" fill="currentColor">
    <path fill-rule="evenodd" clip-rule="evenodd"
      d="M2.806 12.7083C3.657 11.6883 5.118 11.5043 5.707 11.4723C6.741 11.4173 7.782 11.4283 8.789 11.4383L9.225 11.4013C9.897 9.92428 10.601 8.45828 11.31 7.00628C11.788 6.01228 12.473 5.43528 13.338 5.29228C13.823 5.20828 14.306 5.19228 14.773 5.17728C14.972 5.17128 15.174 5.16528 15.38 5.15328C15.582 5.14328 15.785 5.21328 15.936 5.35428C16.086 5.49428 16.172 5.69028 16.174 5.89628L16.219 11.3793C16.824 11.3763 17.537 11.3803 18.249 11.3813C18.953 11.3833 19.655 11.3853 20.246 11.3843C20.244 11.0713 20.242 10.7293 20.24 10.5573C20.237 10.1433 20.57 9.82028 20.984 9.81728C21.412 9.80328 21.737 10.1623 21.74 10.5763C21.743 10.8593 21.75 11.7503 21.75 11.9843C21.74 15.0683 19.921 16.9443 16.886 17.0013C13.329 17.0683 9.832 17.0823 5.677 17.0823C4.189 17.0823 2.49 16.3103 2.273 14.6163C2.181 13.8953 2.366 13.2363 2.806 12.7083Z"
      fill="#A1A1AA" />
    <path fill-rule="evenodd" clip-rule="evenodd"
      d="M5.24388 21.0898H18.7539C19.1679 21.0898 19.5039 21.4258 19.5039 21.8398C19.5039 22.2538 19.1679 22.5898 18.7539 22.5898H5.24388C4.82988 22.5898 4.49388 22.2538 4.49388 21.8398C4.49388 21.4258 4.82988 21.0898 5.24388 21.0898Z"
      fill="#A1A1AA" />

  </symbol>

    <symbol id="icon-search-flight-white" viewBox="0 0 24 26" fill="currentColor">
    <path fill-rule="evenodd" clip-rule="evenodd"
      d="M2.806 12.7083C3.657 11.6883 5.118 11.5043 5.707 11.4723C6.741 11.4173 7.782 11.4283 8.789 11.4383L9.225 11.4013C9.897 9.92428 10.601 8.45828 11.31 7.00628C11.788 6.01228 12.473 5.43528 13.338 5.29228C13.823 5.20828 14.306 5.19228 14.773 5.17728C14.972 5.17128 15.174 5.16528 15.38 5.15328C15.582 5.14328 15.785 5.21328 15.936 5.35428C16.086 5.49428 16.172 5.69028 16.174 5.89628L16.219 11.3793C16.824 11.3763 17.537 11.3803 18.249 11.3813C18.953 11.3833 19.655 11.3853 20.246 11.3843C20.244 11.0713 20.242 10.7293 20.24 10.5573C20.237 10.1433 20.57 9.82028 20.984 9.81728C21.412 9.80328 21.737 10.1623 21.74 10.5763C21.743 10.8593 21.75 11.7503 21.75 11.9843C21.74 15.0683 19.921 16.9443 16.886 17.0013C13.329 17.0683 9.832 17.0823 5.677 17.0823C4.189 17.0823 2.49 16.3103 2.273 14.6163C2.181 13.8953 2.366 13.2363 2.806 12.7083Z"
      fill="#ffffff" />
    <path fill-rule="evenodd" clip-rule="evenodd"
      d="M5.24388 21.0898H18.7539C19.1679 21.0898 19.5039 21.4258 19.5039 21.8398C19.5039 22.2538 19.1679 22.5898 18.7539 22.5898H5.24388C4.82988 22.5898 4.49388 22.2538 4.49388 21.8398C4.49388 21.4258 4.82988 21.0898 5.24388 21.0898Z"
      fill="#ffffff" />

  </symbol>


  <symbol id="icon-online-checkin" viewBox="0 0 24 24" fill="currentColor">
    <path fill-rule="evenodd" clip-rule="evenodd"
      d="M16.267 14.0841C16.267 14.4981 15.931 14.8341 15.517 14.8341C15.103 14.8341 14.767 14.4981 14.767 14.0841V9.91612C14.767 9.50212 15.103 9.16612 15.517 9.16612C15.931 9.16612 16.267 9.50212 16.267 9.91612V14.0841ZM12.579 13.3391C12.316 13.6611 11.841 13.7041 11.523 13.4411L10.095 12.2631V14.5001H11.029C11.443 14.5001 11.779 14.8361 11.779 15.2501C11.779 15.6641 11.443 16.0001 11.029 16.0001H7.663C7.248 16.0001 6.913 15.6641 6.913 15.2501C6.913 14.8361 7.248 14.5001 7.663 14.5001H8.595V12.2631L7.168 13.4411C7.029 13.5561 6.86 13.6121 6.691 13.6121C6.475 13.6121 6.261 13.5201 6.113 13.3401C5.849 13.0201 5.894 12.5471 6.213 12.2841L8.595 10.3181V8.75012C8.595 8.33612 8.931 8.00012 9.345 8.00012C9.759 8.00012 10.095 8.33612 10.095 8.75012V10.3181L12.478 12.2841C12.797 12.5471 12.842 13.0201 12.579 13.3391ZM21.044 13.6631C20.954 13.5901 20.814 13.5161 20.291 13.2411C19.821 12.9931 19.539 12.5281 19.539 11.9981C19.539 11.4691 19.82 11.0061 20.346 10.7301C20.838 10.4721 20.957 10.4091 21.047 10.3371C21.329 10.1091 21.405 9.98312 21.477 9.62512C21.495 9.53912 21.5 9.39613 21.5 9.10913C21.5 7.97913 21.5 7.41112 21.353 6.90013C20.994 5.66413 20.04 4.71113 18.803 4.35113C18.292 4.20312 17.725 4.20312 16.594 4.20312H16.267V7.30312C16.267 7.71712 15.931 8.05312 15.517 8.05312C15.103 8.05312 14.767 7.71712 14.767 7.30312V4.20312H7.408C6.279 4.20312 5.712 4.20312 5.203 4.35113C3.963 4.71012 3.009 5.66513 2.65 6.90613C2.502 7.41813 2.503 7.98312 2.504 9.11212C2.509 10.3271 2.506 11.5301 2.503 12.7311L2.5 14.8971C2.5 16.0221 2.5 16.5871 2.647 17.0961C3.005 18.3371 3.96 19.2921 5.203 19.6511C5.71 19.7981 6.276 19.7981 7.402 19.7981H14.767V16.6971C14.767 16.2831 15.103 15.9471 15.517 15.9471C15.931 15.9471 16.267 16.2831 16.267 16.6971V19.7981H16.594C17.724 19.7981 18.291 19.7981 18.803 19.6491C20.04 19.2901 20.994 18.3371 21.352 17.1011C21.501 16.5871 21.5 16.0211 21.499 14.8921C21.499 14.6091 21.494 14.4681 21.477 14.3751C21.405 14.0201 21.329 13.8941 21.044 13.6631Z"
      fill="#A1A1AA" />
    <path fill-rule="evenodd" clip-rule="evenodd"
      d="M16.267 14.0841C16.267 14.4981 15.931 14.8341 15.517 14.8341C15.103 14.8341 14.767 14.4981 14.767 14.0841V9.91612C14.767 9.50212 15.103 9.16612 15.517 9.16612C15.931 9.16612 16.267 9.50212 16.267 9.91612V14.0841ZM12.579 13.3391C12.316 13.6611 11.841 13.7041 11.523 13.4411L10.095 12.2631V14.5001H11.029C11.443 14.5001 11.779 14.8361 11.779 15.2501C11.779 15.6641 11.443 16.0001 11.029 16.0001H7.663C7.248 16.0001 6.913 15.6641 6.913 15.2501C6.913 14.8361 7.248 14.5001 7.663 14.5001H8.595V12.2631L7.168 13.4411C7.029 13.5561 6.86 13.6121 6.691 13.6121C6.475 13.6121 6.261 13.5201 6.113 13.3401C5.849 13.0201 5.894 12.5471 6.213 12.2841L8.595 10.3181V8.75012C8.595 8.33612 8.931 8.00012 9.345 8.00012C9.759 8.00012 10.095 8.33612 10.095 8.75012V10.3181L12.478 12.2841C12.797 12.5471 12.842 13.0201 12.579 13.3391ZM21.044 13.6631C20.954 13.5901 20.814 13.5161 20.291 13.2411C19.821 12.9931 19.539 12.5281 19.539 11.9981C19.539 11.4691 19.82 11.0061 20.346 10.7301C20.838 10.4721 20.957 10.4091 21.047 10.3371C21.329 10.1091 21.405 9.98312 21.477 9.62512C21.495 9.53912 21.5 9.39613 21.5 9.10913C21.5 7.97913 21.5 7.41112 21.353 6.90013C20.994 5.66413 20.04 4.71113 18.803 4.35113C18.292 4.20312 17.725 4.20312 16.594 4.20312H16.267V7.30312C16.267 7.71712 15.931 8.05312 15.517 8.05312C15.103 8.05312 14.767 7.71712 14.767 7.30312V4.20312H7.408C6.279 4.20312 5.712 4.20312 5.203 4.35113C3.963 4.71012 3.009 5.66513 2.65 6.90613C2.502 7.41813 2.503 7.98312 2.504 9.11212C2.509 10.3271 2.506 11.5301 2.503 12.7311L2.5 14.8971C2.5 16.0221 2.5 16.5871 2.647 17.0961C3.005 18.3371 3.96 19.2921 5.203 19.6511C5.71 19.7981 6.276 19.7981 7.402 19.7981H14.767V16.6971C14.767 16.2831 15.103 15.9471 15.517 15.9471C15.931 15.9471 16.267 16.2831 16.267 16.6971V19.7981H16.594C17.724 19.7981 18.291 19.7981 18.803 19.6491C20.04 19.2901 20.994 18.3371 21.352 17.1011C21.501 16.5871 21.5 16.0211 21.499 14.8921C21.499 14.6091 21.494 14.4681 21.477 14.3751C21.405 14.0201 21.329 13.8941 21.044 13.6631Z"
      fill="#A1A1AA" />
  </symbol>

    <symbol id="icon-online-checkin-white" viewBox="0 0 24 24" fill="currentColor">
    <path fill-rule="evenodd" clip-rule="evenodd"
      d="M16.267 14.0841C16.267 14.4981 15.931 14.8341 15.517 14.8341C15.103 14.8341 14.767 14.4981 14.767 14.0841V9.91612C14.767 9.50212 15.103 9.16612 15.517 9.16612C15.931 9.16612 16.267 9.50212 16.267 9.91612V14.0841ZM12.579 13.3391C12.316 13.6611 11.841 13.7041 11.523 13.4411L10.095 12.2631V14.5001H11.029C11.443 14.5001 11.779 14.8361 11.779 15.2501C11.779 15.6641 11.443 16.0001 11.029 16.0001H7.663C7.248 16.0001 6.913 15.6641 6.913 15.2501C6.913 14.8361 7.248 14.5001 7.663 14.5001H8.595V12.2631L7.168 13.4411C7.029 13.5561 6.86 13.6121 6.691 13.6121C6.475 13.6121 6.261 13.5201 6.113 13.3401C5.849 13.0201 5.894 12.5471 6.213 12.2841L8.595 10.3181V8.75012C8.595 8.33612 8.931 8.00012 9.345 8.00012C9.759 8.00012 10.095 8.33612 10.095 8.75012V10.3181L12.478 12.2841C12.797 12.5471 12.842 13.0201 12.579 13.3391ZM21.044 13.6631C20.954 13.5901 20.814 13.5161 20.291 13.2411C19.821 12.9931 19.539 12.5281 19.539 11.9981C19.539 11.4691 19.82 11.0061 20.346 10.7301C20.838 10.4721 20.957 10.4091 21.047 10.3371C21.329 10.1091 21.405 9.98312 21.477 9.62512C21.495 9.53912 21.5 9.39613 21.5 9.10913C21.5 7.97913 21.5 7.41112 21.353 6.90013C20.994 5.66413 20.04 4.71113 18.803 4.35113C18.292 4.20312 17.725 4.20312 16.594 4.20312H16.267V7.30312C16.267 7.71712 15.931 8.05312 15.517 8.05312C15.103 8.05312 14.767 7.71712 14.767 7.30312V4.20312H7.408C6.279 4.20312 5.712 4.20312 5.203 4.35113C3.963 4.71012 3.009 5.66513 2.65 6.90613C2.502 7.41813 2.503 7.98312 2.504 9.11212C2.509 10.3271 2.506 11.5301 2.503 12.7311L2.5 14.8971C2.5 16.0221 2.5 16.5871 2.647 17.0961C3.005 18.3371 3.96 19.2921 5.203 19.6511C5.71 19.7981 6.276 19.7981 7.402 19.7981H14.767V16.6971C14.767 16.2831 15.103 15.9471 15.517 15.9471C15.931 15.9471 16.267 16.2831 16.267 16.6971V19.7981H16.594C17.724 19.7981 18.291 19.7981 18.803 19.6491C20.04 19.2901 20.994 18.3371 21.352 17.1011C21.501 16.5871 21.5 16.0211 21.499 14.8921C21.499 14.6091 21.494 14.4681 21.477 14.3751C21.405 14.0201 21.329 13.8941 21.044 13.6631Z"
      fill="#ffffff" />
    <path fill-rule="evenodd" clip-rule="evenodd"
      d="M16.267 14.0841C16.267 14.4981 15.931 14.8341 15.517 14.8341C15.103 14.8341 14.767 14.4981 14.767 14.0841V9.91612C14.767 9.50212 15.103 9.16612 15.517 9.16612C15.931 9.16612 16.267 9.50212 16.267 9.91612V14.0841ZM12.579 13.3391C12.316 13.6611 11.841 13.7041 11.523 13.4411L10.095 12.2631V14.5001H11.029C11.443 14.5001 11.779 14.8361 11.779 15.2501C11.779 15.6641 11.443 16.0001 11.029 16.0001H7.663C7.248 16.0001 6.913 15.6641 6.913 15.2501C6.913 14.8361 7.248 14.5001 7.663 14.5001H8.595V12.2631L7.168 13.4411C7.029 13.5561 6.86 13.6121 6.691 13.6121C6.475 13.6121 6.261 13.5201 6.113 13.3401C5.849 13.0201 5.894 12.5471 6.213 12.2841L8.595 10.3181V8.75012C8.595 8.33612 8.931 8.00012 9.345 8.00012C9.759 8.00012 10.095 8.33612 10.095 8.75012V10.3181L12.478 12.2841C12.797 12.5471 12.842 13.0201 12.579 13.3391ZM21.044 13.6631C20.954 13.5901 20.814 13.5161 20.291 13.2411C19.821 12.9931 19.539 12.5281 19.539 11.9981C19.539 11.4691 19.82 11.0061 20.346 10.7301C20.838 10.4721 20.957 10.4091 21.047 10.3371C21.329 10.1091 21.405 9.98312 21.477 9.62512C21.495 9.53912 21.5 9.39613 21.5 9.10913C21.5 7.97913 21.5 7.41112 21.353 6.90013C20.994 5.66413 20.04 4.71113 18.803 4.35113C18.292 4.20312 17.725 4.20312 16.594 4.20312H16.267V7.30312C16.267 7.71712 15.931 8.05312 15.517 8.05312C15.103 8.05312 14.767 7.71712 14.767 7.30312V4.20312H7.408C6.279 4.20312 5.712 4.20312 5.203 4.35113C3.963 4.71012 3.009 5.66513 2.65 6.90613C2.502 7.41813 2.503 7.98312 2.504 9.11212C2.509 10.3271 2.506 11.5301 2.503 12.7311L2.5 14.8971C2.5 16.0221 2.5 16.5871 2.647 17.0961C3.005 18.3371 3.96 19.2921 5.203 19.6511C5.71 19.7981 6.276 19.7981 7.402 19.7981H14.767V16.6971C14.767 16.2831 15.103 15.9471 15.517 15.9471C15.931 15.9471 16.267 16.2831 16.267 16.6971V19.7981H16.594C17.724 19.7981 18.291 19.7981 18.803 19.6491C20.04 19.2901 20.994 18.3371 21.352 17.1011C21.501 16.5871 21.5 16.0211 21.499 14.8921C21.499 14.6091 21.494 14.4681 21.477 14.3751C21.405 14.0201 21.329 13.8941 21.044 13.6631Z"
      fill="#ffffff" />
  </symbol>


  <symbol id="icon-gray-airplane-line" viewBox="0 0 166 36" fill="none">

    <path
      d="M165.667 17.9971C165.665 16.5243 164.471 15.3317 162.998 15.3333C161.525 15.3349 160.332 16.5301 160.333 18.0029C160.335 19.4757 161.529 20.6683 163.002 20.6667C164.475 20.6651 165.668 19.4699 165.667 17.9971ZM5.66668 18.1709C5.66551 16.6982 4.47065 15.5056 2.99789 15.5072C1.52513 15.5088 0.33217 16.704 0.333338 18.1767C0.334506 19.6495 1.52936 20.8421 3.00212 20.8405C4.47488 20.8389 5.66785 19.6437 5.66668 18.1709ZM163 17.5L162 17.5011L162 18.5011L163 18.5L163 17.5ZM160 17.5033L158 17.5054L158 18.5054L160 18.5033L160 17.5033ZM156 17.5076L154 17.5098L154 18.5098L156 18.5076L156 17.5076ZM152 17.512L150 17.5141L150 18.5141L152 18.512L152 17.512ZM148 17.5163L146 17.5185L146 18.5185L148 18.5163L148 17.5163ZM144 17.5206L142 17.5228L142 18.5228L144 18.5206L144 17.5206ZM140 17.525L138 17.5272L138 18.5272L140 18.525L140 17.525ZM136 17.5293L134 17.5315L134 18.5315L136 18.5293L136 17.5293ZM132 17.5337L130 17.5359L130 18.5359L132 18.5337L132 17.5337ZM128 17.538L126 17.5402L126 18.5402L128 18.538L128 17.538ZM124 17.5424L122 17.5445L122 18.5445L124 18.5424L124 17.5424ZM120 17.5467L118 17.5489L118 18.5489L120 18.5467L120 17.5467ZM116 17.5511L114 17.5532L114 18.5532L116 18.5511L116 17.5511ZM112 17.5554L110 17.5576L110 18.5576L112 18.5554L112 17.5554ZM108 17.5598L106 17.5619L106 18.5619L108 18.5598L108 17.5598ZM104 17.5641L102 17.5663L102 18.5663L104 18.5641L104 17.5641ZM99.9996 17.5684L97.9996 17.5706L98.0004 18.5706L100 18.5684L99.9996 17.5684ZM95.9996 17.5728L93.9996 17.575L94.0004 18.575L96.0004 18.5728L95.9996 17.5728ZM91.9996 17.5771L89.9996 17.5793L90.0004 18.5793L92.0004 18.5771L91.9996 17.5771ZM87.9996 17.5815L85.9996 17.5837L86.0004 18.5837L88.0004 18.5815L87.9996 17.5815ZM83.9996 17.5858L81.9996 17.588L82.0004 18.588L84.0004 18.5858L83.9996 17.5858ZM79.9996 17.5902L77.9996 17.5923L78.0004 18.5923L80.0004 18.5902L79.9996 17.5902ZM75.9996 17.5945L73.9996 17.5967L74.0004 18.5967L76.0004 18.5945L75.9996 17.5945ZM71.9996 17.5989L69.9996 17.601L70.0004 18.601L72.0004 18.5989L71.9996 17.5989ZM67.9996 17.6032L65.9996 17.6054L66.0004 18.6054L68.0004 18.6032L67.9996 17.6032ZM63.9996 17.6076L61.9996 17.6097L62.0004 18.6097L64.0004 18.6076L63.9996 17.6076ZM59.9996 17.6119L57.9996 17.6141L58.0004 18.6141L60.0004 18.6119L59.9996 17.6119ZM55.9996 17.6162L53.9997 17.6184L54.0004 18.6184L56.0004 18.6162L55.9996 17.6162ZM51.9997 17.6206L49.9997 17.6228L50.0004 18.6228L52.0004 18.6206L51.9997 17.6206ZM47.9997 17.6249L45.9997 17.6271L46.0004 18.6271L48.0004 18.6249L47.9997 17.6249ZM43.9997 17.6293L41.9997 17.6315L42.0005 18.6315L44.0005 18.6293L43.9997 17.6293ZM39.9997 17.6336L37.9997 17.6358L38.0005 18.6358L40.0005 18.6336L39.9997 17.6336ZM35.9997 17.638L33.9997 17.6401L34.0005 18.6401L36.0004 18.638L35.9997 17.638ZM31.9997 17.6423L29.9997 17.6445L30.0005 18.6445L32.0005 18.6423L31.9997 17.6423ZM27.9997 17.6467L25.9997 17.6488L26.0005 18.6488L28.0005 18.6467L27.9997 17.6467ZM23.9997 17.651L21.9997 17.6532L22.0005 18.6532L24.0005 18.651L23.9997 17.651ZM19.9997 17.6554L17.9997 17.6575L18.0005 18.6575L20.0005 18.6554L19.9997 17.6554ZM15.9997 17.6597L13.9997 17.6619L14.0005 18.6619L16.0005 18.6597L15.9997 17.6597ZM11.9997 17.6641L9.99968 17.6662L10.0005 18.6662L12.0005 18.6641L11.9997 17.6641ZM7.99968 17.6684L5.99969 17.6706L6.00048 18.6706L8.00048 18.6684L7.99968 17.6684ZM3.99969 17.6727L2.99961 17.6738L3.0004 18.6738L4.00048 18.6727L3.99969 17.6727Z"
      fill="#A1A1AA" />
  </symbol>

  <symbol id="icon-gray-airplane-line-desktop" viewBox="0 0 248 36" fill="none">
            <path d="M247.667 17.9981C247.665 16.5253 246.47 15.3323 244.997 15.3333C243.524 15.3344 242.332 16.5292 242.333 18.0019C242.335 19.4747 243.53 20.6677 245.003 20.6667C246.476 20.6656 247.668 19.4708 247.667 17.9981ZM5.66666 18.1719C5.6649 16.6992 4.46956 15.5061 2.99679 15.5072C1.52403 15.5082 0.331557 16.703 0.333324 18.1757C0.33509 19.6485 1.53043 20.8416 3.00319 20.8405C4.47596 20.8394 5.66843 19.6447 5.66666 18.1719ZM244.999 17.5L244.008 17.5007L244.009 18.5007L245.001 18.5L244.999 17.5ZM242.024 17.5021L240.04 17.5036L240.042 18.5036L242.025 18.5021L242.024 17.5021ZM238.057 17.505L236.073 17.5064L236.074 18.5064L238.058 18.505L238.057 17.505ZM234.09 17.5078L232.106 17.5093L232.107 18.5093L234.091 18.5078L234.09 17.5078ZM230.122 17.5107L228.139 17.5121L228.14 18.5121L230.124 18.5107L230.122 17.5107ZM226.155 17.5135L224.172 17.515L224.173 18.515L226.156 18.5135L226.155 17.5135ZM222.188 17.5164L220.204 17.5178L220.206 18.5178L222.189 18.5164L222.188 17.5164ZM218.221 17.5192L216.237 17.5207L216.238 18.5207L218.222 18.5192L218.221 17.5192ZM214.253 17.5221L212.27 17.5235L212.271 18.5235L214.255 18.5221L214.253 17.5221ZM210.286 17.5249L208.303 17.5264L208.304 18.5264L210.287 18.5249L210.286 17.5249ZM206.319 17.5278L204.335 17.5292L204.337 18.5292L206.32 18.5278L206.319 17.5278ZM202.352 17.5306L200.368 17.5321L200.369 18.5321L202.353 18.5306L202.352 17.5306ZM198.385 17.5335L196.401 17.5349L196.402 18.5349L198.386 18.5335L198.385 17.5335ZM194.417 17.5363L192.434 17.5378L192.435 18.5378L194.419 18.5363L194.417 17.5363ZM190.45 17.5392L188.467 17.5406L188.468 18.5406L190.451 18.5392L190.45 17.5392ZM186.483 17.542L184.499 17.5435L184.501 18.5435L186.484 18.542L186.483 17.542ZM182.516 17.5449L180.532 17.5463L180.533 18.5463L182.517 18.5449L182.516 17.5449ZM178.549 17.5477L176.565 17.5492L176.566 18.5492L178.55 18.5477L178.549 17.5477ZM174.581 17.5506L172.598 17.552L172.599 18.552L174.583 18.5506L174.581 17.5506ZM170.614 17.5534L168.631 17.5549L168.632 18.5549L170.615 18.5534L170.614 17.5534ZM166.647 17.5563L164.663 17.5577L164.665 18.5577L166.648 18.5563L166.647 17.5563ZM162.68 17.5591L160.696 17.5606L160.697 18.5606L162.681 18.5591L162.68 17.5591ZM158.713 17.562L156.729 17.5634L156.73 18.5634L158.714 18.562L158.713 17.562ZM154.745 17.5648L152.762 17.5663L152.763 18.5663L154.747 18.5648L154.745 17.5648ZM150.778 17.5677L148.795 17.5691L148.796 18.5691L150.779 18.5677L150.778 17.5677ZM146.811 17.5705L144.827 17.572L144.829 18.572L146.812 18.5705L146.811 17.5705ZM142.844 17.5734L140.86 17.5748L140.861 18.5748L142.845 18.5734L142.844 17.5734ZM138.876 17.5762L136.893 17.5777L136.894 18.5777L138.878 18.5762L138.876 17.5762ZM134.909 17.5791L132.926 17.5805L132.927 18.5805L134.91 18.5791L134.909 17.5791ZM130.942 17.5819L128.958 17.5834L128.96 18.5834L130.943 18.5819L130.942 17.5819ZM126.975 17.5848L124.991 17.5862L124.992 18.5862L126.976 18.5848L126.975 17.5848ZM123.008 17.5876L121.024 17.5891L121.025 18.5891L123.009 18.5876L123.008 17.5876ZM119.04 17.5905L117.057 17.5919L117.058 18.5919L119.042 18.5905L119.04 17.5905ZM115.073 17.5933L113.09 17.5948L113.091 18.5948L115.074 18.5933L115.073 17.5933ZM111.106 17.5962L109.122 17.5976L109.124 18.5976L111.107 18.5962L111.106 17.5962ZM107.139 17.599L105.155 17.6005L105.156 18.6004L107.14 18.599L107.139 17.599ZM103.172 17.6019L101.188 17.6033L101.189 18.6033L103.173 18.6019L103.172 17.6019ZM99.2044 17.6047L97.2207 17.6061L97.2219 18.6061L99.2056 18.6047L99.2044 17.6047ZM95.2371 17.6076L93.2535 17.609L93.2547 18.609L95.2383 18.6076L95.2371 17.6076ZM91.2699 17.6104L89.2863 17.6118L89.2875 18.6118L91.2711 18.6104L91.2699 17.6104ZM87.3027 17.6133L85.3191 17.6147L85.3203 18.6147L87.3039 18.6133L87.3027 17.6133ZM83.3355 17.6161L81.3519 17.6175L81.3531 18.6175L83.3367 18.6161L83.3355 17.6161ZM79.3682 17.619L77.3846 17.6204L77.3858 18.6204L79.3694 18.619L79.3682 17.619ZM75.401 17.6218L73.4174 17.6232L73.4186 18.6232L75.4022 18.6218L75.401 17.6218ZM71.4338 17.6247L69.4502 17.6261L69.4514 18.6261L71.435 18.6247L71.4338 17.6247ZM67.4666 17.6275L65.483 17.6289L65.4842 18.6289L67.4678 18.6275L67.4666 17.6275ZM63.4994 17.6304L61.5157 17.6318L61.5169 18.6318L63.5006 18.6304L63.4994 17.6304ZM59.5321 17.6332L57.5485 17.6346L57.5497 18.6346L59.5333 18.6332L59.5321 17.6332ZM55.5649 17.6361L53.5813 17.6375L53.5825 18.6375L55.5661 18.6361L55.5649 17.6361ZM51.5977 17.6389L49.6141 17.6403L49.6153 18.6403L51.5989 18.6389L51.5977 17.6389ZM47.6305 17.6418L45.6469 17.6432L45.6481 18.6432L47.6317 18.6418L47.6305 17.6418ZM43.6632 17.6446L41.6796 17.646L41.6808 18.646L43.6644 18.6446L43.6632 17.6446ZM39.696 17.6475L37.7124 17.6489L37.7136 18.6489L39.6972 18.6475L39.696 17.6475ZM35.7288 17.6503L33.7452 17.6517L33.7464 18.6517L35.73 18.6503L35.7288 17.6503ZM31.7616 17.6532L29.778 17.6546L29.7792 18.6546L31.7628 18.6532L31.7616 17.6532ZM27.7944 17.656L25.8107 17.6574L25.8119 18.6574L27.7956 18.656L27.7944 17.656ZM23.8271 17.6589L21.8435 17.6603L21.8447 18.6603L23.8283 18.6589L23.8271 17.6589ZM19.8599 17.6617L17.8763 17.6631L17.8775 18.6631L19.8611 18.6617L19.8599 17.6617ZM15.8927 17.6646L13.9091 17.666L13.9103 18.666L15.8939 18.6646L15.8927 17.6646ZM11.9255 17.6674L9.94185 17.6688L9.94305 18.6688L11.9267 18.6674L11.9255 17.6674ZM7.95824 17.6703L5.97463 17.6717L5.97583 18.6717L7.95944 18.6703L7.95824 17.6703ZM3.99102 17.6731L2.99939 17.6738L3.00059 18.6738L3.99222 18.6731L3.99102 17.6731Z" fill="#A1A1AA"/>
  </symbol>

  <symbol id="icon-gray-airplane" viewBox="0 0 24 25" fill="none">
    <g clip-path="url(#clip0_395_330)">
      <path fill-rule="evenodd" clip-rule="evenodd"
        d="M22.0507 8.75092L19.9873 8.74951C19.8381 8.75022 19.6981 8.81386 19.6005 8.93265L18.0088 10.8694L15.2532 10.6156L15.2037 4.41706C15.2023 4.2813 15.145 4.15048 15.046 4.05714C14.9463 3.96309 14.8127 3.91431 14.6762 3.92209C14.4641 3.9334 14.2562 3.93905 14.0511 3.94612C13.5286 3.96238 13.035 3.97795 12.5337 4.06492C11.7007 4.20351 11.0431 4.76213 10.5821 5.72379C9.90255 7.11326 9.10776 8.75657 8.35681 10.4154C8.25498 10.6332 8.22105 10.6474 7.99124 10.6396L7.79042 10.6368C6.66046 10.624 5.49374 10.6099 4.33761 10.6686C2.7042 10.7563 0.947742 11.6387 0.952692 13.3733C0.955528 15.1 2.71057 15.9853 4.34328 16.0765C5.58566 16.1366 6.82876 16.1239 7.99832 16.1055C8.22813 16.1006 8.2649 16.1232 8.35823 16.3297C9.09716 17.9638 9.89478 19.61 10.5828 21.0235C11.0537 21.9979 11.6915 22.5409 12.5358 22.6852C13.0428 22.7693 13.5632 22.7849 14.0667 22.8018C14.2682 22.8082 14.4712 22.8146 14.6769 22.8252C14.8134 22.8315 14.9471 22.7828 15.0461 22.6894C15.1387 22.594 15.2016 22.4646 15.203 22.3288C15.2151 20.5066 15.2412 17.3013 15.2518 16.1239L18.0102 15.8573L19.5977 17.8111C19.6932 17.9278 19.8353 17.9949 19.9859 17.9956L22.0485 17.9978C22.1815 17.9978 22.3095 17.9447 22.4028 17.8514C22.4169 17.8372 22.4304 17.8224 22.4431 17.8054C22.5371 17.6845 22.5711 17.5261 22.5343 17.3762L21.5373 13.3768L22.535 9.37247C22.5732 9.22256 22.5393 9.06417 22.4445 8.94396C22.3498 8.82234 22.2041 8.75163 22.0507 8.75092Z"
        fill="#808080" />
    </g>
    <defs>
      <clipPath id="clip0_395_330">
        <rect width="24" height="25" fill="white" />
      </clipPath>
    </defs>
  </symbol>

  <symbol id="icon-first-services" viewBox="0 0 42 42" fill="currentColor">
    <path fill-rule="evenodd" clip-rule="evenodd"
      d="M27.4067 32.7679H14.5985C13.874 32.7679 13.286 32.1799 13.286 31.4554C13.286 30.7309 13.874 30.1429 14.5985 30.1429H27.4067C28.1313 30.1429 28.7192 30.7309 28.7192 31.4554C28.7192 32.1799 28.1313 32.7679 27.4067 32.7679ZM16.4325 24.2664H25.5728C26.2973 24.2664 26.8853 24.8544 26.8853 25.5789C26.8853 26.3034 26.2973 26.8914 25.5728 26.8914H16.4325C15.7063 26.8914 15.12 26.3034 15.12 25.5789C15.12 24.8544 15.7063 24.2664 16.4325 24.2664ZM27.9522 9.54504C27.8567 9.5424 27.7683 9.59575 27.733 9.68464C27.6918 9.78803 27.7076 9.9104 27.7809 9.99402C28.7709 11.1216 29.3387 12.5889 29.3387 14.1111C29.3387 16.694 27.2668 18.5449 24.8171 18.6965C24.6339 18.7079 24.483 18.8491 24.4529 19.0302C24.1782 20.6887 22.7367 21.9529 21 21.9529C19.2633 21.9529 17.8218 20.6887 17.5471 19.0302C17.517 18.8491 17.3661 18.7079 17.1828 18.6965C14.7338 18.5448 12.663 16.6927 12.663 14.1111C12.663 12.5887 13.231 11.1195 14.2213 9.99178C14.2944 9.90846 14.3101 9.78719 14.269 9.68422C14.2334 9.59511 14.1447 9.54065 14.0488 9.54331C9.16786 9.67799 5.90625 13.1744 5.90625 18.3444V29.0281C5.90625 34.3009 9.2925 37.8446 14.3342 37.8446H27.6605C32.704 37.8446 36.0938 34.3009 36.0938 29.0281V18.3444C36.0938 13.1759 32.8319 9.67944 27.9522 9.54504Z"
      fill="#FB8901" />
    <path fill-rule="evenodd" clip-rule="evenodd"
      d="M17.9781 13.0285C19.3851 12.2428 19.6511 11.709 19.7368 11.5375C20.1201 10.7763 20.0623 9.48826 19.7736 8.81801C19.7106 8.66226 19.5146 8.19326 18.5626 7.49501C18.4436 7.37951 18.4033 7.19576 18.4628 7.04701C18.5276 6.88601 18.6798 6.78101 18.8513 6.78101H23.1476C23.3173 6.78101 23.4731 6.88601 23.5343 7.04176L23.5361 7.04701C23.5973 7.19926 23.5571 7.37951 23.5641 7.38651C22.4896 8.19151 22.2918 8.65701 22.2271 8.81101C21.9383 9.49001 21.8806 10.7745 22.2621 11.534C22.3513 11.7125 22.6173 12.2445 24.0208 13.0285C24.2833 13.2473 24.4548 13.557 24.5073 13.893H17.4933C17.5458 13.5588 17.7191 13.2473 17.9781 13.0285ZM17.2623 16.518H19.6878V18.4518C19.6878 19.1763 20.2741 19.7643 21.0003 19.7643C21.7248 19.7643 22.3128 19.1763 22.3128 18.4518V16.518H24.7383C26.0683 16.518 27.1498 15.4383 27.1498 14.11C27.1498 12.8465 26.5461 11.6408 25.5363 10.8813C25.4873 10.8445 25.4348 10.8095 25.3788 10.7798C25.1093 10.6328 24.7996 10.4333 24.6228 10.2985C24.6158 10.176 24.6193 10.0203 24.6298 9.91701C24.7523 9.79801 24.9833 9.60201 25.2633 9.38151C26.1541 8.52051 26.4323 7.22376 25.9738 6.07401C25.5136 4.90851 24.4041 4.15601 23.1476 4.15601H18.8513C17.6001 4.15601 16.4906 4.90851 16.0251 6.07751C15.5701 7.22726 15.8501 8.52401 16.8616 9.48826C17.0418 9.62301 17.2483 9.79801 17.3656 9.91176C17.3813 10.0325 17.3883 10.1935 17.3901 10.2898C17.2151 10.4228 16.8966 10.6275 16.6201 10.7798C16.5641 10.8095 16.5116 10.8445 16.4608 10.883C15.4528 11.6425 14.8508 12.8483 14.8508 14.11C14.8508 15.4383 15.9323 16.518 17.2623 16.518Z"
      fill="#FB8901" />

  </symbol>

  <symbol id="icon-two-services" viewBox="0 0 42 44" fill="currentColor">
    <path fill-rule="evenodd" clip-rule="evenodd"
      d="M27.2022 25.1208H19.2695C19.413 26.2653 20.1987 27.2946 21.394 27.7534C22.703 28.2454 24.3987 28.0308 25.811 27.1917C26.4305 26.8218 27.2372 27.0207 27.61 27.6418C27.9827 28.2629 27.7815 29.0654 27.1585 29.437C25.846 30.2186 24.3427 30.6233 22.8972 30.6233C22.0467 30.6233 21.2172 30.4838 20.4577 30.1976C18.0655 29.2782 16.5115 27.0347 16.585 24.6096C16.634 22.7726 17.6035 21.007 19.175 19.8852C19.763 19.4648 20.5855 19.6026 21.0055 20.1888C21.4272 20.7767 21.2907 21.5949 20.701 22.0154C20.498 22.1602 20.3195 22.3277 20.1532 22.5039H25.881C25.6465 20.276 24.2342 18.1057 21.6407 17.7829C20.3772 17.6347 19.0402 18.0272 17.971 18.8699C16.9105 19.7055 16.2175 20.8988 16.0722 22.148C15.9882 22.8633 15.332 23.3779 14.618 23.2959C13.897 23.2122 13.3807 22.5632 13.4647 21.8444C13.6905 19.9114 14.7405 18.0778 16.3452 16.8147C17.9605 15.5481 20.0115 14.9689 21.9592 15.1852C26.0787 15.6981 28.8927 19.4526 28.5095 23.9223C28.4517 24.6009 27.8847 25.1208 27.2022 25.1208ZM28.38 6.31384H13.6187C8.09049 6.31384 4.37524 10.1904 4.37524 15.9616V29.8121C4.37524 35.5833 8.09049 39.4616 13.6187 39.4616H28.3782C33.91 39.4616 37.6252 35.5833 37.6252 29.8121V15.9616C37.6252 10.1904 33.91 6.31384 28.38 6.31384Z"
      fill="#FB8901" />
  </symbol>

  <symbol id="icon-three-services" viewBox="0 0 42 44" fill="currentColor">
    <path fill-rule="evenodd" clip-rule="evenodd"
      d="M19.2046 9.13047H22.8043C23.6723 9.13047 24.3636 9.77773 24.4913 10.6047H17.5158C17.6436 9.77773 18.3348 9.13047 19.2046 9.13047ZM25.8826 13.2216H26.6176C27.3001 13.2216 27.9301 13.3106 28.5076 13.4658V37.6985C27.9301 37.8381 27.3001 37.9078 26.6176 37.9078H25.8826V13.2216ZM13.4925 13.4658C14.07 13.3106 14.7 13.2216 15.3825 13.2216H16.1175V37.9078H15.3825C14.7 37.9078 14.07 37.8381 13.4925 37.6985V13.4658ZM27.1601 10.6221H27.1426C27.0183 8.33842 25.1301 6.51355 22.8043 6.51355H19.2046C16.8788 6.51355 14.9888 8.33842 14.8628 10.6221H14.84C10.1675 10.8489 6.94751 14.0939 6.94751 18.6665V32.4646C6.94751 37.299 10.3425 40.5248 15.3825 40.5248H26.6176C31.6576 40.5248 35.0526 37.299 35.0526 32.4646V18.6665C35.0526 14.0939 31.8326 10.8489 27.1601 10.6221Z"
      fill="#FB8901" />
  </symbol>

  <symbol id="icon-four-services" viewBox="0 0 42 42" fill="currentColor">
    <path fill-rule="evenodd" clip-rule="evenodd"
      d="M26.7916 22.073H15.2048C14.4803 22.073 13.8923 21.485 13.8923 20.7605C13.8923 20.036 14.4803 19.448 15.2048 19.448H26.7916C27.5161 19.448 28.1041 20.036 28.1041 20.7605C28.1041 21.485 27.5161 22.073 26.7916 22.073ZM26.7916 29.171H15.2048C14.4803 29.171 13.8923 28.583 13.8923 27.8585C13.8923 27.134 14.4803 26.546 15.2048 26.546H26.7916C27.5161 26.546 28.1041 27.134 28.1041 27.8585C28.1041 28.583 27.5161 29.171 26.7916 29.171ZM15.2066 12.3657H19.6271C20.3516 12.3657 20.9396 12.9537 20.9396 13.6782C20.9396 14.4027 20.3516 14.9907 19.6271 14.9907H15.2066C14.4821 14.9907 13.8941 14.4027 13.8941 13.6782C13.8941 12.9537 14.4821 12.3657 15.2066 12.3657ZM28.0638 4.37524H13.9343C9.47708 4.37524 5.85107 8.00124 5.85107 12.4602V29.5402C5.85107 33.9975 9.47708 37.6252 13.9343 37.6252H28.0638C32.5211 37.6252 36.1488 33.9975 36.1488 29.5402V12.4602C36.1488 8.00124 32.5211 4.37524 28.0638 4.37524Z"
      fill="#FB8901" />
  </symbol>

  <symbol id="icon-five-services" viewBox="0 0 42 42" fill="currentColor">
    <path fill-rule="evenodd" clip-rule="evenodd"
      d="M20.0832 25.859C19.9327 25.915 19.777 25.9413 19.6247 25.9413C19.0927 25.9413 18.5922 25.6158 18.3945 25.089L17.2622 22.0545L15.304 25.446L16.718 26.2615C17.3462 26.6238 17.5597 27.427 17.1975 28.0535C16.9542 28.4753 16.5132 28.7098 16.06 28.7098C15.8377 28.7098 15.612 28.6538 15.4055 28.5348L10.3042 25.5895C9.67599 25.2273 9.46074 24.424 9.82299 23.7958C10.1852 23.1675 10.9885 22.9523 11.6167 23.3163L13.0307 24.1335L14.989 20.742L11.7935 21.2775C11.069 21.3878 10.4022 20.9135 10.2815 20.1995C10.1625 19.4838 10.6437 18.8083 11.3595 18.6875L16.69 17.795L18.062 15.4186C18.4242 14.7903 19.2292 14.5751 19.8557 14.9391C20.484 15.3013 20.6975 16.1028 20.3352 16.7311L18.9632 19.1075L20.8532 24.1703C21.107 24.8493 20.7622 25.6053 20.0832 25.859ZM31.6017 25.5248C30.8772 25.5248 30.2892 24.9368 30.2892 24.2123C30.2892 23.4878 30.8772 22.8998 31.6017 22.8998H37.6252V19.1268H28.0755C27.351 19.1268 26.763 18.5388 26.763 17.8143C26.763 17.0898 27.351 16.5018 28.0755 16.5018H37.6252V16.2393C37.6252 14.6031 37.6252 13.7841 37.466 13.0368C36.8745 10.2823 34.7115 8.11934 31.957 7.52784C31.2132 7.36859 30.3907 7.36859 28.7545 7.36859C28.3222 7.36859 28.107 7.37384 27.974 7.39134C27.2022 7.50684 26.9362 7.66784 26.476 8.29434C26.4112 8.38009 26.217 8.72834 25.7847 9.54209C25.3332 10.3943 24.4897 10.9018 23.5272 10.9018C22.465 10.9018 21.5585 10.2841 21.1595 9.28659C20.7832 8.34509 20.6117 7.91459 20.211 7.63984C19.8102 7.36859 19.3885 7.36859 18.6867 7.36859H17.852C11.678 7.36859 8.57874 7.36859 6.47699 9.47034C4.37524 11.5721 4.37524 14.6696 4.37524 20.8435V21.1568C4.37524 27.3308 4.37524 30.4283 6.47699 32.53C8.57874 34.6318 11.678 34.6318 17.852 34.6318H18.685C19.385 34.6318 19.805 34.6318 20.204 34.3623C20.603 34.0945 20.7762 33.6658 21.156 32.7208C21.5515 31.7373 22.4825 31.102 23.6025 31.102C24.502 31.1335 25.3035 31.6235 25.7567 32.4443C26.2012 33.2475 26.4305 33.6465 26.4935 33.7288C26.9747 34.364 27.197 34.497 27.974 34.6073C28.0947 34.6248 28.3187 34.6318 28.765 34.6318C30.3925 34.6318 31.208 34.6318 31.9465 34.4725C34.7115 33.8828 36.878 31.718 37.4695 28.953C37.6252 28.2128 37.6252 27.3955 37.6252 25.7698V25.5248H31.6017Z"
      fill="#FB8901" />
    <path fill-rule="evenodd" clip-rule="evenodd"
      d="M20.0832 25.859C19.9327 25.915 19.777 25.9413 19.6247 25.9413C19.0927 25.9413 18.5922 25.6158 18.3945 25.089L17.2622 22.0545L15.304 25.446L16.718 26.2615C17.3462 26.6238 17.5597 27.427 17.1975 28.0535C16.9542 28.4753 16.5132 28.7098 16.06 28.7098C15.8377 28.7098 15.612 28.6538 15.4055 28.5348L10.3042 25.5895C9.67599 25.2273 9.46074 24.424 9.82299 23.7958C10.1852 23.1675 10.9885 22.9523 11.6167 23.3163L13.0307 24.1335L14.989 20.742L11.7935 21.2775C11.069 21.3878 10.4022 20.9135 10.2815 20.1995C10.1625 19.4838 10.6437 18.8083 11.3595 18.6875L16.69 17.795L18.062 15.4186C18.4242 14.7903 19.2292 14.5751 19.8557 14.9391C20.484 15.3013 20.6975 16.1028 20.3352 16.7311L18.9632 19.1075L20.8532 24.1703C21.107 24.8493 20.7622 25.6053 20.0832 25.859ZM31.6017 25.5248C30.8772 25.5248 30.2892 24.9368 30.2892 24.2123C30.2892 23.4878 30.8772 22.8998 31.6017 22.8998H37.6252V19.1268H28.0755C27.351 19.1268 26.763 18.5388 26.763 17.8143C26.763 17.0898 27.351 16.5018 28.0755 16.5018H37.6252V16.2393C37.6252 14.6031 37.6252 13.7841 37.466 13.0368C36.8745 10.2823 34.7115 8.11934 31.957 7.52784C31.2132 7.36859 30.3907 7.36859 28.7545 7.36859C28.3222 7.36859 28.107 7.37384 27.974 7.39134C27.2022 7.50684 26.9362 7.66784 26.476 8.29434C26.4112 8.38009 26.217 8.72834 25.7847 9.54209C25.3332 10.3943 24.4897 10.9018 23.5272 10.9018C22.465 10.9018 21.5585 10.2841 21.1595 9.28659C20.7832 8.34509 20.6117 7.91459 20.211 7.63984C19.8102 7.36859 19.3885 7.36859 18.6867 7.36859H17.852C11.678 7.36859 8.57874 7.36859 6.47699 9.47034C4.37524 11.5721 4.37524 14.6696 4.37524 20.8435V21.1568C4.37524 27.3308 4.37524 30.4283 6.47699 32.53C8.57874 34.6318 11.678 34.6318 17.852 34.6318H18.685C19.385 34.6318 19.805 34.6318 20.204 34.3623C20.603 34.0945 20.7762 33.6658 21.156 32.7208C21.5515 31.7373 22.4825 31.102 23.6025 31.102C24.502 31.1335 25.3035 31.6235 25.7567 32.4443C26.2012 33.2475 26.4305 33.6465 26.4935 33.7288C26.9747 34.364 27.197 34.497 27.974 34.6073C28.0947 34.6248 28.3187 34.6318 28.765 34.6318C30.3925 34.6318 31.208 34.6318 31.9465 34.4725C34.7115 33.8828 36.878 31.718 37.4695 28.953C37.6252 28.2128 37.6252 27.3955 37.6252 25.7698V25.5248H31.6017Z"
      fill="#FB8901" />
  </symbol>

  <symbol id="icon-six-services" viewBox="0 0 42 44" fill="currentColor">
    <path fill-rule="evenodd" clip-rule="evenodd"
      d="M15.8287 28.5906C21.9117 26.1621 28.0332 23.608 33.2219 21.429C35.5459 20.4485 37.6897 18.1281 36.9057 15.3525C36.5732 14.1644 35.8504 13.2537 34.8144 12.7181C32.8229 11.6905 30.4167 12.357 29.4664 12.6954C27.8109 13.2938 26.1834 13.9986 24.6102 14.6808L24.1324 14.8884C24.1272 14.8884 24.0922 14.9024 24.0554 14.9181C24.0519 14.9128 24.0467 14.9076 24.0397 14.9024C21.9484 12.9641 19.7207 11.0258 17.9374 9.47311C16.5462 8.24665 15.1025 7.79654 13.622 8.1315C12.824 8.32167 12.0697 8.61127 11.3417 8.8939C11.025 9.01603 10.7065 9.13989 10.3792 9.25504C10.0415 9.37542 9.76671 9.62838 9.62146 9.95637C9.47621 10.2826 9.47096 10.6542 9.60746 10.9857L13.0987 19.4174C12.236 19.782 11.2367 20.206 10.2287 20.6334C9.08946 21.1184 7.94146 21.6069 6.97196 22.0152C6.91246 21.8703 6.85121 21.7221 6.79346 21.5825L6.46096 20.7817C6.18096 20.1153 5.41446 19.8012 4.74421 20.0804C4.07396 20.3595 3.76071 21.1254 4.03896 21.7918L4.36621 22.5804C4.59371 23.13 4.85971 23.772 4.95596 23.997C4.98396 24.0616 5.01196 24.1279 5.03996 24.1924C5.04521 24.2046 5.05221 24.2186 5.05746 24.2326C5.07321 24.2709 5.09071 24.3076 5.10996 24.3442C6.62371 27.6189 9.13146 29.353 12.166 29.353C13.3192 29.353 14.5495 29.1018 15.8287 28.5906Z"
      fill="#FB8901" />
    <path fill-rule="evenodd" clip-rule="evenodd"
      d="M21.4794 35.0865H8.56616C7.84166 35.0865 7.25366 35.6727 7.25366 36.395C7.25366 37.1173 7.84166 37.7035 8.56616 37.7035H21.4794C22.2039 37.7035 22.7919 37.1173 22.7919 36.395C22.7919 35.6727 22.2039 35.0865 21.4794 35.0865Z"
      fill="#FB8901" />
    <path fill-rule="evenodd" clip-rule="evenodd"
      d="M37.6779 28.6314C37.1652 28.1202 36.3339 28.1202 35.8212 28.6314L30.1039 34.3345L27.8044 32.0351C27.2917 31.5222 26.4604 31.5204 25.9477 32.0316C25.4349 32.541 25.4332 33.3697 25.9442 33.8809L29.1729 37.1084C29.4179 37.3544 29.7522 37.494 30.1004 37.494C30.4487 37.494 30.7847 37.3562 31.0297 37.1102L37.6779 30.4824C38.1907 29.9712 38.1907 29.1425 37.6779 28.6314Z"
      fill="#FB8901" />
  </symbol>

  <symbol id="icon-seven-services" viewBox="0 0 42 42" fill="currentColor">

<path d="M15.1663 4.40395C14.6538 3.89139 13.8227 3.89139 13.3102 4.40395C12.7976 4.91652 12.7976 5.74755 13.3102 6.26012C13.6155 6.56543 13.6141 7.0584 13.3111 7.36071C11.9818 8.69008 11.9794 10.8476 13.3111 12.1765C13.8242 12.6886 14.6553 12.6877 15.1673 12.1746C15.6793 11.6615 15.6785 10.8305 15.1654 10.3184C14.8624 10.0161 14.861 9.52315 15.1663 9.21785C16.4971 7.88881 16.4954 5.733 15.1663 4.40395Z" fill="#FB8901"/>
<path d="M32.4693 10.3025C32.9819 9.78997 32.9819 8.95894 32.4693 8.44637C31.9567 7.93381 31.1258 7.93381 30.6132 8.44637C29.2838 9.77574 29.2824 11.9323 30.6141 13.2612C31.1272 13.7733 31.9583 13.7724 32.4703 13.2593C32.9824 12.7462 32.9815 11.9152 32.4684 11.4031C32.1655 11.1008 32.1641 10.6078 32.4693 10.3025Z" fill="#FB8901"/>
<path d="M7.35654 11.4034C6.84398 10.8908 6.01294 10.8908 5.50039 11.4034C4.98783 11.916 4.98783 12.747 5.50039 13.2596C5.80569 13.5649 5.80431 14.0579 5.50135 14.3602C4.98827 14.8722 4.98739 15.7032 5.49942 16.2163C6.01146 16.7294 6.84248 16.7303 7.35558 16.2183C8.68729 14.8893 8.68591 12.7328 7.35654 11.4034Z" fill="#FB8901"/>
<path fill-rule="evenodd" clip-rule="evenodd" d="M20.9993 10.9583C18.9945 10.9583 17.3729 12.5841 17.3729 14.5864V15.7789C10.7455 17.1841 5.77024 22.3498 6.14456 28.5786C6.17233 29.0406 6.55513 29.4011 7.01799 29.4011H34.9824C35.4452 29.4011 35.8281 29.0406 35.8558 28.5784C36.2285 22.3495 31.2528 17.1836 24.6259 15.7787V14.5864C24.6259 12.5835 23.0019 10.9583 20.9993 10.9583ZM22.0009 15.4294V14.5864C22.0009 14.032 21.5509 13.5833 20.9993 13.5833C20.4469 13.5833 19.998 14.0313 19.998 14.5864V15.4294C20.3294 15.4107 20.6637 15.4012 21.0002 15.4012C21.336 15.4012 21.6698 15.4107 22.0009 15.4294Z" fill="#FB8901"/>
<path d="M4.89646 31.6468C5.24998 31.363 5.68302 31.2531 6.1248 31.2531H35.8747C36.3166 31.2531 36.7496 31.363 37.1032 31.6468C37.4573 31.931 37.6352 32.3123 37.7128 32.6727C37.8573 33.345 37.6902 34.1085 37.4889 34.7132C36.9253 36.4038 35.3408 37.5459 33.5581 37.5459H8.44158C6.65873 37.5459 5.07444 36.4044 4.51087 34.7135C4.30962 34.1089 4.14225 33.345 4.28681 32.6727C4.36429 32.3123 4.54238 31.931 4.89646 31.6468Z" fill="#FB8901"/>



  </symbol>

  <symbol id="icon-last-services" viewBox="0 0 42 42" fill="currentColor">
    <path fill-rule="evenodd" clip-rule="evenodd"
      d="M4.44524 30.3006C4.40659 30.3006 4.37524 30.3307 4.37524 30.3678C4.37524 34.8786 7.39574 37.911 11.8915 37.911H30.1055C34.603 37.911 37.6252 34.8786 37.6252 30.3678C37.6252 30.3307 37.5939 30.3006 37.5552 30.3006H4.44524Z"
      fill="#FB8901" />
    <path fill-rule="evenodd" clip-rule="evenodd"
      d="M4.37451 27.4452C4.37451 27.6308 4.53121 27.7812 4.72451 27.7812H37.2745C37.4678 27.7812 37.6245 27.6308 37.6245 27.4452V22.4875C37.6245 22.302 37.4678 22.1515 37.2745 22.1515H4.72451C4.53121 22.1515 4.37451 22.302 4.37451 22.4875V27.4452Z"
      fill="#FB8901" />
    <path fill-rule="evenodd" clip-rule="evenodd"
      d="M16.4343 12.0052C16.4343 10.6427 17.5875 9.53556 19.005 9.53556H22.9968C24.4143 9.53556 25.5675 10.6427 25.5675 12.0052C25.5675 12.1351 25.4578 12.2404 25.3225 12.2404H16.6793C16.544 12.2404 16.4343 12.1351 16.4343 12.0052ZM37.2558 19.6323C37.4511 19.6323 37.6093 19.4783 37.5998 19.2909C37.3865 15.0553 34.435 12.2404 30.107 12.2404H28.4375C28.3023 12.2404 28.1925 12.1351 28.1925 12.0052C28.1925 9.25332 25.8615 7.01556 22.9968 7.01556H19.005C16.1403 7.01556 13.8093 9.25332 13.8093 12.0052C13.8093 12.1351 13.6996 12.2404 13.5643 12.2404H11.8913C7.56334 12.2404 4.61348 15.0552 4.3986 19.2908C4.3891 19.4781 4.54726 19.6323 4.74263 19.6323H37.2558Z"
      fill="#FB8901" />
  </symbol>

  <symbol id="icon-calender" viewBox="0 0 24 24" fill="none">
    <path opacity="0.5" d="M3.98413 9.66422H20.0256" stroke="#71717A" stroke-width="1.5" stroke-linecap="round"
      stroke-linejoin="round" />
    <path opacity="0.5" d="M16.0056 13.1797H15.9978V16.6775" stroke="#71717A" stroke-width="1.5" stroke-linecap="round"
      stroke-linejoin="round" />
    <path d="M15.6406 3V5.96174" stroke="#71717A" stroke-width="1.5" stroke-linecap="round" stroke-linejoin="round" />
    <path d="M8.36816 3V5.96174" stroke="#71717A" stroke-width="1.5" stroke-linecap="round" stroke-linejoin="round" />
    <path fill-rule="evenodd" clip-rule="evenodd"
      d="M15.8145 4.42188H8.19413C5.55056 4.42188 3.90039 5.89399 3.90039 8.59984V16.7456C3.90039 19.4943 5.55056 21.0004 8.19413 21.0004H15.8067C18.4581 21.0004 20.1004 19.5205 20.1004 16.8137V8.59984C20.1082 5.89399 18.4658 4.42188 15.8145 4.42188Z"
      stroke="#71717A" stroke-width="1.5" stroke-linecap="round" stroke-linejoin="round" />
    <path opacity="0.5" d="M12.0049 16.6914H11.9949" stroke="#71717A" stroke-width="1.5" stroke-linecap="round"
      stroke-linejoin="round" />
    <path opacity="0.5" d="M12.0049 13.2148H11.9949" stroke="#71717A" stroke-width="1.5" stroke-linecap="round"
      stroke-linejoin="round" />
    <path opacity="0.5" d="M7.98827 16.6914H7.97827" stroke="#71717A" stroke-width="1.5" stroke-linecap="round"
      stroke-linejoin="round" />

  </symbol>

  <symbol id="icon-star" viewBox="0 0 24 24" fill="currentColor">
    <path
      d="M17.5999 14.79C17.5409 14.434 17.6599 14.071 17.9189 13.82L21.6589 10.28C21.9669 9.991 22.0799 9.551 21.9489 9.15C21.8099 8.75 21.4589 8.46 21.0389 8.4L16.0689 7.679C15.7099 7.624 15.3989 7.397 15.2389 7.07L13.0199 2.6C12.8469 2.264 12.5159 2.039 12.1399 2H11.7189L11.5489 2.07L11.4399 2.11C11.3799 2.145 11.3259 2.188 11.2789 2.24L11.1889 2.31C11.1079 2.388 11.0409 2.48 10.9889 2.58L8.79888 7.07C8.62888 7.41 8.29688 7.64 7.91888 7.679L2.94888 8.4C2.53588 8.465 2.19388 8.754 2.05988 9.15C1.92188 9.547 2.02688 9.987 2.32888 10.28L5.93988 13.78C6.19888 14.035 6.31788 14.4 6.25888 14.759L5.36888 19.679C5.27188 20.274 5.66688 20.838 6.25888 20.95C6.50188 20.989 6.74988 20.95 6.96888 20.84L11.3989 18.519C11.4829 18.473 11.5749 18.443 11.6689 18.429H11.9399C12.1149 18.434 12.2859 18.478 12.4399 18.56L16.8689 20.87C17.2419 21.07 17.6969 21.04 18.0389 20.79C18.3879 20.549 18.5639 20.127 18.4889 19.71L17.5999 14.79Z"
      fill="#F59E0B" />

  </symbol>

  <symbol id="icon-right-chevron" viewBox="0 0 24 24" fill="currentColor">
<path fill-rule="evenodd" clip-rule="evenodd" d="M8.7501 3.586L17.1641 12L8.7501 20.414L7.3361 19L14.3361 12L7.3361 5L8.7501 3.586Z" fill="#71717A"/>

  </symbol>
    <symbol id="icon-right-chevron-white" viewBox="0 0 24 24" fill="currentColor">
<path fill-rule="evenodd" clip-rule="evenodd" d="M8.7501 3.586L17.1641 12L8.7501 20.414L7.3361 19L14.3361 12L7.3361 5L8.7501 3.586Z" fill="#ffffff"/>

  </symbol>

    <symbol id="icon-left-chevron" viewBox="0 0 24 24" fill="currentColor">
<path fill-rule="evenodd" clip-rule="evenodd" d="M15.7499 20.414L7.33594 12L15.7499 3.586L17.1639 5L10.1639 12L17.1639 19L15.7499 20.414Z" fill="#71717A"/>
  </symbol>

      <symbol id="icon-left-chevron-white" viewBox="0 0 24 24" fill="currentColor">
<path fill-rule="evenodd" clip-rule="evenodd" d="M15.7499 20.414L7.33594 12L15.7499 3.586L17.1639 5L10.1639 12L17.1639 19L15.7499 20.414Z" fill="#ffffff"/>
  </symbol>

  <symbol id="icon-orange-flash" viewBox="0 0 48 48" fill="none">
                                <path d="M16.25 24.2744L31.25 24.2744" stroke="#FB8901" stroke-width="1.5"
                                    stroke-linecap="round" stroke-linejoin="round" />
                                <path d="M22.3008 30.2988L16.2508 24.2748L22.3008 18.2498" stroke="#FB8901"
                                    stroke-width="1.5" stroke-linecap="round" stroke-linejoin="round" />
  </symbol>
    <symbol id="icon-red-flash" viewBox="0 0 48 48" fill="none">
                                <path d="M16.25 24.2744L31.25 24.2744" stroke="#E31F26" stroke-width="1.5"
                                    stroke-linecap="round" stroke-linejoin="round" />
                                <path d="M22.3008 30.2988L16.2508 24.2748L22.3008 18.2498" stroke="#E31F26"
                                    stroke-width="1.5" stroke-linecap="round" stroke-linejoin="round" />
  </symbol>
</svg>