<svg width="48" height="48" viewBox="0 0 48 48" fill="none" xmlns="http://www.w3.org/2000/svg">
<rect width="48" height="48" rx="24" fill="#FB8901"/>
<path fill-rule="evenodd" clip-rule="evenodd" d="M29.9728 27.9593C29.9728 28.4561 29.5696 28.8593 29.0728 28.8593C28.576 28.8593 28.1728 28.4561 28.1728 27.9593V23.8673C28.1728 22.6625 27.196 21.6833 25.9948 21.6833C24.7936 21.6833 23.8168 22.6625 23.8168 23.8673V27.9593C23.8168 28.4561 23.4136 28.8593 22.9168 28.8593C22.42 28.8593 22.0168 28.4561 22.0168 27.9593V23.8673C22.0168 21.6701 23.8012 19.8833 25.9948 19.8833C28.1884 19.8833 29.9728 21.6701 29.9728 23.8673V27.9593ZM18.9316 21.0113C18.4348 21.0113 17.9884 20.5601 17.9884 20.0633C17.9884 19.5665 18.4348 19.1153 18.9316 19.1153C19.4284 19.1153 19.8724 19.5665 19.8724 20.0633C19.8724 20.5601 19.4284 21.0113 18.9316 21.0113ZM19.8304 27.9593C19.8304 28.4561 19.4272 28.8593 18.9304 28.8593C18.4336 28.8593 18.0304 28.4561 18.0304 27.9593V23.4341C18.0304 22.9373 18.4336 22.5341 18.9304 22.5341C19.4272 22.5341 19.8304 22.9373 19.8304 23.4341V27.9593ZM29.062 12.6113H18.9412C15.1492 12.6113 12.6016 15.2789 12.6016 19.2473V28.7753C12.6016 32.7437 15.1492 35.4113 18.9412 35.4113H29.0608C32.8528 35.4113 35.4016 32.7437 35.4016 28.7753V19.2473C35.4016 15.2789 32.854 12.6113 29.062 12.6113Z" fill="white"/>
</svg>
