<svg width="48" height="48" viewBox="0 0 48 48" fill="none" xmlns="http://www.w3.org/2000/svg">
<rect width="48" height="48" rx="24" fill="#FB8901"/>
<path fill-rule="evenodd" clip-rule="evenodd" d="M23.8115 21.1055C21.9899 21.1055 20.5078 22.5851 20.5078 24.4055C20.5078 26.2259 21.9899 27.7055 23.8115 27.7055C25.6331 27.7055 27.1139 26.2259 27.1139 24.4055C27.1139 22.5851 25.6331 21.1055 23.8115 21.1055Z" fill="white"/>
<path fill-rule="evenodd" clip-rule="evenodd" d="M29.8384 19.7021C29.1544 19.7021 28.5964 19.1477 28.5964 18.4673C28.5964 17.7845 29.1544 17.2301 29.8384 17.2301C30.5224 17.2301 31.0792 17.7845 31.0792 18.4673C31.0792 19.1477 30.5224 19.7021 29.8384 19.7021ZM23.8144 29.5073C21.0016 29.5073 18.712 27.2201 18.712 24.4073C18.712 21.5945 21.0016 19.3073 23.8144 19.3073C26.6284 19.3073 28.9168 21.5945 28.9168 24.4073C28.9168 27.2201 26.6284 29.5073 23.8144 29.5073ZM29.062 12.6113H18.94C15.1492 12.6113 12.6016 15.2777 12.6016 19.2473V28.7753C12.6016 32.7437 15.1492 35.4113 18.94 35.4113H29.0608C32.8528 35.4113 35.4016 32.7437 35.4016 28.7753V19.2473C35.4016 15.2777 32.854 12.6113 29.062 12.6113Z" fill="white"/>
</svg>
