<svg width="30" height="30" viewBox="0 0 30 30" fill="none" xmlns="http://www.w3.org/2000/svg">
<path fill-rule="evenodd" clip-rule="evenodd" d="M14.9989 13.3055C13.5239 13.3055 12.3239 12.1055 12.3239 10.6305C12.3239 9.15552 13.5239 7.95552 14.9989 7.95552C16.4739 7.95552 17.6739 9.15552 17.6739 10.6305C17.6739 12.1055 16.4739 13.3055 14.9989 13.3055ZM14.9989 2.96802C10.7364 2.96802 7.27393 6.43052 7.27393 10.693C7.27393 15.9805 13.3114 21.193 14.9989 21.193C16.6739 21.193 22.7114 15.9805 22.7114 10.693C22.7114 6.43052 19.2489 2.96802 14.9989 2.96802Z" fill="#FB8901"/>
<path fill-rule="evenodd" clip-rule="evenodd" d="M23.5154 18.495C23.0641 18.24 22.4916 18.4025 22.2391 18.8538C21.9854 19.305 22.1454 19.8763 22.5979 20.13C23.5666 20.6738 24.1004 21.2813 24.1004 21.8425C24.1004 22.5963 23.1591 23.2375 22.5791 23.5638C22.1979 23.7888 21.7716 23.9863 21.2729 24.1688C17.8279 25.445 12.1816 25.4475 8.7241 24.1663C8.26285 23.9988 7.8166 23.7925 7.39535 23.5525C6.83285 23.2388 5.8916 22.5975 5.8916 21.8425C5.8916 21.085 6.83285 20.445 7.39535 20.13C7.8466 19.8763 8.0066 19.305 7.7541 18.8538C7.50035 18.4025 6.93035 18.2425 6.4766 18.495C4.4441 19.635 4.0166 20.9438 4.0166 21.8425C4.0166 22.7388 4.4441 24.0475 6.47285 25.1863C6.9816 25.475 7.5241 25.725 8.07785 25.9263C10.0041 26.64 12.4629 27.0338 15.0004 27.0338C17.5404 27.0338 19.9991 26.64 21.9204 25.9275C22.5241 25.7088 23.0516 25.4625 23.5154 25.1875C25.5479 24.0463 25.9754 22.7388 25.9754 21.8425C25.9754 20.945 25.5479 19.6363 23.5154 18.495Z" fill="#FB8901"/>
</svg>
