<svg width="24" height="25" viewBox="0 0 24 25" fill="none" xmlns="http://www.w3.org/2000/svg">
<g clip-path="url(#clip0_395_330)">
<path fill-rule="evenodd" clip-rule="evenodd" d="M22.0507 8.75092L19.9873 8.74951C19.8381 8.75022 19.6981 8.81386 19.6005 8.93265L18.0088 10.8694L15.2532 10.6156L15.2037 4.41706C15.2023 4.2813 15.145 4.15048 15.046 4.05714C14.9463 3.96309 14.8127 3.91431 14.6762 3.92209C14.4641 3.9334 14.2562 3.93905 14.0511 3.94612C13.5286 3.96238 13.035 3.97795 12.5337 4.06492C11.7007 4.20351 11.0431 4.76213 10.5821 5.72379C9.90255 7.11326 9.10776 8.75657 8.35681 10.4154C8.25498 10.6332 8.22105 10.6474 7.99124 10.6396L7.79042 10.6368C6.66046 10.624 5.49374 10.6099 4.33761 10.6686C2.7042 10.7563 0.947742 11.6387 0.952692 13.3733C0.955528 15.1 2.71057 15.9853 4.34328 16.0765C5.58566 16.1366 6.82876 16.1239 7.99832 16.1055C8.22813 16.1006 8.2649 16.1232 8.35823 16.3297C9.09716 17.9638 9.89478 19.61 10.5828 21.0235C11.0537 21.9979 11.6915 22.5409 12.5358 22.6852C13.0428 22.7693 13.5632 22.7849 14.0667 22.8018C14.2682 22.8082 14.4712 22.8146 14.6769 22.8252C14.8134 22.8315 14.9471 22.7828 15.0461 22.6894C15.1387 22.594 15.2016 22.4646 15.203 22.3288C15.2151 20.5066 15.2412 17.3013 15.2518 16.1239L18.0102 15.8573L19.5977 17.8111C19.6932 17.9278 19.8353 17.9949 19.9859 17.9956L22.0485 17.9978C22.1815 17.9978 22.3095 17.9447 22.4028 17.8514C22.4169 17.8372 22.4304 17.8224 22.4431 17.8054C22.5371 17.6845 22.5711 17.5261 22.5343 17.3762L21.5373 13.3768L22.535 9.37247C22.5732 9.22256 22.5393 9.06417 22.4445 8.94396C22.3498 8.82234 22.2041 8.75163 22.0507 8.75092Z" fill="#808080"/>
</g>
<defs>
<clipPath id="clip0_395_330">
<rect width="24" height="25" fill="white"/>
</clipPath>
</defs>
</svg>
