<svg width="24" height="25" viewBox="0 0 24 25" fill="none" xmlns="http://www.w3.org/2000/svg">
<path fill-rule="evenodd" clip-rule="evenodd" d="M2.806 12.2083C3.657 11.1883 5.118 11.0043 5.707 10.9723C6.741 10.9173 7.782 10.9283 8.789 10.9383L9.225 10.9013C9.897 9.42428 10.601 7.95828 11.31 6.50628C11.788 5.51228 12.473 4.93528 13.338 4.79228C13.823 4.70828 14.306 4.69228 14.773 4.67728C14.972 4.67128 15.174 4.66528 15.38 4.65328C15.582 4.64328 15.785 4.71328 15.936 4.85428C16.086 4.99428 16.172 5.19028 16.174 5.39628L16.219 10.8793C16.824 10.8763 17.537 10.8803 18.249 10.8813C18.953 10.8833 19.655 10.8853 20.246 10.8843C20.244 10.5713 20.242 10.2293 20.24 10.0573C20.237 9.64328 20.57 9.32028 20.984 9.31728C21.412 9.30328 21.737 9.66228 21.74 10.0763C21.743 10.3593 21.75 11.2503 21.75 11.4843C21.74 14.5683 19.921 16.4443 16.886 16.5013C13.329 16.5683 9.832 16.5823 5.677 16.5823C4.189 16.5823 2.49 15.8103 2.273 14.1163C2.181 13.3953 2.366 12.7363 2.806 12.2083Z" fill="white"/>
<path fill-rule="evenodd" clip-rule="evenodd" d="M5.24388 20.5898H18.7539C19.1679 20.5898 19.5039 20.9258 19.5039 21.3398C19.5039 21.7538 19.1679 22.0898 18.7539 22.0898H5.24388C4.82988 22.0898 4.49388 21.7538 4.49388 21.3398C4.49388 20.9258 4.82988 20.5898 5.24388 20.5898Z" fill="white"/>
</svg>
