<svg width="52" height="54" viewBox="0 0 52 54" fill="none" xmlns="http://www.w3.org/2000/svg">
<path fill-rule="evenodd" clip-rule="evenodd" d="M19.5974 35.1597C27.1288 32.1529 34.7078 28.9907 41.1319 26.2929C44.0093 25.0789 46.6634 22.2061 45.6928 18.7696C45.2811 17.2986 44.3863 16.1711 43.1036 15.508C40.6379 14.2357 37.6588 15.0609 36.4823 15.4799C34.4326 16.2208 32.4176 17.0934 30.4698 17.938L29.8783 18.195C29.8718 18.195 29.8284 18.2123 29.7829 18.2317C29.7786 18.2253 29.7721 18.2188 29.7634 18.2123C27.1743 15.8125 24.4161 13.4128 22.2083 11.4904C20.4858 9.97191 18.6983 9.41463 16.8653 9.82935C15.8773 10.0648 14.9434 10.4233 14.0421 10.7733C13.6499 10.9245 13.2556 11.0778 12.8504 11.2204C12.4323 11.3694 12.0921 11.6826 11.9123 12.0887C11.7324 12.4926 11.7259 12.9527 11.8949 13.3631L16.2174 23.8024C15.1493 24.2538 13.9121 24.7787 12.6641 25.3079C11.2536 25.9084 9.83228 26.5132 8.63195 27.0186C8.55828 26.8393 8.48245 26.6557 8.41095 26.4829L7.99928 25.4915C7.65261 24.6664 6.70361 24.2776 5.87378 24.6232C5.04395 24.9688 4.65611 25.917 5.00061 26.7421L5.40578 27.7185C5.68745 28.3989 6.01678 29.1937 6.13595 29.4724C6.17061 29.5523 6.20528 29.6344 6.23995 29.7143C6.24645 29.7294 6.25511 29.7467 6.26161 29.764C6.28111 29.8115 6.30278 29.8569 6.32661 29.9022C8.20078 33.9565 11.3056 36.1036 15.0626 36.1036C16.4904 36.1036 18.0136 35.7925 19.5974 35.1597Z" fill="#FF9500"/>
<path fill-rule="evenodd" clip-rule="evenodd" d="M26.5933 43.2024H10.6055C9.70847 43.2024 8.98047 43.9282 8.98047 44.8224C8.98047 45.7166 9.70847 46.4424 10.6055 46.4424H26.5933C27.4903 46.4424 28.2183 45.7166 28.2183 44.8224C28.2183 43.9282 27.4903 43.2024 26.5933 43.2024Z" fill="#FF9500"/>
<path fill-rule="evenodd" clip-rule="evenodd" d="M46.6491 35.2103C46.0143 34.5774 44.9851 34.5774 44.3503 35.2103L37.2718 42.2713L34.4248 39.4244C33.7899 38.7894 32.7608 38.7872 32.1259 39.4201C31.4911 40.0508 31.4889 41.0768 32.1216 41.7097L36.1191 45.7057C36.4224 46.0103 36.8363 46.1831 37.2674 46.1831C37.6986 46.1831 38.1146 46.0124 38.4179 45.7079L46.6491 37.502C47.2839 36.8691 47.2839 35.8431 46.6491 35.2103Z" fill="#FF9500"/>
</svg>
