<svg width="48" height="48" viewBox="0 0 48 48" fill="none" xmlns="http://www.w3.org/2000/svg">
<path d="M32.1249 23.0618H32.124C32.0009 23.0619 31.879 23.0862 31.7653 23.1334C31.6516 23.1806 31.5483 23.2498 31.4614 23.3369C31.3744 23.4241 31.3054 23.5275 31.2584 23.6413C31.2114 23.755 31.1872 23.877 31.1873 24.0001C31.1862 25.3144 30.8247 26.6033 30.1423 27.7266C29.4599 28.8499 28.4827 29.7647 27.3168 30.3715C26.1509 30.9783 24.841 31.2539 23.5295 31.1684C22.2179 31.0828 20.9549 30.6394 19.8777 29.8863C16.6316 27.6134 15.8398 23.1232 18.1128 19.8771C20.3858 16.6309 24.876 15.8391 28.1221 18.1122C28.6132 18.4551 29.0595 18.8581 29.4507 19.3118H26.8124C26.5637 19.3118 26.3253 19.4105 26.1495 19.5864C25.9736 19.7622 25.8749 20.0006 25.8749 20.2493C25.8749 20.4979 25.9736 20.7364 26.1495 20.9122C26.3253 21.088 26.5637 21.1868 26.8124 21.1868H31.1874C31.436 21.1868 31.6745 21.088 31.8503 20.9122C32.0261 20.7364 32.1249 20.4979 32.1249 20.2493V15.8743C32.1249 15.6256 32.0261 15.3872 31.8503 15.2114C31.6745 15.0355 31.436 14.9368 31.1874 14.9368C30.9387 14.9368 30.7003 15.0355 30.5245 15.2114C30.3486 15.3872 30.2499 15.6256 30.2499 15.8743V17.4355C29.9209 17.1233 29.5691 16.8361 29.1975 16.5761C28.2227 15.8935 27.123 15.4097 25.9612 15.1521C24.7994 14.8945 23.5982 14.8683 22.4263 15.075C21.2543 15.2816 20.1346 15.7171 19.1309 16.3565C18.1273 16.9959 17.2594 17.8267 16.5768 18.8015C15.1983 20.7703 14.6584 23.2059 15.0757 25.5728C15.4931 27.9396 16.8335 30.0437 18.8023 31.4222C20.318 32.4899 22.1266 33.0631 23.9807 33.0634C24.5147 33.0632 25.0476 33.0163 25.5735 32.9234C27.6717 32.5533 29.5724 31.4558 30.9419 29.8236C32.3114 28.1915 33.0622 26.1291 33.0624 23.9984C33.0622 23.75 32.9633 23.5117 32.7875 23.3361C32.6117 23.1604 32.3734 23.0618 32.1249 23.0618Z" fill="#18181B"/>
</svg>
