<svg width="30" height="30" viewBox="0 0 30 30" fill="none" xmlns="http://www.w3.org/2000/svg">
<path fill-rule="evenodd" clip-rule="evenodd" d="M11.5615 3.125H18.4365C21.2627 3.125 23.5615 5.42375 23.5615 8.24875V21.75C23.5615 24.5762 21.2627 26.875 18.4365 26.875H11.5615C8.73527 26.875 6.43652 24.5762 6.43652 21.75V8.24875C6.43652 5.42375 8.73527 3.125 11.5615 3.125ZM13.249 9.3125H16.749C17.2665 9.3125 17.6865 8.8925 17.6865 8.375C17.6865 7.8575 17.2665 7.4375 16.749 7.4375H13.249C12.7315 7.4375 12.3115 7.8575 12.3115 8.375C12.3115 8.8925 12.7315 9.3125 13.249 9.3125ZM13.8115 21.5C13.8115 22.1663 14.3327 22.6875 14.999 22.6875C15.5602 22.6875 16.1865 22.18 16.1865 21.5C16.1865 20.82 15.5602 20.3125 14.999 20.3125C14.439 20.3125 13.8115 20.82 13.8115 21.5Z" fill="#FB8901"/>
</svg>
