<svg width="48" height="48" viewBox="0 0 48 48" fill="none" xmlns="http://www.w3.org/2000/svg">
<rect width="48" height="48" rx="24" fill="#FB8901"/>
<path fill-rule="evenodd" clip-rule="evenodd" d="M35.308 15.7987C35.1808 15.5995 34.9504 15.4879 34.7128 15.5275L32.3092 15.8851C31.6312 15.1267 29.5552 13.1923 26.6908 14.0587C24.2104 14.8195 23.0296 17.4571 22.9588 19.4707C19.8832 18.9067 17.0128 17.3923 14.8144 15.1603C14.6572 15.0007 14.4232 14.9419 14.2072 15.0091C13.9912 15.0763 13.8328 15.2587 13.7956 15.4807C12.6976 22.0123 14.116 26.3719 18.256 29.1079C16.7188 29.9551 14.956 30.3907 13.2208 30.3283C12.9832 30.3271 12.766 30.4531 12.6628 30.6655C12.5584 30.8767 12.5896 31.1299 12.7408 31.3123C14.5192 33.4507 17.8696 34.1839 20.5396 34.1839C20.848 34.1839 21.1468 34.1743 21.4336 34.1563C25.3216 33.9139 28.5268 32.3083 30.7024 29.5111C32.7628 26.8627 33.76 23.2231 33.5092 19.2331L33.502 19.1743L35.302 16.4515C35.4328 16.2547 35.4352 15.9979 35.308 15.7987Z" fill="white"/>
</svg>
